<?xml version="1.0" encoding="utf-8"?>
<!-- Generator: Adobe Illustrator 24.0.1, SVG Export Plug-In . SVG Version: 6.00 Build 0)  -->
<svg version="1.1" id="レイヤー_1" xmlns="http://www.w3.org/2000/svg" xmlns:xlink="http://www.w3.org/1999/xlink" x="0px"
	 y="0px" viewBox="0 0 473.8 56.2" style="enable-background:new 0 0 473.8 56.2;" xml:space="preserve">
<style type="text/css">
	.st0{fill:url(#SVGID_1_);}
	.st1{fill:url(#SVGID_2_);}
	.st2{fill:url(#SVGID_3_);}
	.st3{fill:url(#SVGID_4_);}
	.st4{fill:url(#SVGID_5_);}
	.st5{fill:url(#SVGID_6_);}
	.st6{fill:url(#SVGID_7_);}
	.st7{fill:url(#SVGID_8_);}
	.st8{fill:url(#SVGID_9_);}
	.st9{fill:url(#SVGID_10_);}
	.st10{fill:url(#SVGID_11_);}
	.st11{display:none;fill:#FF0000;enable-background:new    ;}
	.st12{font-family:'YuMincho-Demibold';}
	.st13{font-size:64px;}
	.st14{letter-spacing:2;}
</style>
<linearGradient id="SVGID_1_" gradientUnits="userSpaceOnUse" x1="88.4145" y1="26.0931" x2="88.4145" y2="5.0778">
	<stop  offset="0" style="stop-color:#27272d"/>
	<stop  offset="1" style="stop-color:#000"/>
</linearGradient>
<path class="st0" d="M101.9,6.6c0.3,0,0.6-0.3,0.6-0.6l0,0c0-0.3-0.2-0.6-0.5-0.7s-7.3-1.6-12.3,4.8c-0.5,0.7-1,1.3-1.5,2
	c-2.7,3.6-5.3,7-8.2,7.3c-1.4,0.1-2.7-0.4-4.2-1.7c-0.2-0.1-0.4-0.2-0.6-0.2s-0.4,0.2-0.5,0.4c0,0-1.9,4.5,2.9,7.2
	c1.7,1,3.3,1.2,4.9,0.8c2.6-0.8,5.1-3.6,8.3-9.4C95.2,8.1,98.5,7.1,101.9,6.6z M89.5,15.8c-3,5.4-5.3,8.1-7.5,8.7
	c-1.2,0.3-2.4,0.1-3.8-0.7c-2.1-1.1-2.6-2.7-2.6-3.8c0-0.3,0.4-0.5,0.6-0.4c1.3,0.8,2.5,1.1,3.8,1c3.4-0.3,6.2-4,9.1-7.8
	c0.5-0.7,1-1.3,1.5-2C92,9,93.7,7.9,95.3,7.2c0.2-0.1,0.4,0.2,0.2,0.4C93.8,9.2,91.8,11.6,89.5,15.8z"/>
<linearGradient id="SVGID_2_" gradientUnits="userSpaceOnUse" x1="380.9693" y1="25.9931" x2="380.9693" y2="5.0222">
	<stop  offset="0" style="stop-color:#27272d"/>
	<stop  offset="1" style="stop-color:#000"/>
</linearGradient>
<path class="st1" d="M378.6,16.4c3.2,5.8,5.7,8.6,8.3,9.4c1.5,0.4,3.1,0.2,4.9-0.8c4.7-2.6,2.9-7.1,2.9-7.2
	c-0.1-0.2-0.3-0.3-0.5-0.4c-0.2,0-0.4,0-0.6,0.2c-1.5,1.3-2.9,1.9-4.2,1.7c-2.9-0.3-5.4-3.7-8.2-7.3c-0.5-0.7-1-1.3-1.5-2
	c-5-6.4-12-4.8-12.3-4.8c-0.3,0.1-0.5,0.3-0.5,0.7l0,0c0,0.3,0.3,0.6,0.6,0.6C370.8,7.1,374,8.1,378.6,16.4z M373.6,7.7
	c-0.2-0.2,0-0.5,0.2-0.4c1.6,0.6,3.2,1.7,4.7,3.6c0.5,0.7,1,1.3,1.5,2c2.9,3.8,5.7,7.5,9.1,7.8c1.3,0.1,2.5-0.2,3.8-1
	c0.3-0.2,0.7,0,0.6,0.4c0,1.1-0.5,2.7-2.6,3.8c-1.4,0.8-2.7,1-3.8,0.7c-2.2-0.6-4.5-3.3-7.5-8.7C377.5,11.6,375.5,9.2,373.6,7.7z"/>
<g>
	<linearGradient id="SVGID_3_" gradientUnits="userSpaceOnUse" x1="234.7178" y1="56.2" x2="234.7178" y2="5.7608">
		<stop  offset="0" style="stop-color:#27272d"/>
		<stop  offset="1" style="stop-color:#000"/>
	</linearGradient>
	<path class="st2" d="M368,6.1c-0.2-0.2-0.5-0.3-0.7-0.1c-14.1,11.5-33.8,20.7-48.8,26.6c-0.3,0.1-0.5,0.2-0.7,0.3
		c-11,4.3-19.4,6.9-20.9,7.3c-0.9-0.6-1.8-1.2-2.8-1.9c7.1-2,46.3-13.9,68.5-31.6c0.2-0.2,0.3-0.5,0.1-0.7c-0.2-0.2-0.5-0.3-0.7-0.1
		c-23.2,18.5-65.4,30.6-68.9,31.6c-2.3-1.5-4.7-3.1-7.2-4.7c0.9-0.2,2.3-0.6,4.1-1.2c0.8,0,1.5-0.2,2.1-0.6c0.1,0,0.1-0.1,0.2-0.1
		c12.2-3.7,36.5-11.9,55.8-24.2c0.2-0.2,0.3-0.5,0.2-0.7c-0.2-0.2-0.5-0.3-0.7-0.2c-17.9,11.4-40.2,19.3-52.9,23.3
		c0.4-0.5,0.7-1.1,0.7-1.6c0.2-1.6-1.3-3-2.6-4.2c-0.2-0.2-0.4-0.2-0.6-0.1s-0.3,0.3-0.3,0.6c0,0.1,0.3,1.6-0.8,2.6
		c-1.1,0.9-3.8,1.5-10.4-1.1c-1.1-0.4-2.1-0.7-3.2-1c-2.4-0.5-7.2-1.4-12.3-1.4c-0.1,0-0.2,0-0.3,0.1c-8.1,0.2-16.4,2.9-18.8,10.1
		c-0.3,0.9-0.6,1.9-0.7,2.8l0,0V36c-0.1,0.7-0.2,1.4-0.2,2c-1-0.3-2.9-0.9-5.8-1.2c0.4-2,1.4-5.2,4.3-7.9c1.6-1.5,2.9-2.6,4.1-3.6
		c2.5-2.1,4.4-3.7,5.9-6.9c0.9-1.9,0.5-2.9,0-3.4c-0.9-0.8-2.5-0.6-3.5,0c-0.6,0.4-0.9,0.9-0.8,1.5c0.2,0.6,0.6,1,1,1.3
		c0.6,0.5,0.8,0.7,0.2,1.8c-0.7,1.1-1.5,1.2-2.6,1.3c-0.6,0-1.2,0.1-1.8,0.3c-0.1-0.5-0.2-1.1-0.6-1.5c-0.2-0.2-0.6-0.3-1.1,0
		c-1.8,0.8-6.6,5.7-6.5,17c-0.9-0.1-1.8-0.1-2.8-0.2V25c0.4-0.4,1.2-1.3,1.4-2c0.1-0.5,0-0.8-0.2-1c-0.4-0.5-1.3-0.6-1.7-0.6
		c-0.5,0-1.3,0.1-1.7,0.6c-0.2,0.2-0.3,0.5-0.2,1c0.2,0.7,1,1.6,1.4,2v11.7c-1,0-1.9,0.1-2.8,0.2c0.2-11.3-4.6-16.2-6.5-17
		c-0.5-0.2-0.9-0.2-1.1,0c-0.4,0.4-0.5,1-0.6,1.5c-0.6-0.2-1.2-0.3-1.8-0.3c-1.1-0.1-2-0.2-2.6-1.3c-0.7-1.1-0.4-1.3,0.2-1.8
		c0.4-0.3,0.8-0.7,1-1.3c0.1-0.5-0.2-1.1-0.8-1.5c-1-0.6-2.6-0.8-3.5,0c-0.5,0.5-1,1.5,0,3.4c1.5,3.3,3.4,4.8,5.9,6.9
		c1.2,1,2.5,2.1,4.1,3.6c2.9,2.7,3.9,5.9,4.3,7.9c-2.9,0.4-4.8,0.9-5.8,1.2c0-0.7-0.1-1.3-0.2-2v-0.1l0,0c-0.2-0.9-0.4-1.8-0.7-2.8
		c-2.5-7.3-10.8-9.9-18.8-10.1c-0.1-0.1-0.2-0.1-0.3-0.1c-5.2-0.1-10,0.8-12.3,1.4c-1,0.2-2.1,0.6-3.2,1c-6.6,2.6-9.3,2-10.4,1.1
		c-1.1-1-0.8-2.5-0.8-2.6c0.1-0.2,0-0.5-0.2-0.6s-0.5-0.1-0.6,0.1c-1.3,1.2-2.8,2.6-2.6,4.2c0.1,0.6,0.3,1.1,0.7,1.6
		c-12.8-4-35.1-11.9-52.9-23.3c-0.2-0.2-0.6-0.1-0.7,0.2c-0.2,0.2-0.1,0.6,0.2,0.7c19.3,12.3,43.7,20.6,55.8,24.2
		c0.1,0,0.1,0.1,0.2,0.1c0.7,0.4,1.4,0.5,2.1,0.6c1.8,0.5,3.2,0.9,4.1,1.1c-2.5,1.6-5,3.2-7.2,4.7c-3.5-1-45.8-13.1-68.9-31.6
		c-0.2-0.2-0.6-0.1-0.7,0.1c-0.2,0.2-0.1,0.6,0.1,0.7c22.1,17.6,61.4,29.5,68.5,31.6c-1,0.6-1.9,1.3-2.8,1.9
		c-1.5-0.4-9.8-3-20.9-7.3c-0.2-0.1-0.5-0.2-0.7-0.3c-15-5.9-34.7-15.1-48.8-26.6c-0.2-0.2-0.6-0.2-0.7,0.1
		c-0.2,0.2-0.2,0.6,0.1,0.7c13.5,11,32,19.9,46.8,25.9c-0.1,0-0.2,0.1-0.3,0.1c-0.8,0.4-2.1,1.3-2.1,3.6c0,5.6,4.3,14.8,15.7,15.8
		c0.7,0.1,1.3,0.1,1.9,0.1c7.7,0,13.2-4.2,17.7-8.6c1.1,0.3,4.6,1.2,6.1,1.6c-0.3,1.7-0.3,3.3,0,4.8c0.7,3.4,3,5.7,6,5.9
		c0.5,0,0.9,0.1,1.3,0.1c3.9,0,5.2-1.8,5.7-2.9c0.7-1.8,0-3.7-1.1-4.5c-0.1-0.1-0.3-0.1-0.4-0.1c-0.1,0-0.3,0.1-0.4,0.2
		c0,0-0.7,1.1-1.8,1.3c-0.5,0.1-1.1-0.1-1.6-0.5c-0.8-0.7-1.7-1.9-2-3.7c2.2,0.4,9,1.7,11.2,2c1.5,2,3.8,3.6,7,3.6
		c0.1,0,0.2,0,0.4,0c4.6-0.2,8.4-2,10.6-5.3c1.3-1.9,2-4.2,2.1-6.7c2.1,0.5,4.1,0.9,5.9,1.1c-0.1,0.7-0.2,1.6-0.4,2.4
		c-0.5,0.8-1.1,1.3-1.8,1.5c-1,0.2-1.8-0.3-1.8-0.3c-0.2-0.1-0.5-0.1-0.7,0.1c-0.7,0.7-0.6,2.2,0.2,3c0.2,0.2,0.6,0.5,1.2,0.5
		c0.5,0,1.1-0.2,1.8-0.8c1.7-1.4,2.3-4.3,2.5-6.2c1.3,0.2,2.4,0.2,3,0.3v1h-1.5c-0.3,0-0.5,0.2-0.5,0.5s0.2,0.5,0.5,0.5h1.5v0.3
		c0,4.5-4.8,5.7-5,5.8c-0.2,0-0.3,0.2-0.4,0.3c-0.1,0.2,0,0.4,0.1,0.5c2.7,3.3,5.7,3.4,5.8,3.4l0,0l0,0c0.1,0,3.1-0.1,5.8-3.4
		c0.1-0.1,0.1-0.3,0.1-0.5c-0.1-0.2-0.2-0.3-0.4-0.3c-0.1,0-5-1.3-5-5.8v-0.3h1.5c0.3,0,0.5-0.2,0.5-0.5s-0.2-0.5-0.5-0.5h-1.5v-1
		c0.6,0,1.7-0.1,3-0.3c0.2,1.9,0.8,4.8,2.5,6.2c0.7,0.6,1.4,0.8,1.8,0.8c0.7,0,1.1-0.4,1.2-0.5c0.7-0.8,0.8-2.2,0.2-3
		c-0.2-0.2-0.5-0.2-0.7-0.1c0,0-0.8,0.5-1.8,0.3c-0.7-0.2-1.3-0.7-1.8-1.5c-0.2-0.9-0.4-1.7-0.4-2.4c1.7-0.2,3.8-0.6,5.9-1.1
		c0.1,2.5,0.8,4.8,2.1,6.7c2.2,3.2,6,5.1,10.6,5.3c0.1,0,0.3,0,0.4,0c3.2,0,5.5-1.5,7-3.6c2.2-0.4,9-1.6,11.2-2
		c-0.3,1.8-1.1,3-2,3.7c-0.5,0.4-1.1,0.6-1.6,0.5c-1.1-0.2-1.8-1.3-1.8-1.3c-0.1-0.1-0.2-0.2-0.4-0.2c-0.1,0-0.3,0-0.4,0.1
		c-1,0.8-1.7,2.7-1.1,4.5c0.4,1.1,1.8,2.9,5.7,2.9c0.4,0,0.9,0,1.3-0.1c3-0.3,5.3-2.5,6-5.9c0.3-1.5,0.3-3.1,0-4.8
		c1.5-0.4,5.1-1.3,6.1-1.6c4.5,4.4,10,8.6,17.7,8.6c0.6,0,1.3,0,1.9-0.1c11.4-1,15.7-10.3,15.7-15.8c0-2.3-1.3-3.3-2.1-3.6
		c-0.1,0-0.2-0.1-0.3-0.1C336,26.8,354.5,18,368,6.9C368.1,6.7,368.1,6.3,368,6.1z M243.5,21.6c0.5-0.5,1.3-0.1,1.3,0.6l0,0
		c0,0.2,0.1,0.4,0.3,0.5s0.4,0.1,0.6,0c0.6-0.4,1.3-0.5,2-0.5c1.2-0.1,2.5-0.2,3.4-1.8c1-1.7,0.4-2.5-0.4-3.2
		c-0.3-0.3-0.5-0.5-0.6-0.8c0-0.1,0.4-0.4,1.1-0.6c0.7-0.2,1.3-0.1,1.5,0.2c0.3,0.4,0.2,1.1-0.3,2.1c-1.4,3-3.1,4.4-5.6,6.6
		c-1.2,1-2.6,2.1-4.2,3.7c-2,1.9-3.2,4-3.9,5.8C239.2,26.9,241.8,23.2,243.5,21.6z M221.8,24.7c-2.5-2.1-4.2-3.5-5.6-6.6
		c-0.5-1-0.6-1.7-0.3-2.1c0.2-0.2,0.5-0.3,0.9-0.3c0.2,0,0.4,0,0.6,0.1c0.7,0.2,1.1,0.5,1.1,0.6c-0.1,0.3-0.3,0.5-0.6,0.8
		c-0.8,0.7-1.4,1.4-0.4,3.2c0.9,1.6,2.3,1.7,3.4,1.8c0.7,0.1,1.4,0.1,2,0.5c0.2,0.1,0.4,0.1,0.6,0c0.2-0.1,0.3-0.3,0.3-0.5l0,0
		c0-0.7,0.8-1,1.3-0.6c1.6,1.5,4.3,5.3,4.7,12.5c-0.7-1.8-1.9-3.9-3.9-5.8C224.4,26.8,223,25.7,221.8,24.7z M227.6,46.3
		c-0.4,0.3-1.2,0.8-1.6,0.4c-0.3-0.3-0.4-0.8-0.3-1.1c0.5,0.2,1.2,0.4,2.1,0.2c0.2,0,0.4-0.1,0.5-0.2
		C228,45.9,227.8,46.1,227.6,46.3z M240.9,45.8c0.8,0.2,1.6,0,2.1-0.2c0.1,0.4,0,0.9-0.3,1.1c-0.5,0.5-1.2,0-1.6-0.4
		c-0.2-0.2-0.5-0.5-0.7-0.7C240.5,45.7,240.7,45.7,240.9,45.8z M315.8,34.8c-0.3,0.7-0.3,1.4-0.1,2.1c0,0.1,0.1,0.3,0.3,0.3
		c0.1,0.1,0.3,0.1,0.4,0c0,0,1.1-0.5,2.1-0.1c0.6,0.3,1.1,0.8,1.4,1.7c0.3,1,0,2.2-1,3.4c-1.8,2.1-6.2,4.3-12.3,3.2
		c-2.2-0.4-5.2-2.1-8.7-4.4C300.4,40.3,307.1,38.1,315.8,34.8z M280,26.5c5.7,2.2,9.6,2.5,11.5,0.9c0.8-0.7,1.1-1.5,1.2-2.3
		c0.9,0.9,1.4,1.7,1.3,2.4c-0.1,0.8-0.9,1.7-2.5,2.6c-0.7,0.2-1.4,0.4-2,0.6c-2.1,0-4.9-1.4-7.9-3c-1.4-0.7-2.8-1.5-4.3-2.1
		C278.2,25.8,279.1,26.1,280,26.5z M270.3,24.6c3.8,0.4,7.5,2.4,10.8,4.1c2.2,1.1,4.2,2.2,6,2.7c-1.5,0.4-2.4,0.7-2.8,0.8
		c-4.9-2.9-10.2-5.6-15.5-6.8c-0.1,0-0.2-0.1-0.2-0.1c-0.1,0-0.2,0-0.2,0c-2.6-0.6-5.2-0.8-7.7-0.6
		C264.1,24.2,267.6,24.2,270.3,24.6z M233.4,22.7L233.4,22.7c0.1-0.2,0.4-0.3,0.9-0.3s0.8,0.1,0.9,0.2c0,0,0,0,0,0.1
		c0,0.2-0.3,0.6-0.6,0.9c-0.2,0.2-0.5,0.2-0.7,0C233.7,23.3,233.4,22.9,233.4,22.7z M174.6,27.5c-0.1-0.7,0.4-1.5,1.3-2.4
		c0.1,0.7,0.4,1.6,1.2,2.3c1.9,1.6,5.8,1.3,11.5-0.9c0.9-0.4,1.8-0.6,2.7-0.9c-1.5,0.7-2.9,1.4-4.3,2.1c-3.1,1.6-5.8,3-7.9,3
		c-0.6-0.2-1.3-0.4-2-0.6C175.5,29.2,174.7,28.3,174.6,27.5z M181.5,31.4c1.8-0.5,3.8-1.6,6-2.7c3.3-1.7,7.1-3.7,10.8-4.1
		c2.7-0.3,6.2-0.4,9.7,0.1c-2.6-0.2-5.1,0-7.7,0.6c-0.1,0-0.2,0-0.2,0s-0.1,0-0.2,0.1c-5.3,1.3-10.6,3.9-15.5,6.8
		C183.9,32.1,182.9,31.8,181.5,31.4z M152.6,37.3c0.1-0.1,0.2-0.2,0.3-0.3c0.2-0.7,0.2-1.5-0.1-2.1c8.7,3.3,15.4,5.5,17.9,6.2
		c-3.5,2.3-6.5,4-8.7,4.4c-6.1,1.1-10.5-1-12.3-3.2c-1-1.2-1.4-2.4-1-3.4c0.3-0.9,0.8-1.5,1.4-1.7c1-0.4,2.1,0.1,2.1,0.1
		C152.3,37.4,152.5,37.4,152.6,37.3z M161,51.2c-10.7-1-14.7-9.6-14.7-14.8c0-1.3,0.5-2.2,1.4-2.7c0.4-0.2,0.8-0.3,1.2-0.3
		s0.7,0.1,1.1,0.2c0.2,0.1,0.4,0.2,0.6,0.2c0.2,0.1,0.5,0.3,0.7,0.4c0.4,0.4,0.9,0.9,0.8,1.8c-0.6-0.1-1.5-0.3-2.3,0.1
		c-0.9,0.4-1.6,1.2-2,2.4c-0.5,1.4,0,3,1.2,4.4c2.1,2.5,6.7,4.7,13.3,3.5c2.6-0.5,6.1-2.6,10.1-5.2l0,0c1-0.7,2.1-1.4,3.2-2.1
		c2.9-2,6-4.1,9.2-6c0,0,0,0,0.1,0c2.8-1.7,5.8-3.3,8.7-4.6c-3.5,2-8,5.1-13,9.5c-10.6,9.3-17,10.5-17.1,10.5
		c-0.3,0-0.5,0.3-0.4,0.6c0,0.3,0.3,0.4,0.5,0.4h0.1c0.3,0,6.8-1.2,17.6-10.8c10.6-9.4,19.2-12.6,19.3-12.6c0,0,0,0,0.1,0
		c2.7-0.6,5.5-0.8,8.2-0.5c-8.8-0.2-18.8,6.8-25,13.3l-0.7,0.7C177.4,45.6,171.2,52.2,161,51.2z M188.3,40.7
		c-0.8-0.1-2.7-0.3-4.2-0.7l0.2-0.2c1.6-1.7,3.4-3.4,5.4-5c1,0.2,2.1,0.4,2.9,0.5C190.8,37.1,189.4,38.9,188.3,40.7z M181.4,42.9
		c0.7-0.7,1.3-1.4,1.9-2c1.5,0.5,3.4,0.8,4.5,0.9c-0.4,0.9-0.7,1.7-0.9,2.6C185.6,44,182.8,43.3,181.4,42.9z M193.8,50.6
		c0.8,0.6,1.6,0.8,2.4,0.7c1-0.2,1.7-0.8,2.1-1.3c0.5,0.7,0.7,1.8,0.3,2.9c-0.7,1.7-2.8,2.5-5.9,2.2c-2.6-0.2-4.5-2.1-5.1-5.1
		c-0.9-4.3,1.1-10.5,7.4-15.1c-0.6,0.6-1.1,1.3-1.6,2.1c-1,1.8-1.7,3.5-2,5.1l0,0l0,0C190.8,46,191.9,49.1,193.8,50.6z M201.7,43.2
		c-2.2-0.1-7.4-1.1-9-1.4c0.3-1.3,0.9-2.7,1.8-4.3c0.3-0.6,0.8-1.2,1.2-1.7c3.6,0.7,5.7,0.9,6.8,0.9C201.5,38.6,201.3,41,201.7,43.2
		z M192.3,45c0-0.7,0-1.4,0.1-2.1c1.7,0.3,7.2,1.4,9.5,1.4c0.2,0.9,0.6,1.8,1,2.6C200,46.4,193.9,45.3,192.3,45z M202.8,43.3
		c-0.5-2.3-0.2-5,1-6.7c0,0,0,0,0-0.1c0.5-0.8,1.3-1.4,2.2-1.8c1.6-0.6,3.1-0.9,4.4-0.9c1.7,0,3.1,0.4,4.3,1.3
		c1.8,1.3,2.6,3.6,2.4,6.5c-0.1,1.8-1,3.1-2.4,3.7c-1.6,0.6-3.6,0.1-4.8-1.1c-1.1-1.1-1.4-2.7-0.8-4.4c0.6,0.4,1.6,0.8,2.5,0.7
		c0.7-0.1,1.3-0.5,1.7-1.1c0.6-0.9,0.4-2-0.5-2.8c-1.5-1.4-4.4-1.8-6.5-0.2c-1.6,1.2-2.5,2.9-2.7,4.9c-0.1,1.4,0.1,2.8,0.8,4.3
		c0.2,0.5-0.6,0.9-0.8,0.4C203.2,45.1,202.9,44.2,202.8,43.3z M220.8,45.8c-2,2.9-5.5,4.6-9.8,4.8l0,0c-1.3,0-2.5-0.6-3.3-1.6
		c-2.2-2.8-3.2-5.4-3-7.7c0.2-2.1,1.3-3.4,2.3-4.1c1.8-1.4,4.2-0.8,5.1,0.1c0.3,0.3,0.7,0.8,0.3,1.4c-0.3,0.4-0.6,0.6-1,0.7
		c-0.9,0.1-2-0.6-2.3-0.9c-0.1-0.1-0.3-0.1-0.5-0.1s-0.3,0.2-0.4,0.3c-1,2.4-0.7,4.6,0.8,6.2c1.5,1.6,3.9,2.1,5.9,1.4
		c1.8-0.7,3-2.4,3.1-4.6c0.2-4.2-1.4-6.3-2.9-7.4c-2.4-1.8-5.9-2-9.7-0.5c-1.1,0.4-1.9,1.1-2.6,2c-0.6,0-2.6-0.1-6.6-0.8
		c3.8-3.6,9.6-4.7,9.7-4.7h0.1c8-1,12.4,3.7,12.6,4c0.2,0.2,0.5,0.2,0.7,0s0.2-0.5,0-0.8c-0.1-0.1-4.9-5.3-13.5-4.3
		c-0.1,0-0.1,0-0.2,0c0,0-0.1,0-0.2,0c-2.5,0.4-5.3,1.3-8.4,3c-1.3,0.7-2.5,1.5-3.6,2.3c-0.5-0.1-1.7-0.3-2.9-0.5
		c6.3-4.7,13.8-8.3,20.3-6.9c9.3,2,11.2,8.5,11.4,9.2C223.2,39.9,222.6,43.2,220.8,45.8z M257.5,50.6c-4.3-0.2-7.7-1.9-9.8-4.8
		c-1.8-2.6-2.3-5.9-1.7-9.5c0.2-0.6,2.1-7.2,11.4-9.2c6.5-1.4,14.1,2.1,20.3,6.9c-1.3,0.2-2.4,0.4-2.9,0.5c-1.1-0.8-2.2-1.6-3.6-2.3
		c-3.1-1.7-5.9-2.6-8.4-3c-0.1,0-0.2,0-0.2,0c-0.1,0-0.1,0-0.2,0c-8.6-1.1-13.5,4.2-13.5,4.3c-0.2,0.2-0.2,0.6,0,0.7
		c0.2,0.2,0.6,0.2,0.8,0c0.2-0.3,4.6-5,12.6-4h0.1c0.1,0,5.8,1.1,9.7,4.7c-3.9,0.7-5.9,0.8-6.6,0.8c-0.6-0.9-1.5-1.6-2.6-2
		c-3.8-1.4-7.3-1.2-9.7,0.5c-1.4,1.1-3.1,3.2-2.9,7.4c0.1,2.2,1.3,3.9,3.1,4.6c2,0.7,4.4,0.2,5.9-1.4c1.5-1.6,1.8-3.8,0.8-6.2
		c-0.1-0.2-0.2-0.3-0.4-0.3c-0.2,0-0.3,0-0.5,0.1c-0.3,0.3-1.4,1-2.3,0.9c-0.4-0.1-0.7-0.3-1-0.7c-0.4-0.6-0.1-1.1,0.3-1.4
		c1-0.9,3.4-1.5,5.1-0.1c0.9,0.7,2.1,2,2.3,4.1c0.2,2.3-0.8,4.9-3,7.7C260.1,50,258.8,50.6,257.5,50.6L257.5,50.6z M275.9,35.4
		c0.8-0.1,1.9-0.3,2.9-0.5c2,1.6,3.8,3.3,5.4,5l0.2,0.2c-1.5,0.4-3.4,0.6-4.2,0.7C279.2,38.9,277.8,37.1,275.9,35.4z M266.2,36.8
		c1.1-0.1,3.2-0.3,6.8-0.9c0.5,0.5,0.9,1.1,1.2,1.7c0.9,1.5,1.4,2.9,1.8,4.3c-1.6,0.3-6.8,1.3-9,1.4C267.3,41,267.1,38.6,266.2,36.8
		z M265,45.9c-0.2,0.5-1,0.2-0.8-0.4c0.6-1.5,0.9-3,0.8-4.3c-0.2-1.9-1.1-3.7-2.7-4.9c-0.9-0.7-2.1-1-3.2-1c-1.3,0-2.5,0.5-3.3,1.2
		c-0.9,0.8-1,1.9-0.5,2.8c0.4,0.7,1,1,1.7,1.1c1,0.1,1.9-0.3,2.5-0.7c0.5,1.7,0.2,3.3-0.8,4.4c-1.2,1.2-3.2,1.7-4.8,1.1
		c-1.4-0.5-2.3-1.8-2.4-3.7c-0.2-2.9,0.7-5.2,2.4-6.5c2.1-1.5,5.2-1.7,8.7-0.4c0.9,0.3,1.7,1,2.2,1.8c0,0,0,0,0,0.1
		c1.2,1.8,1.5,4.4,1,6.7C265.7,44.2,265.4,45.1,265,45.9z M265.7,46.9c0.5-0.8,0.8-1.7,1-2.6c2.2-0.1,7.7-1.1,9.5-1.4
		c0.1,0.8,0.1,1.5,0.1,2.1C274.7,45.3,268.6,46.4,265.7,46.9z M280.9,50c-0.6,3-2.5,4.9-5.1,5.1c-3.2,0.3-5.3-0.5-5.9-2.2
		c-0.4-1-0.2-2.2,0.3-2.9c0.4,0.5,1.1,1.1,2.1,1.3c0.8,0.1,1.7-0.1,2.4-0.7c1.9-1.5,3-4.6,2.3-8.5l0,0l0,0c-0.3-1.6-0.9-3.3-2-5.1
		c-0.5-0.8-1-1.5-1.6-2.1C279.8,39.4,281.8,45.7,280.9,50z M280.8,41.8c1.1-0.1,3-0.4,4.5-0.9c0.6,0.7,1.3,1.3,1.9,2
		c-1.4,0.4-4.2,1.1-5.5,1.4C281.5,43.5,281.2,42.6,280.8,41.8z M320.9,33.8c0.9,0.4,1.4,1.4,1.4,2.7c0,5.2-4,13.8-14.7,14.8
		c-10.2,0.9-16.4-5.6-21.9-11.4l-0.7-0.7c-6.2-6.5-15.9-13.3-24.6-13.3c-0.1,0-0.3,0-0.4,0c2.7-0.3,5.4-0.1,8.2,0.5c0,0,0,0,0.1,0
		s8.6,3.2,19.3,12.6c10.9,9.6,17.4,10.7,17.6,10.8h0.1c0.3,0,0.5-0.2,0.5-0.4c0-0.3-0.1-0.6-0.4-0.6c-0.1,0-6.5-1.2-17.1-10.5
		c-5-4.4-9.6-7.5-13-9.5c3,1.3,5.9,2.9,8.7,4.6c0,0,0,0,0.1,0c3.2,1.9,6.3,4,9.2,6c1.1,0.7,2.1,1.4,3.2,2.1l0,0
		c4,2.7,7.5,4.8,10.1,5.2c6.6,1.2,11.2-1,13.3-3.5c1.2-1.5,1.7-3.1,1.2-4.4c-0.4-1.2-1.1-2-2-2.4s-1.8-0.3-2.3-0.1
		c0-0.8,0.4-1.4,0.8-1.8c0.2-0.2,0.4-0.3,0.7-0.4c0.2-0.1,0.4-0.2,0.6-0.2C319.4,33.5,320.3,33.5,320.9,33.8z"/>
	<linearGradient id="SVGID_4_" gradientUnits="userSpaceOnUse" x1="233.6" y1="21.3" x2="233.6" y2="14.5936">
		<stop  offset="0" style="stop-color:#27272d"/>
		<stop  offset="1" style="stop-color:#000"/>
	</linearGradient>
	<path class="st3" d="M232.9,21.3C232.9,21.3,233,21.3,232.9,21.3c0.3,0,0.5-0.2,0.6-0.5c0-0.3-0.2-0.5-0.5-0.6
		c-0.1,0-2.8-0.3-4.3-3.3c-0.3-0.6,0.3-1.3,0.9-1.2c1.6,0.3,3.5,1.2,4.1,3.6l0,0c0,0,0,0,0,0.1l0,0l0,0l0,0l0,0l0,0l0,0l0,0l0,0
		c0,0,0,0,0.1,0l0,0l0,0c0,0,0,0,0.1,0c0,0,0,0,0.1,0c0,0,0,0,0.1,0c0,0,0,0,0.1,0l0,0l0,0c0,0,0,0,0.1,0l0,0l0,0l0,0l0,0l0,0l0,0
		l0,0l0,0c0,0,0,0,0-0.1l0,0c0.6-2.4,2.5-3.3,4.1-3.6c0.7-0.1,1.2,0.6,0.9,1.2c-1.5,3-4.1,3.3-4.3,3.3c-0.3,0-0.5,0.3-0.5,0.6
		c0,0.3,0.3,0.5,0.5,0.5l0,0c0,0,4.7-0.5,5.9-6.1c0-0.2,0-0.3-0.1-0.4c-0.1-0.1-0.2-0.2-0.4-0.2c-0.1,0-4.9-0.3-6.8,3.2
		c-1.9-3.5-6.7-3.2-6.8-3.2c-0.2,0-0.3,0.1-0.4,0.2c-0.1,0.1-0.1,0.3-0.1,0.4C228.3,20.8,232.9,21.3,232.9,21.3z"/>
	<linearGradient id="SVGID_5_" gradientUnits="userSpaceOnUse" x1="234.1293" y1="15.1" x2="234.1293" y2="8.1">
		<stop  offset="0" style="stop-color:#27272d"/>
		<stop  offset="1" style="stop-color:#000"/>
	</linearGradient>
	<path class="st4" d="M230.4,13.6c1.9,0,3.5,1.4,3.5,1.4l0,0l0.1,0.1l0,0l0,0c0.1,0,0.1,0,0.2,0l0,0c0.1,0,0.1,0,0.2,0l0,0l0,0
		l0.1-0.1l0,0c0,0,1.6-1.4,3.5-1.4c0.2,0,0.3-0.1,0.4-0.2c0.1-0.1,0.1-0.3,0.1-0.5c-0.2-0.5-1.7-4.8-4.3-4.8s-4.2,4.3-4.4,4.8
		c-0.1,0.2,0,0.3,0.1,0.5C230.1,13.5,230.3,13.6,230.4,13.6z M234.3,10c0.9,0,1.3,1,1.1,1.2s-0.5-0.1-0.6-0.3l0,0c0,0,0,0-0.1-0.1
		h-0.1c0,0,0,0-0.1,0l0,0h-0.1c0,0,0,0-0.1,0h-0.1h-0.1l0,0c0,0,0,0-0.1,0h-0.1c0,0,0,0-0.1,0.1l0,0c-0.2,0.2-0.4,0.5-0.6,0.3
		C233,10.9,233.4,10,234.3,10z"/>
</g>
<g>
	<linearGradient id="SVGID_6_" gradientUnits="userSpaceOnUse" x1="234.7" y1="5.6" x2="234.7" y2="5.6">
		<stop  offset="0" style="stop-color:#27272d"/>
		<stop  offset="1" style="stop-color:#000"/>
	</linearGradient>
	<line class="st5" x1="416.9" y1="5.6" x2="52.5" y2="5.6"/>
	<linearGradient id="SVGID_7_" gradientUnits="userSpaceOnUse" x1="234.7" y1="6.3" x2="234.7" y2="4.8">
		<stop  offset="0" style="stop-color:#27272d"/>
		<stop  offset="1" style="stop-color:#000"/>
	</linearGradient>
	<rect x="52.5" y="4.8" class="st6" width="364.4" height="1.5"/>
</g>
<g>
	<linearGradient id="SVGID_8_" gradientUnits="userSpaceOnUse" x1="234.7" y1="0.8" x2="234.7" y2="0.8">
		<stop  offset="0" style="stop-color:#27272d"/>
		<stop  offset="1" style="stop-color:#000"/>
	</linearGradient>
	<line class="st7" x1="402.9" y1="0.8" x2="66.5" y2="0.8"/>
	<linearGradient id="SVGID_9_" gradientUnits="userSpaceOnUse" x1="234.65" y1="1.6" x2="234.65" y2="0.1">
		<stop  offset="0" style="stop-color:#27272d"/>
		<stop  offset="1" style="stop-color:#000"/>
	</linearGradient>
	<rect x="66.5" y="0.1" class="st8" width="336.3" height="1.5"/>
</g>
<linearGradient id="SVGID_10_" gradientUnits="userSpaceOnUse" x1="44.3375" y1="16.3025" x2="44.3375" y2="-2.109378e-02">
	<stop  offset="0" style="stop-color:#27272d"/>
	<stop  offset="1" style="stop-color:#000"/>
</linearGradient>
<path class="st9" d="M56.7,6.9c10.5-6.1,28.9-5.7,31.6-5.6c0.2,0,0.4-0.1,0.4-0.3V0.7c0-0.2-0.1-0.3-0.3-0.3c-0.7-0.1-3-0.4-8.6-0.2
	c-3-0.1-6-0.2-6.1-0.2c-0.3,0-25.4-0.6-37.9,4.6c-3.1,1.3-5.7,2.5-8.1,3.8c-3.9-1.3-5.8-4.1-8.4-5.6c-3.7-2.2-7.3,0.7-6.6,1.3
	s0.5-1.2,3.1,0.2c1.5,0.8,3.1,4.3,5.8,7.3c-4.1,2.2-7.4,3.7-11.2,3.7c-3.7,0.1-6.9-1.4-8.5-3.9C0.6,9.5,0.4,7.2,1.3,5.1
	c0.9-2,2.9-2.7,4.3-2.4C7.2,3,8.3,4.2,8.4,5.9c0.2,2-0.9,2.5-1.6,2.6c-1.1,0.2-2.2-0.3-2.4-1c-0.1-0.3-0.2-0.8,0.1-1
	C4.9,6.4,5,7,5.4,7.2C5.9,7.3,6.2,7,6.3,6.7C6.4,6.4,6.4,5.8,6,5.5C5.7,5.2,4.7,5.2,4.2,5.6C3.7,5.9,3.3,6.7,3.7,7.8
	C4.1,9.1,5.6,9.6,7,9.3C8.6,9,9.5,7.7,9.3,5.8C9.1,3.7,7.7,2.2,5.8,1.9C3.6,1.6,1.5,2.8,0.6,4.8c-1,2.3-0.8,4.9,0.6,7.1
	c1.8,2.7,5.3,4.3,9.2,4.3c4-0.1,7.4-1.6,11.7-3.9c2.2,2.2,5,4,9,4C40.7,16.4,45.3,13.5,56.7,6.9z M34.1,9.1C32,9.2,30.3,9,28.8,8.7
	c2.2-1.1,4.6-2.2,7.3-3.4C44.7,1.8,59.3,1,67.6,0.8c0.2,0,0.3,0.3,0,0.4C55.8,3.3,41.3,8.7,34.1,9.1z"/>
<linearGradient id="SVGID_11_" gradientUnits="userSpaceOnUse" x1="429.4338" y1="16.2097" x2="429.4338" y2="-1.343723e-02">
	<stop  offset="0" style="stop-color:#27272d"/>
	<stop  offset="1" style="stop-color:#000"/>
</linearGradient>
<path class="st10" d="M442.6,16.2c4-0.1,6.8-1.9,9-4c4.3,2.3,7.7,3.8,11.7,3.9c3.9,0.1,7.4-1.5,9.2-4.3c1.4-2.1,1.7-4.7,0.6-7.1
	c-0.9-2-3-3.2-5.2-2.9c-1.9,0.3-3.3,1.8-3.5,3.9c-0.2,1.9,0.7,3.2,2.3,3.5c1.5,0.3,2.9-0.2,3.3-1.5c0.4-1.1,0-1.9-0.5-2.2
	c-0.6-0.4-1.5-0.4-1.9-0.1c-0.3,0.3-0.4,0.9-0.3,1.2s0.4,0.6,0.9,0.5c0.5-0.2,0.6-0.8,0.8-0.6c0.3,0.2,0.2,0.7,0.1,1
	c-0.2,0.7-1.4,1.2-2.4,1c-0.7-0.1-1.8-0.7-1.6-2.6c0.2-1.8,1.2-3,2.8-3.2c1.5-0.2,3.4,0.4,4.3,2.4c0.9,2.1,0.7,4.4-0.6,6.3
	c-1.7,2.5-4.9,4-8.5,3.9c-3.8-0.1-7.1-1.6-11.2-3.7c2.7-3,4.3-6.5,5.8-7.3c2.7-1.4,2.5,0.4,3.1-0.2c0.7-0.6-2.9-3.5-6.6-1.3
	c-2.6,1.5-4.6,4.2-8.4,5.6c-2.4-1.2-5-2.5-8.1-3.8C425.5-0.5,400.4,0,400.1,0C400,0,397,0,394,0.1c-5.7-0.2-7.9,0.1-8.6,0.2
	c-0.2,0-0.3,0.2-0.3,0.3V1c0,0.2,0.2,0.3,0.4,0.3c2.8-0.1,21.1-0.5,31.6,5.6C428.5,13.5,433,16.4,442.6,16.2z M406.2,1.2
	c-0.2,0-0.2-0.4,0-0.4c8.2,0.2,22.9,1,31.5,4.5c2.7,1.1,5.1,2.3,7.3,3.4c-1.5,0.4-3.2,0.5-5.3,0.4C432.5,8.7,418,3.3,406.2,1.2z"/>
<text transform="matrix(1 0 0 1 66.3336 88.8259)" class="st11 st12 st13 st14">ACCESS</text>
</svg>
