<?xml version="1.0" encoding="utf-8"?>
<!-- Generator: Adobe Illustrator 27.1.1, SVG Export Plug-In . SVG Version: 6.00 Build 0)  -->
<svg version="1.1" id="レイヤー_1" xmlns="http://www.w3.org/2000/svg" xmlns:xlink="http://www.w3.org/1999/xlink" x="0px"
	 y="0px" viewBox="0 0 140 32.8" style="enable-background:new 0 0 140 32.8;" xml:space="preserve">
<style type="text/css">
	.st0{fill:#1A1A1A;}
	.st1{fill:url(#SVGID_1_);}
	.st2{fill:url(#SVGID_00000134219697672490338600000016450332848084693899_);}
	.st3{fill:url(#SVGID_00000039835968787343977030000006193956980451756459_);}
	.st4{fill:url(#SVGID_00000039134023976567356600000009760121131096153022_);}
	.st5{fill:url(#SVGID_00000003103122325563645610000012989432680289000853_);}
	.st6{fill:url(#SVGID_00000113334086867424779950000013073409337069966508_);}
	.st7{fill:url(#SVGID_00000005257189551248334270000016289139505775713675_);}
	.st8{fill:url(#SVGID_00000035498250555680421770000015879667622852598189_);}
	.st9{fill:url(#SVGID_00000148650411008754272120000013578178671363274142_);}
	.st10{fill:url(#SVGID_00000174580659180417947230000006877160283351070601_);}
	.st11{fill:url(#SVGID_00000026844560526187709220000016186869570826909365_);}
	.st12{fill:url(#SVGID_00000075861457829061337050000016518113393421326220_);}
	.st13{fill:url(#SVGID_00000116225954129877039090000017374773000854496188_);}
	.st14{fill:url(#SVGID_00000145030913293926653980000013113129234195820947_);}
	.st15{fill:url(#SVGID_00000138532995937083198630000004391110454205256890_);}
	.st16{fill:url(#SVGID_00000110436013422904326190000016681069108871189676_);}
	.st17{fill:url(#SVGID_00000120524234200868634440000004731482366582665875_);}
	.st18{fill:url(#SVGID_00000078009912363341425810000003618185980568293042_);}
	.st19{fill:url(#SVGID_00000098899993331005217700000007574872757358178974_);}
	.st20{fill:url(#SVGID_00000132795394705565864570000003646575709465944505_);}
	.st21{fill:url(#SVGID_00000067204742143699817250000003023266413384069254_);}
	.st22{fill:url(#SVGID_00000166661340963004544850000015762283046394785961_);}
	.st23{display:none;}
	.st24{display:inline;fill:#1A1A1A;}
	.st25{display:inline;fill:url(#SVGID_00000055694476154919613020000005680027908184844680_);}
	.st26{display:inline;fill:url(#SVGID_00000021812870418643321820000016971688049610180512_);}
	.st27{display:inline;fill:url(#SVGID_00000087385369024651626290000004284767272000012721_);}
	.st28{display:inline;fill:url(#SVGID_00000129892711700484772600000012747648296296973190_);}
	.st29{display:inline;fill:url(#SVGID_00000124882401260874974720000011079294009862941591_);}
	.st30{display:inline;fill:url(#SVGID_00000165937043732688580270000001480292840455230893_);}
	.st31{display:inline;fill:url(#SVGID_00000173874327156557793810000002836481924684400573_);}
	.st32{display:inline;fill:url(#SVGID_00000181085958134958899470000016122518206465309081_);}
	.st33{display:inline;fill:url(#SVGID_00000145033345167861265830000008602612322279714236_);}
	.st34{display:inline;fill:url(#SVGID_00000105395182458952295200000009684655514092034707_);}
	.st35{display:inline;fill:url(#SVGID_00000133492095220758770070000008522738943957150103_);}
	.st36{display:inline;fill:url(#SVGID_00000096043926885123588560000004279450522792924036_);}
	.st37{display:inline;fill:url(#SVGID_00000101085818097882232640000017086164908211186843_);}
	.st38{display:inline;fill:url(#SVGID_00000119091741785912337120000007444116396987762864_);}
	.st39{display:inline;fill:url(#SVGID_00000139293619422617612640000018394031084012285862_);}
	.st40{display:inline;fill:url(#SVGID_00000045594778517124899330000009857449763986384001_);}
	.st41{display:inline;fill:url(#SVGID_00000078765876378362924030000009568058761832172946_);}
	.st42{display:inline;fill:url(#SVGID_00000073680145241773916680000001268240233727761845_);}
	.st43{display:inline;fill:url(#SVGID_00000060748584208603462060000009957309142589671056_);}
	.st44{display:inline;fill:url(#SVGID_00000134208909435926968270000008399849669110525574_);}
	.st45{display:inline;fill:url(#SVGID_00000181057409658204501460000018137305985273443997_);}
	.st46{display:inline;fill:url(#SVGID_00000132068702856506246900000001959957330105700025_);}
	.st47{display:inline;fill:url(#SVGID_00000157306530055016546930000013151295798656557233_);}
	.st48{display:inline;fill:url(#SVGID_00000125576207266074699530000002704903946547641510_);}
	.st49{display:inline;fill:url(#SVGID_00000037662836972591508170000006088858355967710139_);}
	.st50{display:inline;fill:url(#SVGID_00000008853307675865609110000002935690867805380785_);}
	.st51{display:inline;fill:url(#SVGID_00000166661612108815905260000013639247437380593573_);}
	.st52{display:inline;fill:url(#SVGID_00000155858475146544185200000009070345324466313121_);}
	.st53{display:inline;fill:url(#SVGID_00000116940117718543407010000010516127680949151891_);}
	.st54{display:inline;fill:url(#SVGID_00000122688475120675515790000005356310328747716480_);}
	.st55{display:inline;fill:url(#SVGID_00000052073859362633914760000012419096871488606374_);}
	.st56{display:inline;fill:url(#SVGID_00000005239032129272092350000006874590358971832964_);}
</style>
<g id="レイヤー_1_1_">
</g>
<g>
	<path class="st0" d="M130.6,27.1c0-0.1,0-0.1-0.1-0.1c-0.1,0-0.1,0-0.2,0.1c0,0-0.3,1.7-2.7,4.5c-0.4,0.4-0.7,0.8-1,1.1h0.3
		c0.3-0.3,0.6-0.7,0.9-1C130.3,28.9,130.6,27.2,130.6,27.1z"/>
	<path class="st0" d="M84.1,29.1c0-1-0.2-1.7-0.7-2.1c-0.5-0.4-1.2-0.6-2.2-0.6h-1.7c-0.2,0-0.3,0.1-0.3,0.3V32h1.3
		c1.2,0,2.1-0.2,2.7-0.7C83.8,30.8,84.1,30.1,84.1,29.1z"/>
	<path class="st0" d="M11.2,31.7c0.2,0.2,0.4,0.3,0.5,0.5c0,0.2-0.1,0.4-0.1,0.5h0.3c0-0.1,0.1-0.2,0.1-0.3c0.1,0.1,0.2,0.2,0.3,0.3
		h0.3c-0.2-0.2-0.4-0.4-0.5-0.5L12,32.1c-1.5-1.5-3.2-3.1-3-5.8c0.3-2.8,2.5-3.9,3.9-3.9c0.3,0,0.6,0.1,0.7,0.4
		c0,0.1,0.1,0.2,0.1,0.3c0,0.1,0,0.2,0,0.3s0,0.1-0.1,0.2c0,0.1-0.1,0.1-0.1,0.2C13.3,23.9,13.2,24,13,24c0-0.2,0.1-0.4,0-0.6
		c-0.1-0.2-0.3-0.4-0.6-0.5c-0.4-0.1-0.8,0-1.2,0.3c-0.6,0.6-1.2,1.8-0.9,3.5c0.1,0.7,0.7,1.6,1.4,2.6c0.2,0.3,0.4,0.5,0.6,0.8
		c0.5,0.8,1.1,1.6,1.6,2.4c0,0.1,0.1,0.2,0.1,0.2h0.2c-0.1-0.1-0.1-0.2-0.2-0.3c0-0.1,0.1-0.3,0.2-0.7c0.1,0.3,0.2,0.7,0.4,1h0.2
		c-0.3-0.7-0.6-1.2-0.6-1.8c0-0.2,0.1-0.3,0.2-0.5c0.4-0.4,0.6-0.6,0.8-0.6s0.4,0.1,0.6,0.3c-0.2,0-0.4,0.1-0.6,0.3
		c-0.3,0.4-0.3,1.2,0,2.2h9.2c0,0,0,0,0,0c0-1.1,0.2-2.1,0.5-3c0.3-0.9,0.8-1.7,1.4-2.3c0.6-0.6,1.3-1.1,2.2-1.5
		c0.8-0.4,1.8-0.5,2.8-0.5c0.7,0,1.4,0.1,2,0.3c0.6,0.2,1.3,0.5,2.1,1l0.5-1.1h0.5l0.2,4.1h-0.7c-0.3-1.1-0.8-1.9-1.5-2.5
		c-0.8-0.6-1.7-0.9-2.7-0.9c-0.7,0-1.4,0.1-2,0.4c-0.6,0.3-1.1,0.7-1.5,1.2c-0.4,0.5-0.7,1.2-0.9,2c-0.2,0.8-0.3,1.7-0.3,2.6
		c0,0.1,0,0.2,0,0.2h13.5c0,0,0-0.1,0-0.1c0-1,0.2-2,0.6-2.8c0.4-0.9,0.9-1.6,1.6-2.3c0.7-0.6,1.5-1.2,2.4-1.5
		c0.7-0.4,1.7-0.6,2.8-0.6s2,0.2,3,0.6c1,0.4,1.7,0.9,2.4,1.5c0.7,0.6,1.2,1.4,1.6,2.3c0.4,0.9,0.6,1.8,0.6,2.8c0,0.1,0,0.1,0,0.1
		h4.6v-3.1c0-0.9,0-1.6-0.1-2.1c-0.1-0.5-0.2-0.8-0.4-1.1c-0.1-0.2-0.3-0.3-0.6-0.3C58.8,26,58.4,26,58,26v-0.7h6.1V26
		c-0.4,0-0.7,0-1,0.1c-0.3,0-0.5,0.2-0.6,0.4c-0.2,0.2-0.3,0.6-0.3,1c0,0.4-0.1,1.2-0.1,2v3.2h7.2V30c0-1.1,0-1.9-0.1-2.4
		c-0.1-0.6-0.2-0.9-0.5-1.2c-0.2-0.2-0.4-0.3-0.6-0.3S67.5,26,67.2,26v-0.7h5.2V26c-0.4,0-0.7,0-0.9,0.1c-0.2,0.1-0.4,0.2-0.6,0.4
		c-0.2,0.3-0.3,0.6-0.4,1.2c-0.1,0.5-0.1,1.3-0.1,2.3v2.8h7v-4.3c0-0.4,0-0.8-0.1-1c0-0.3-0.1-0.5-0.3-0.6c-0.2-0.1-0.3-0.3-0.5-0.3
		c-0.2-0.1-0.6-0.1-0.9-0.1v-0.7h5.7c1.7,0,2.9,0.3,3.8,0.9c0.8,0.5,1.3,1.3,1.3,2.4c0,1-0.3,1.8-0.9,2.4c-0.6,0.6-1.5,1.1-2.8,1.3
		l0,0h11.3c-0.1,0-0.2-0.1-0.3-0.1c-0.5-0.3-0.9-0.6-1.2-0.9s-0.5-0.7-0.6-1c-0.1-0.4-0.2-0.8-0.2-1.3c0-0.6,0.1-1.1,0.3-1.5
		c0.2-0.5,0.5-0.9,0.8-1.2c0.4-0.3,0.8-0.6,1.3-0.8s1-0.3,1.6-0.3c0.5,0,1,0.1,1.5,0.3s0.9,0.4,1.4,0.8l0.5-0.8h0.4l0.2,3.6h-0.7
		c-0.3-1-0.7-1.7-1.3-2.2c-0.6-0.5-1.2-0.7-2-0.7c-0.7,0-1.3,0.2-1.7,0.5c-0.4,0.3-0.6,0.8-0.6,1.5c0,0.3,0,0.5,0.1,0.8
		c0.1,0.2,0.3,0.5,0.5,0.7s0.5,0.4,0.8,0.6c0.3,0.2,0.8,0.4,1.3,0.7c0.9,0.4,1.6,0.8,2.2,1.1c0.2,0.1,0.3,0.2,0.4,0.2h7.2v-4.4
		c0-0.4,0-0.8-0.1-1c0-0.3-0.1-0.5-0.3-0.6c-0.2-0.1-0.3-0.3-0.5-0.3c-0.2-0.1-0.6-0.1-0.9-0.1v-0.7h10.4l0.2,3.2h-0.6
		c-0.1-0.5-0.2-0.9-0.4-1.2c-0.2-0.3-0.4-0.5-0.7-0.7s-0.6-0.3-1.1-0.4c-0.4-0.1-1-0.1-1.6-0.1h-2.3c-0.2,0-0.3,0.1-0.3,0.3v5.1h0.1
		c0.6,0,1.2,0,1.6-0.1c0.4-0.1,0.8-0.2,1-0.4c0.3-0.2,0.4-0.4,0.6-0.6c0.1-0.3,0.2-0.6,0.2-0.9h0.6v2.9h12.9
		c0.3-1.1,0.4-1.8-0.1-2.2c-0.2-0.2-0.4-0.3-0.6-0.3c0.2-0.2,0.4-0.4,0.6-0.3c0.4,0,0.6,0.2,0.8,0.6c0.1,0.2,0.1,0.4,0.2,0.5
		c0,0.5-0.3,1.1-0.6,1.8h0.4c0.2-0.4,0.4-0.7,0.4-1c0.1,0.4,0.1,0.6,0.2,0.7c-0.1,0.1-0.1,0.2-0.2,0.3h0.4c0,0,0,0,0,0
		c0.5-0.8,1.1-1.6,1.6-2.4c0.2-0.3,0.4-0.6,0.6-0.8c0.7-1.1,1.2-2,1.4-2.6c0.3-1.7-0.3-2.9-0.9-3.5c-0.4-0.3-0.8-0.4-1.2-0.3
		c-0.3,0.1-0.5,0.3-0.6,0.5c-0.1,0.2-0.1,0.5,0,0.6c-0.2,0-0.4-0.1-0.5-0.2c0-0.1-0.1-0.1-0.1-0.2c0-0.1,0-0.1-0.1-0.2
		c0-0.1,0-0.2,0-0.3c0-0.1,0-0.2,0.1-0.3c0.1-0.2,0.4-0.4,0.7-0.4c1.4,0,3.6,1,3.9,3.9c0.1,2.5-1.6,4.1-3.1,5.6l-0.2,0.2
		c-0.1,0.1-0.3,0.3-0.4,0.4h0.3c0.1-0.1,0.2-0.2,0.3-0.3c0,0.1,0.1,0.2,0.1,0.3h0.3c0-0.2-0.1-0.4-0.1-0.6c0.2-0.2,0.4-0.3,0.5-0.5
		c0.1,0.3,0.3,0.8,0.4,1.1H140V0H0v32.8h10.9C11,32.4,11.1,31.9,11.2,31.7z M90.1,15l0.6-1.3l0.6,1.3l1.4,0.2l-1,0.9l0.2,1.4
		l-1.2-0.6l-1.3,0.6l0.3-1.4l-1-0.9L90.1,15z M80.8,13.7l0.9-1.9l0.9,1.9l2.1,0.3l-1.5,1.4l0.3,2.1l-1.8-1l-1.9,1l0.4-2.1L78.7,14
		L80.8,13.7z M68.1,11.1L69.7,8l1.5,3.1l3.5,0.5l-2.5,2.5l0.6,3.4l-3.1-1.6l-3.1,1.6l0.6-3.4l-2.5-2.5L68.1,11.1z M56.8,13.7
		l0.9-1.9l0.9,1.9l2.1,0.3l-1.5,1.4l0.3,2.1l-1.8-1l-1.9,1l0.4-2.1L54.7,14L56.8,13.7z M48.1,15l0.6-1.3l0.6,1.3l1.4,0.2l-1,0.9
		l0.2,1.4l-1.2-0.6l-1.3,0.6l0.3-1.4l-1-0.9L48.1,15z"/>
	<path class="st0" d="M107.9,32.6v0.1h1.9c-0.1,0-0.1,0-0.2,0C109.2,32.6,108.6,32.6,107.9,32.6z"/>
	<path class="st0" d="M53,32.6c0-1-0.1-1.8-0.4-2.6c-0.3-0.8-0.6-1.4-1-2c-0.4-0.5-1-1-1.6-1.3c-0.6-0.3-1.4-0.4-2.1-0.4
		c-0.8,0-1.5,0.1-2.1,0.4c-0.6,0.3-1.2,0.7-1.6,1.3c-0.4,0.5-0.8,1.2-1,2c-0.2,0.8-0.4,1.6-0.4,2.6c0,0.1,0,0.1,0,0.1H53
		C53,32.7,53,32.7,53,32.6z"/>
	<path class="st0" d="M9.7,27c0-0.1-0.1-0.1-0.2-0.1c-0.1,0-0.1,0.1-0.1,0.1c0,0.1,0.3,1.8,2.8,4.6c0.4,0.4,0.7,0.8,1,1.1h0.6
		c-0.3-0.4-0.7-0.9-1.1-1.3C10,28.7,9.7,27,9.7,27z"/>
	<path class="st0" d="M27.3,29.9c0.2-0.8,0.5-1.5,0.9-2c0.4-0.5,0.9-0.9,1.5-1.2c0.6-0.3,1.3-0.4,2-0.4c1,0,1.9,0.3,2.7,0.9
		c0.7,0.6,1.2,1.4,1.5,2.5h0.7l-0.2-4.1h-0.5l-0.5,1.1c-0.8-0.5-1.5-0.8-2.1-1c-0.6-0.2-1.3-0.3-2-0.3c-1,0-2,0.1-2.8,0.5
		c-0.9,0.4-1.6,0.9-2.2,1.5c-0.6,0.6-1.1,1.4-1.4,2.3c-0.3,0.9-0.5,1.9-0.5,3c0,0,0,0,0,0H27c0-0.1,0-0.2,0-0.2
		C27,31.6,27.1,30.7,27.3,29.9z"/>
	
		<linearGradient id="SVGID_1_" gradientUnits="userSpaceOnUse" x1="30.5" y1="-166.3381" x2="30.5" y2="-152.1381" gradientTransform="matrix(1 0 0 -1 0 -126.738)">
		<stop  offset="0" style="stop-color:#8F6E27"/>
		<stop  offset="0.5" style="stop-color:#FFEABF"/>
		<stop  offset="1" style="stop-color:#8F6E27"/>
	</linearGradient>
	<path class="st1" d="M27.3,29.9c0.2-0.8,0.5-1.5,0.9-2c0.4-0.5,0.9-0.9,1.5-1.2c0.6-0.3,1.3-0.4,2-0.4c1,0,1.9,0.3,2.7,0.9
		c0.7,0.6,1.2,1.4,1.5,2.5h0.7l-0.2-4.1h-0.5l-0.5,1.1c-0.8-0.5-1.5-0.8-2.1-1c-0.6-0.2-1.3-0.3-2-0.3c-1,0-2,0.1-2.8,0.5
		c-0.9,0.4-1.6,0.9-2.2,1.5c-0.6,0.6-1.1,1.4-1.4,2.3c-0.3,0.9-0.5,1.9-0.5,3c0,0,0,0,0,0H27c0-0.1,0-0.2,0-0.2
		C27,31.6,27.1,30.7,27.3,29.9z"/>
	<path class="st0" d="M54.9,29.8c-0.4-0.9-0.9-1.7-1.6-2.3c-0.7-0.6-1.4-1.1-2.4-1.5c-1-0.4-1.9-0.6-3-0.6s-2.1,0.2-2.8,0.6
		c-0.9,0.3-1.7,0.9-2.4,1.5c-0.7,0.7-1.2,1.4-1.6,2.3c-0.4,0.8-0.6,1.8-0.6,2.8c0,0,0,0.1,0,0.1h2.3c0-0.1,0-0.1,0-0.1
		c0-1,0.2-1.8,0.4-2.6c0.2-0.8,0.6-1.5,1-2c0.4-0.6,1-1,1.6-1.3c0.6-0.3,1.3-0.4,2.1-0.4c0.7,0,1.5,0.1,2.1,0.4
		c0.6,0.3,1.2,0.8,1.6,1.3c0.4,0.6,0.7,1.2,1,2c0.3,0.8,0.4,1.6,0.4,2.6c0,0.1,0,0.1,0,0.1h2.5c0-0.1,0-0.1,0-0.1
		C55.5,31.6,55.3,30.7,54.9,29.8z"/>
	
		<linearGradient id="SVGID_00000173845600313513227330000017375060900746561433_" gradientUnits="userSpaceOnUse" x1="47.9999" y1="-166.2381" x2="47.9999" y2="-152.1381" gradientTransform="matrix(1 0 0 -1 0 -126.738)">
		<stop  offset="0" style="stop-color:#8F6E27"/>
		<stop  offset="0.5" style="stop-color:#FFEABF"/>
		<stop  offset="1" style="stop-color:#8F6E27"/>
	</linearGradient>
	<path style="fill:url(#SVGID_00000173845600313513227330000017375060900746561433_);" d="M54.9,29.8c-0.4-0.9-0.9-1.7-1.6-2.3
		c-0.7-0.6-1.4-1.1-2.4-1.5c-1-0.4-1.9-0.6-3-0.6s-2.1,0.2-2.8,0.6c-0.9,0.3-1.7,0.9-2.4,1.5c-0.7,0.7-1.2,1.4-1.6,2.3
		c-0.4,0.8-0.6,1.8-0.6,2.8c0,0,0,0.1,0,0.1h2.3c0-0.1,0-0.1,0-0.1c0-1,0.2-1.8,0.4-2.6c0.2-0.8,0.6-1.5,1-2c0.4-0.6,1-1,1.6-1.3
		c0.6-0.3,1.3-0.4,2.1-0.4c0.7,0,1.5,0.1,2.1,0.4c0.6,0.3,1.2,0.8,1.6,1.3c0.4,0.6,0.7,1.2,1,2c0.3,0.8,0.4,1.6,0.4,2.6
		c0,0.1,0,0.1,0,0.1h2.5c0-0.1,0-0.1,0-0.1C55.5,31.6,55.3,30.7,54.9,29.8z"/>
	<path class="st0" d="M70.5,27.7c0.1-0.6,0.2-0.9,0.4-1.2c0.2-0.2,0.4-0.3,0.6-0.4C71.7,26,72,26,72.4,26v-0.7h-5.2V26
		c0.3,0,0.7,0.1,0.9,0.1s0.4,0.1,0.6,0.3c0.3,0.3,0.4,0.6,0.5,1.2c0.1,0.5,0.1,1.3,0.1,2.4v2.8h1.1V30C70.4,29,70.4,28.2,70.5,27.7z
		"/>
	
		<linearGradient id="SVGID_00000162346345023838664240000012296867854986003616_" gradientUnits="userSpaceOnUse" x1="69.8" y1="-166.3381" x2="69.8" y2="-152.0381" gradientTransform="matrix(1 0 0 -1 0 -126.738)">
		<stop  offset="0" style="stop-color:#8F6E27"/>
		<stop  offset="0.5" style="stop-color:#FFEABF"/>
		<stop  offset="1" style="stop-color:#8F6E27"/>
	</linearGradient>
	<path style="fill:url(#SVGID_00000162346345023838664240000012296867854986003616_);" d="M70.5,27.7c0.1-0.6,0.2-0.9,0.4-1.2
		c0.2-0.2,0.4-0.3,0.6-0.4C71.7,26,72,26,72.4,26v-0.7h-5.2V26c0.3,0,0.7,0.1,0.9,0.1s0.4,0.1,0.6,0.3c0.3,0.3,0.4,0.6,0.5,1.2
		c0.1,0.5,0.1,1.3,0.1,2.4v2.8h1.1V30C70.4,29,70.4,28.2,70.5,27.7z"/>
	<path class="st0" d="M62.1,29.5c0-0.8,0.1-1.6,0.1-2c0-0.4,0.1-0.8,0.3-1c0.1-0.2,0.3-0.4,0.6-0.4c0.3-0.1,0.6-0.1,1-0.1v-0.7H58
		V26c0.4,0,0.8,0,1,0.1c0.3,0,0.5,0.1,0.6,0.3c0.2,0.3,0.3,0.6,0.4,1.1c0.1,0.5,0.1,1.2,0.1,2.1v3.1h2V29.5z"/>
	
		<linearGradient id="SVGID_00000124146851573236867440000018248534446644738486_" gradientUnits="userSpaceOnUse" x1="61.05" y1="-166.3381" x2="61.05" y2="-152.0381" gradientTransform="matrix(1 0 0 -1 0 -126.738)">
		<stop  offset="0" style="stop-color:#8F6E27"/>
		<stop  offset="0.5" style="stop-color:#FFEABF"/>
		<stop  offset="1" style="stop-color:#8F6E27"/>
	</linearGradient>
	<path style="fill:url(#SVGID_00000124146851573236867440000018248534446644738486_);" d="M62.1,29.5c0-0.8,0.1-1.6,0.1-2
		c0-0.4,0.1-0.8,0.3-1c0.1-0.2,0.3-0.4,0.6-0.4c0.3-0.1,0.6-0.1,1-0.1v-0.7H58V26c0.4,0,0.8,0,1,0.1c0.3,0,0.5,0.1,0.6,0.3
		c0.2,0.3,0.3,0.6,0.4,1.1c0.1,0.5,0.1,1.2,0.1,2.1v3.1h2V29.5z"/>
	<path class="st0" d="M85.5,31.4c0.6-0.6,0.9-1.4,0.9-2.4c0-1.1-0.5-1.9-1.3-2.4c-0.9-0.6-2.1-0.9-3.8-0.9h-5.7v0.7
		c0.3,0,0.7,0,0.9,0.1c0.2,0,0.3,0.2,0.5,0.3c0.2,0.1,0.3,0.3,0.3,0.6c0.1,0.2,0.1,0.6,0.1,1v4.3h5.3l0,0C84,32.5,84.9,32,85.5,31.4
		z M79.2,32v-5.3c0-0.2,0.1-0.3,0.3-0.3h1.7c1,0,1.7,0.2,2.2,0.6c0.5,0.4,0.7,1.1,0.7,2.1s-0.3,1.7-0.9,2.2
		c-0.6,0.5-1.5,0.7-2.7,0.7H79.2z"/>
	
		<linearGradient id="SVGID_00000131367332269062223590000009320786729123182989_" gradientUnits="userSpaceOnUse" x1="81" y1="-166.2381" x2="81" y2="-152.4381" gradientTransform="matrix(1 0 0 -1 0 -126.738)">
		<stop  offset="0" style="stop-color:#8F6E27"/>
		<stop  offset="0.5" style="stop-color:#FFEABF"/>
		<stop  offset="1" style="stop-color:#8F6E27"/>
	</linearGradient>
	<path style="fill:url(#SVGID_00000131367332269062223590000009320786729123182989_);" d="M85.5,31.4c0.6-0.6,0.9-1.4,0.9-2.4
		c0-1.1-0.5-1.9-1.3-2.4c-0.9-0.6-2.1-0.9-3.8-0.9h-5.7v0.7c0.3,0,0.7,0,0.9,0.1c0.2,0,0.3,0.2,0.5,0.3c0.2,0.1,0.3,0.3,0.3,0.6
		c0.1,0.2,0.1,0.6,0.1,1v4.3h5.3l0,0C84,32.5,84.9,32,85.5,31.4z M79.2,32v-5.3c0-0.2,0.1-0.3,0.3-0.3h1.7c1,0,1.7,0.2,2.2,0.6
		c0.5,0.4,0.7,1.1,0.7,2.1s-0.3,1.7-0.9,2.2c-0.6,0.5-1.5,0.7-2.7,0.7H79.2z"/>
	<path class="st0" d="M96.2,31.4c-0.5-0.3-1-0.5-1.3-0.7c-0.3-0.2-0.6-0.4-0.8-0.6s-0.4-0.5-0.5-0.7c-0.1-0.3-0.1-0.5-0.1-0.8
		c0-0.7,0.2-1.2,0.6-1.5c0.4-0.3,1-0.5,1.7-0.5c0.8,0,1.4,0.2,2,0.7c0.6,0.5,1,1.2,1.3,2.2h0.7l-0.2-3.6h-0.4l-0.5,0.8
		c-0.5-0.4-0.9-0.6-1.4-0.8s-1-0.3-1.5-0.3c-0.6,0-1.1,0.1-1.6,0.3s-0.9,0.5-1.3,0.8c-0.3,0.3-0.6,0.7-0.8,1.2
		c-0.2,0.4-0.3,0.9-0.3,1.5c0,0.5,0.1,0.9,0.2,1.3c0.1,0.3,0.3,0.7,0.6,1s0.7,0.6,1.2,0.9c0.1,0,0.2,0.1,0.3,0.1h4.8
		c-0.1-0.1-0.3-0.2-0.4-0.2C97.8,32.2,97.1,31.8,96.2,31.4z"/>
	
		<linearGradient id="SVGID_00000153704756238006620050000014696045755035357838_" gradientUnits="userSpaceOnUse" x1="95.8" y1="-166.7381" x2="95.8" y2="-152.3381" gradientTransform="matrix(1 0 0 -1 0 -126.738)">
		<stop  offset="0" style="stop-color:#8F6E27"/>
		<stop  offset="0.5" style="stop-color:#FFEABF"/>
		<stop  offset="1" style="stop-color:#8F6E27"/>
	</linearGradient>
	<path style="fill:url(#SVGID_00000153704756238006620050000014696045755035357838_);" d="M96.2,31.4c-0.5-0.3-1-0.5-1.3-0.7
		c-0.3-0.2-0.6-0.4-0.8-0.6s-0.4-0.5-0.5-0.7c-0.1-0.3-0.1-0.5-0.1-0.8c0-0.7,0.2-1.2,0.6-1.5c0.4-0.3,1-0.5,1.7-0.5
		c0.8,0,1.4,0.2,2,0.7c0.6,0.5,1,1.2,1.3,2.2h0.7l-0.2-3.6h-0.4l-0.5,0.8c-0.5-0.4-0.9-0.6-1.4-0.8s-1-0.3-1.5-0.3
		c-0.6,0-1.1,0.1-1.6,0.3s-0.9,0.5-1.3,0.8c-0.3,0.3-0.6,0.7-0.8,1.2c-0.2,0.4-0.3,0.9-0.3,1.5c0,0.5,0.1,0.9,0.2,1.3
		c0.1,0.3,0.3,0.7,0.6,1s0.7,0.6,1.2,0.9c0.1,0,0.2,0.1,0.3,0.1h4.8c-0.1-0.1-0.3-0.2-0.4-0.2C97.8,32.2,97.1,31.8,96.2,31.4z"/>
	<path class="st0" d="M111.3,29.8c0,0.3-0.1,0.6-0.2,0.9c-0.2,0.2-0.3,0.4-0.6,0.6c-0.2,0.2-0.6,0.3-1,0.4c-0.4,0.1-1,0.1-1.6,0.1
		h-0.1v-5.1c0-0.2,0.1-0.3,0.3-0.3h2.3c0.6,0,1.2,0,1.6,0.1c0.5,0.1,0.8,0.2,1.1,0.4s0.5,0.4,0.7,0.7c0.2,0.3,0.3,0.7,0.4,1.2h0.6
		l-0.2-3.2h-10.4v0.7c0.3,0,0.7,0,0.9,0.1c0.2,0,0.3,0.2,0.5,0.3c0.2,0.1,0.3,0.3,0.3,0.6c0.1,0.2,0.1,0.6,0.1,1v4.4h1.9v-0.1
		c0.7,0,1.3,0,1.7,0.1c0.1,0,0.1,0,0.2,0h2.1v-2.9H111.3z"/>
	
		<linearGradient id="SVGID_00000012441742518811854080000017933460162049589909_" gradientUnits="userSpaceOnUse" x1="109.5" y1="-166.1381" x2="109.5" y2="-152.3381" gradientTransform="matrix(1 0 0 -1 0 -126.738)">
		<stop  offset="0" style="stop-color:#8F6E27"/>
		<stop  offset="0.5" style="stop-color:#FFEABF"/>
		<stop  offset="1" style="stop-color:#8F6E27"/>
	</linearGradient>
	<path style="fill:url(#SVGID_00000012441742518811854080000017933460162049589909_);" d="M111.3,29.8c0,0.3-0.1,0.6-0.2,0.9
		c-0.2,0.2-0.3,0.4-0.6,0.6c-0.2,0.2-0.6,0.3-1,0.4c-0.4,0.1-1,0.1-1.6,0.1h-0.1v-5.1c0-0.2,0.1-0.3,0.3-0.3h2.3
		c0.6,0,1.2,0,1.6,0.1c0.5,0.1,0.8,0.2,1.1,0.4s0.5,0.4,0.7,0.7c0.2,0.3,0.3,0.7,0.4,1.2h0.6l-0.2-3.2h-10.4v0.7
		c0.3,0,0.7,0,0.9,0.1c0.2,0,0.3,0.2,0.5,0.3c0.2,0.1,0.3,0.3,0.3,0.6c0.1,0.2,0.1,0.6,0.1,1v4.4h1.9v-0.1c0.7,0,1.3,0,1.7,0.1
		c0.1,0,0.1,0,0.2,0h2.1v-2.9H111.3z"/>
	<polygon class="st0" points="66.6,17.5 69.7,15.9 72.8,17.5 72.2,14.1 74.7,11.6 71.2,11.1 69.7,8 68.1,11.1 64.7,11.6 67.2,14.1 	
		"/>
	
		<linearGradient id="SVGID_00000011752481888134136660000015643661907693383047_" gradientUnits="userSpaceOnUse" x1="69.7" y1="-144.238" x2="69.7" y2="-134.738" gradientTransform="matrix(1 0 0 -1 0 -126.738)">
		<stop  offset="0" style="stop-color:#8F6E27"/>
		<stop  offset="0.5" style="stop-color:#FFEABF"/>
		<stop  offset="1" style="stop-color:#8F6E27"/>
	</linearGradient>
	<polygon style="fill:url(#SVGID_00000011752481888134136660000015643661907693383047_);" points="66.6,17.5 69.7,15.9 72.8,17.5 
		72.2,14.1 74.7,11.6 71.2,11.1 69.7,8 68.1,11.1 64.7,11.6 67.2,14.1 	"/>
	<polygon class="st0" points="79.8,17.5 81.7,16.5 83.5,17.5 83.2,15.4 84.7,14 82.6,13.7 81.7,11.8 80.8,13.7 78.7,14 80.2,15.4 	
		"/>
	
		<linearGradient id="SVGID_00000143610240462557811760000005446289276452949934_" gradientUnits="userSpaceOnUse" x1="81.7" y1="-144.238" x2="81.7" y2="-138.5381" gradientTransform="matrix(1 0 0 -1 0 -126.738)">
		<stop  offset="0" style="stop-color:#8F6E27"/>
		<stop  offset="0.5" style="stop-color:#FFEABF"/>
		<stop  offset="1" style="stop-color:#8F6E27"/>
	</linearGradient>
	<polygon style="fill:url(#SVGID_00000143610240462557811760000005446289276452949934_);" points="79.8,17.5 81.7,16.5 83.5,17.5 
		83.2,15.4 84.7,14 82.6,13.7 81.7,11.8 80.8,13.7 78.7,14 80.2,15.4 	"/>
	<polygon class="st0" points="89.4,17.5 90.7,16.9 91.9,17.5 91.7,16.1 92.7,15.2 91.3,15 90.7,13.7 90.1,15 88.7,15.2 89.7,16.1 	
		"/>
	
		<linearGradient id="SVGID_00000130643198327879150330000009659255219419346835_" gradientUnits="userSpaceOnUse" x1="90.7" y1="-144.238" x2="90.7" y2="-140.438" gradientTransform="matrix(1 0 0 -1 0 -126.738)">
		<stop  offset="0" style="stop-color:#8F6E27"/>
		<stop  offset="0.5" style="stop-color:#FFEABF"/>
		<stop  offset="1" style="stop-color:#8F6E27"/>
	</linearGradient>
	<polygon style="fill:url(#SVGID_00000130643198327879150330000009659255219419346835_);" points="89.4,17.5 90.7,16.9 91.9,17.5 
		91.7,16.1 92.7,15.2 91.3,15 90.7,13.7 90.1,15 88.7,15.2 89.7,16.1 	"/>
	<polygon class="st0" points="55.8,17.5 57.7,16.5 59.5,17.5 59.2,15.4 60.7,14 58.6,13.7 57.7,11.8 56.8,13.7 54.7,14 56.2,15.4 	
		"/>
	
		<linearGradient id="SVGID_00000102524578332496142760000008357684756163198137_" gradientUnits="userSpaceOnUse" x1="57.7" y1="-144.238" x2="57.7" y2="-138.5381" gradientTransform="matrix(1 0 0 -1 0 -126.738)">
		<stop  offset="0" style="stop-color:#8F6E27"/>
		<stop  offset="0.5" style="stop-color:#FFEABF"/>
		<stop  offset="1" style="stop-color:#8F6E27"/>
	</linearGradient>
	<polygon style="fill:url(#SVGID_00000102524578332496142760000008357684756163198137_);" points="55.8,17.5 57.7,16.5 59.5,17.5 
		59.2,15.4 60.7,14 58.6,13.7 57.7,11.8 56.8,13.7 54.7,14 56.2,15.4 	"/>
	<polygon class="st0" points="47.4,17.5 48.7,16.9 49.9,17.5 49.7,16.1 50.7,15.2 49.3,15 48.7,13.7 48.1,15 46.7,15.2 47.7,16.1 	
		"/>
	
		<linearGradient id="SVGID_00000062192288967010208410000009762098478938915767_" gradientUnits="userSpaceOnUse" x1="48.7" y1="-144.238" x2="48.7" y2="-140.438" gradientTransform="matrix(1 0 0 -1 0 -126.738)">
		<stop  offset="0" style="stop-color:#8F6E27"/>
		<stop  offset="0.5" style="stop-color:#FFEABF"/>
		<stop  offset="1" style="stop-color:#8F6E27"/>
	</linearGradient>
	<polygon style="fill:url(#SVGID_00000062192288967010208410000009762098478938915767_);" points="47.4,17.5 48.7,16.9 49.9,17.5 
		49.7,16.1 50.7,15.2 49.3,15 48.7,13.7 48.1,15 46.7,15.2 47.7,16.1 	"/>
	<path class="st0" d="M128.1,32.1c1.5-1.5,3.2-3.1,3.1-5.6c-0.3-2.9-2.5-3.9-3.9-3.9c-0.3,0-0.6,0.2-0.7,0.4
		c-0.1,0.1-0.1,0.2-0.1,0.3c0,0.1,0,0.2,0,0.3c0.1,0.1,0.1,0.1,0.1,0.2c0,0.1,0.1,0.1,0.1,0.2c0.1,0.1,0.3,0.2,0.5,0.2
		c-0.1-0.1-0.1-0.4,0-0.6c0.1-0.2,0.3-0.4,0.6-0.5c0.4-0.1,0.8,0,1.2,0.3c0.6,0.6,1.2,1.8,0.9,3.5c-0.2,0.6-0.7,1.5-1.4,2.6
		c-0.2,0.2-0.4,0.5-0.6,0.8c-0.5,0.8-1.1,1.6-1.6,2.4c0,0,0,0,0,0h0.4c0.3-0.4,0.6-0.8,1-1.1c2.4-2.8,2.7-4.5,2.7-4.5
		c0.1-0.1,0.1-0.1,0.2-0.1c0.1,0,0.1,0,0.1,0.1c0,0.1-0.3,1.8-2.8,4.6c-0.3,0.4-0.6,0.7-0.9,1h0.6c0.1-0.2,0.3-0.3,0.4-0.4
		L128.1,32.1z"/>
	
		<linearGradient id="SVGID_00000116228655649970008630000013482152137307829431_" gradientUnits="userSpaceOnUse" x1="128.7374" y1="-169.2147" x2="128.7374" y2="-149.3381" gradientTransform="matrix(1 0 0 -1 0 -126.738)">
		<stop  offset="0" style="stop-color:#8F6E27"/>
		<stop  offset="0.5" style="stop-color:#FFEABF"/>
		<stop  offset="1" style="stop-color:#8F6E27"/>
	</linearGradient>
	<path style="fill:url(#SVGID_00000116228655649970008630000013482152137307829431_);" d="M128.1,32.1c1.5-1.5,3.2-3.1,3.1-5.6
		c-0.3-2.9-2.5-3.9-3.9-3.9c-0.3,0-0.6,0.2-0.7,0.4c-0.1,0.1-0.1,0.2-0.1,0.3c0,0.1,0,0.2,0,0.3c0.1,0.1,0.1,0.1,0.1,0.2
		c0,0.1,0.1,0.1,0.1,0.2c0.1,0.1,0.3,0.2,0.5,0.2c-0.1-0.1-0.1-0.4,0-0.6c0.1-0.2,0.3-0.4,0.6-0.5c0.4-0.1,0.8,0,1.2,0.3
		c0.6,0.6,1.2,1.8,0.9,3.5c-0.2,0.6-0.7,1.5-1.4,2.6c-0.2,0.2-0.4,0.5-0.6,0.8c-0.5,0.8-1.1,1.6-1.6,2.4c0,0,0,0,0,0h0.4
		c0.3-0.4,0.6-0.8,1-1.1c2.4-2.8,2.7-4.5,2.7-4.5c0.1-0.1,0.1-0.1,0.2-0.1c0.1,0,0.1,0,0.1,0.1c0,0.1-0.3,1.8-2.8,4.6
		c-0.3,0.4-0.6,0.7-0.9,1h0.6c0.1-0.2,0.3-0.3,0.4-0.4L128.1,32.1z"/>
	<path class="st0" d="M127.8,32.8h0.4c0-0.1-0.1-0.2-0.1-0.3C128,32.5,127.9,32.6,127.8,32.8z"/>
	
		<linearGradient id="SVGID_00000041991097658420857830000013449639134079449776_" gradientUnits="userSpaceOnUse" x1="127.9688" y1="-169.2147" x2="127.9688" y2="-149.3381" gradientTransform="matrix(1 0 0 -1 0 -126.738)">
		<stop  offset="0" style="stop-color:#8F6E27"/>
		<stop  offset="0.5" style="stop-color:#FFEABF"/>
		<stop  offset="1" style="stop-color:#8F6E27"/>
	</linearGradient>
	<path style="fill:url(#SVGID_00000041991097658420857830000013449639134079449776_);" d="M127.8,32.8h0.4c0-0.1-0.1-0.2-0.1-0.3
		C128,32.5,127.9,32.6,127.8,32.8z"/>
	<path class="st0" d="M125.5,30.5c-0.2-0.4-0.4-0.6-0.8-0.6c-0.2-0.1-0.4,0.1-0.6,0.3c0.2,0,0.4,0.1,0.6,0.3
		c0.4,0.4,0.4,1.2,0.1,2.2h0.3c0.3-0.7,0.6-1.2,0.6-1.8C125.6,30.9,125.6,30.7,125.5,30.5z"/>
	
		<linearGradient id="SVGID_00000123416413647499352780000009630556569303136134_" gradientUnits="userSpaceOnUse" x1="124.9" y1="-169.2147" x2="124.9" y2="-149.3381" gradientTransform="matrix(1 0 0 -1 0 -126.738)">
		<stop  offset="0" style="stop-color:#8F6E27"/>
		<stop  offset="0.5" style="stop-color:#FFEABF"/>
		<stop  offset="1" style="stop-color:#8F6E27"/>
	</linearGradient>
	<path style="fill:url(#SVGID_00000123416413647499352780000009630556569303136134_);" d="M125.5,30.5c-0.2-0.4-0.4-0.6-0.8-0.6
		c-0.2-0.1-0.4,0.1-0.6,0.3c0.2,0,0.4,0.1,0.6,0.3c0.4,0.4,0.4,1.2,0.1,2.2h0.3c0.3-0.7,0.6-1.2,0.6-1.8
		C125.6,30.9,125.6,30.7,125.5,30.5z"/>
	<path class="st0" d="M125.9,31.7c-0.1,0.3-0.2,0.7-0.4,1h0.4c0.1-0.1,0.1-0.2,0.2-0.3C126,32.3,126,32.1,125.9,31.7z"/>
	
		<linearGradient id="SVGID_00000039118288138576594260000004046604694647748744_" gradientUnits="userSpaceOnUse" x1="125.7903" y1="-169.2147" x2="125.7903" y2="-149.3381" gradientTransform="matrix(1 0 0 -1 0 -126.738)">
		<stop  offset="0" style="stop-color:#8F6E27"/>
		<stop  offset="0.5" style="stop-color:#FFEABF"/>
		<stop  offset="1" style="stop-color:#8F6E27"/>
	</linearGradient>
	<path style="fill:url(#SVGID_00000039118288138576594260000004046604694647748744_);" d="M125.9,31.7c-0.1,0.3-0.2,0.7-0.4,1h0.4
		c0.1-0.1,0.1-0.2,0.2-0.3C126,32.3,126,32.1,125.9,31.7z"/>
	<path class="st0" d="M128.3,32.1c0.1,0.2,0.1,0.4,0.1,0.6h0.7c-0.1-0.4-0.2-0.9-0.4-1.1C128.7,31.8,128.5,31.9,128.3,32.1z"/>
	
		<linearGradient id="SVGID_00000008138428402156402660000005127297876843042203_" gradientUnits="userSpaceOnUse" x1="128.7278" y1="-169.2147" x2="128.7278" y2="-149.3381" gradientTransform="matrix(1 0 0 -1 0 -126.738)">
		<stop  offset="0" style="stop-color:#8F6E27"/>
		<stop  offset="0.5" style="stop-color:#FFEABF"/>
		<stop  offset="1" style="stop-color:#8F6E27"/>
	</linearGradient>
	<path style="fill:url(#SVGID_00000008138428402156402660000005127297876843042203_);" d="M128.3,32.1c0.1,0.2,0.1,0.4,0.1,0.6h0.7
		c-0.1-0.4-0.2-0.9-0.4-1.1C128.7,31.8,128.5,31.9,128.3,32.1z"/>
	<path class="st0" d="M12.3,30.1c-0.2-0.3-0.4-0.5-0.6-0.8c-0.7-1-1.3-1.9-1.4-2.6c-0.3-1.7,0.3-2.9,0.9-3.5
		c0.4-0.3,0.8-0.4,1.2-0.3c0.3,0.1,0.5,0.3,0.6,0.5c0.1,0.2,0,0.4,0,0.6c0.2,0,0.3-0.1,0.5-0.2c0-0.1,0.1-0.1,0.1-0.2
		c0.1-0.1,0.1-0.1,0.1-0.2s0-0.2,0-0.3c0-0.1-0.1-0.2-0.1-0.3c-0.1-0.3-0.4-0.4-0.7-0.4c-1.4,0-3.6,1.1-3.9,3.9
		c-0.2,2.7,1.5,4.3,3,5.8l0.1,0.1c0.2,0.2,0.4,0.4,0.5,0.5h0.5c-0.3-0.4-0.6-0.8-1-1.1c-2.5-2.8-2.8-4.5-2.8-4.6c0,0,0-0.1,0.1-0.1
		c0.1,0,0.2,0,0.2,0.1c0,0,0.3,1.7,2.9,4.4c0.4,0.5,0.8,0.9,1.1,1.3H14c0-0.1-0.1-0.2-0.1-0.2C13.4,31.7,12.8,30.9,12.3,30.1z"/>
	
		<linearGradient id="SVGID_00000167376996696397670150000000635946764923392174_" gradientUnits="userSpaceOnUse" x1="11.5143" y1="-169.2165" x2="11.5143" y2="-149.1381" gradientTransform="matrix(1 0 0 -1 0 -126.738)">
		<stop  offset="0" style="stop-color:#8F6E27"/>
		<stop  offset="0.5" style="stop-color:#FFEABF"/>
		<stop  offset="1" style="stop-color:#8F6E27"/>
	</linearGradient>
	<path style="fill:url(#SVGID_00000167376996696397670150000000635946764923392174_);" d="M12.3,30.1c-0.2-0.3-0.4-0.5-0.6-0.8
		c-0.7-1-1.3-1.9-1.4-2.6c-0.3-1.7,0.3-2.9,0.9-3.5c0.4-0.3,0.8-0.4,1.2-0.3c0.3,0.1,0.5,0.3,0.6,0.5c0.1,0.2,0,0.4,0,0.6
		c0.2,0,0.3-0.1,0.5-0.2c0-0.1,0.1-0.1,0.1-0.2c0.1-0.1,0.1-0.1,0.1-0.2s0-0.2,0-0.3c0-0.1-0.1-0.2-0.1-0.3
		c-0.1-0.3-0.4-0.4-0.7-0.4c-1.4,0-3.6,1.1-3.9,3.9c-0.2,2.7,1.5,4.3,3,5.8l0.1,0.1c0.2,0.2,0.4,0.4,0.5,0.5h0.5
		c-0.3-0.4-0.6-0.8-1-1.1c-2.5-2.8-2.8-4.5-2.8-4.6c0,0,0-0.1,0.1-0.1c0.1,0,0.2,0,0.2,0.1c0,0,0.3,1.7,2.9,4.4
		c0.4,0.5,0.8,0.9,1.1,1.3H14c0-0.1-0.1-0.2-0.1-0.2C13.4,31.7,12.8,30.9,12.3,30.1z"/>
	<path class="st0" d="M11.9,32.8h0.4c-0.1-0.1-0.2-0.2-0.3-0.3C12,32.5,11.9,32.6,11.9,32.8z"/>
	
		<linearGradient id="SVGID_00000165197354890576726220000014112697371372374190_" gradientUnits="userSpaceOnUse" x1="12.1311" y1="-169.2165" x2="12.1311" y2="-149.1381" gradientTransform="matrix(1 0 0 -1 0 -126.738)">
		<stop  offset="0" style="stop-color:#8F6E27"/>
		<stop  offset="0.5" style="stop-color:#FFEABF"/>
		<stop  offset="1" style="stop-color:#8F6E27"/>
	</linearGradient>
	<path style="fill:url(#SVGID_00000165197354890576726220000014112697371372374190_);" d="M11.9,32.8h0.4c-0.1-0.1-0.2-0.2-0.3-0.3
		C12,32.5,11.9,32.6,11.9,32.8z"/>
	<path class="st0" d="M15.2,30.5c0.2-0.2,0.4-0.3,0.6-0.3c-0.2-0.2-0.4-0.3-0.6-0.3s-0.4,0.2-0.8,0.6c-0.1,0.2-0.2,0.3-0.2,0.5
		c0,0.5,0.3,1.1,0.6,1.8h0.4C14.9,31.7,14.9,30.9,15.2,30.5z"/>
	
		<linearGradient id="SVGID_00000058569477801399290190000015541888582377818810_" gradientUnits="userSpaceOnUse" x1="15" y1="-169.2165" x2="15" y2="-149.1381" gradientTransform="matrix(1 0 0 -1 0 -126.738)">
		<stop  offset="0" style="stop-color:#8F6E27"/>
		<stop  offset="0.5" style="stop-color:#FFEABF"/>
		<stop  offset="1" style="stop-color:#8F6E27"/>
	</linearGradient>
	<path style="fill:url(#SVGID_00000058569477801399290190000015541888582377818810_);" d="M15.2,30.5c0.2-0.2,0.4-0.3,0.6-0.3
		c-0.2-0.2-0.4-0.3-0.6-0.3s-0.4,0.2-0.8,0.6c-0.1,0.2-0.2,0.3-0.2,0.5c0,0.5,0.3,1.1,0.6,1.8h0.4C14.9,31.7,14.9,30.9,15.2,30.5z"
		/>
	<path class="st0" d="M14,32.4c0.1,0.1,0.1,0.2,0.2,0.3h0.4c-0.2-0.4-0.4-0.7-0.4-1C14.1,32.1,14,32.3,14,32.4z"/>
	
		<linearGradient id="SVGID_00000072970040891844482900000000124211414427497349_" gradientUnits="userSpaceOnUse" x1="14.3096" y1="-169.2165" x2="14.3096" y2="-149.1381" gradientTransform="matrix(1 0 0 -1 0 -126.738)">
		<stop  offset="0" style="stop-color:#8F6E27"/>
		<stop  offset="0.5" style="stop-color:#FFEABF"/>
		<stop  offset="1" style="stop-color:#8F6E27"/>
	</linearGradient>
	<path style="fill:url(#SVGID_00000072970040891844482900000000124211414427497349_);" d="M14,32.4c0.1,0.1,0.1,0.2,0.2,0.3h0.4
		c-0.2-0.4-0.4-0.7-0.4-1C14.1,32.1,14,32.3,14,32.4z"/>
	<path class="st0" d="M11.2,31.7c-0.1,0.2-0.2,0.7-0.3,1h0.7c0-0.2,0.1-0.4,0.1-0.5C11.6,32,11.4,31.9,11.2,31.7z"/>
	
		<linearGradient id="SVGID_00000086649934505835859560000005728460533973052839_" gradientUnits="userSpaceOnUse" x1="11.3067" y1="-169.2165" x2="11.3067" y2="-149.1381" gradientTransform="matrix(1 0 0 -1 0 -126.738)">
		<stop  offset="0" style="stop-color:#8F6E27"/>
		<stop  offset="0.5" style="stop-color:#FFEABF"/>
		<stop  offset="1" style="stop-color:#8F6E27"/>
	</linearGradient>
	<path style="fill:url(#SVGID_00000086649934505835859560000005728460533973052839_);" d="M11.2,31.7c-0.1,0.2-0.2,0.7-0.3,1h0.7
		c0-0.2,0.1-0.4,0.1-0.5C11.6,32,11.4,31.9,11.2,31.7z"/>
</g>
<g id="レイヤー_1_00000011032380638173691930000005909821897541872002_">
</g>
<g class="st23">
	<path class="st24" d="M1.1-170.2c-0.2,0.1-0.4,0.1-0.7,0.2c0-0.1,0-0.3-0.1-0.5H0.1c0.1,0.3,0.1,0.6,0.1,0.8
		c-0.5,0.3-1,0.6-1.4,1.1c0-0.2-0.1-0.5-0.1-0.8c0.3-0.4,0.6-0.7,1-1h-0.3c-1.6,1.6-3.1,4-3.1,6c-0.1-0.7,0-1.4,0.1-2.1
		c0,0,0.6-1.7,2.4-4h-0.3c-0.7,0.8-1.2,1.6-1.5,2.2c0.3-0.8,0.7-1.5,1.2-2.2h-0.4c-0.7,1.2-1.3,2.5-1.6,3.8c0,0,0,0,0,0.1
		c-0.2,0.7-0.2,1.4-0.2,2c-0.1-0.9-0.1-1.8,0-2.5c0.1-1,0.6-2,1.1-2.8c0.1-0.2,0.2-0.4,0.3-0.5H-3c-0.1,0.1-0.1,0.2-0.2,0.3
		c-0.2,0.4-0.4,0.7-0.6,1.1c0.1-0.2,0.1-0.5,0.2-0.7c0.1-0.3,0.2-0.5,0.3-0.8h-12.9v2h-0.6c0-0.4-0.1-0.7-0.2-0.9
		c-0.1-0.3-0.3-0.5-0.5-0.7c-0.2-0.2-0.5-0.3-0.8-0.3h-1.9v3.9c0,0.4,0,0.7,0.1,1c0.1,0.3,0.3,0.5,0.5,0.6c0.2,0.2,0.5,0.3,0.9,0.3
		c0.4,0.1,0.9,0.1,1.4,0.1c0.6,0,1.2,0,1.6-0.1s0.8-0.2,1.1-0.5c0.3-0.2,0.5-0.5,0.7-0.9c0.2-0.4,0.3-0.8,0.5-1.3h0.7l-0.3,3.5
		h-11.1v-0.7c0.4,0,0.8,0,1-0.1c0.3-0.1,0.5-0.2,0.6-0.3c0.1-0.1,0.2-0.3,0.3-0.6c0.1-0.3,0.1-0.6,0.1-1v-3.9h-7.2
		c0.4,0.3,0.7,0.5,1,0.8c0.3,0.3,0.6,0.7,0.7,1.1c0.1,0.4,0.2,0.8,0.2,1.3c0,0.6-0.1,1.2-0.4,1.7c-0.2,0.5-0.6,0.9-1,1.3
		c-0.4,0.4-0.9,0.6-1.5,0.8c-0.6,0.2-1.3,0.3-2,0.3c-0.7,0-1.3-0.1-1.8-0.3c-0.5-0.2-1.1-0.5-1.7-1l-0.5,0.9h-0.4l-0.2-4.4h0.7
		c0.1,0.5,0.2,1,0.5,1.5c0.2,0.4,0.5,0.8,0.9,1.1c0.4,0.3,0.8,0.5,1.2,0.7c0.4,0.2,1,0.2,1.5,0.2c0.9,0,1.6-0.2,2.1-0.6
		c0.5-0.4,0.8-1,0.8-1.7c0-0.3-0.1-0.6-0.2-0.8c-0.1-0.3-0.3-0.5-0.5-0.7c-0.2-0.2-0.6-0.5-1-0.7c-0.4-0.2-0.9-0.5-1.5-0.7
		c-0.6-0.2-1.2-0.5-1.6-0.8h-11.3l4,4.8c0.3,0.4,0.7,0.7,1.1,0.9c0.4,0.2,0.9,0.3,1.4,0.4v0.7h-3.5l-4.4-5.7
		c-0.2-0.2-0.3-0.4-0.4-0.5c-0.1-0.1-0.3-0.2-0.4-0.3c-0.2-0.1-0.3-0.1-0.5-0.1s-0.4,0-0.7,0v3.7c0,0.4,0,0.8,0.1,1.1
		c0.1,0.3,0.2,0.5,0.3,0.7c0.1,0.2,0.4,0.3,0.8,0.3c0.3,0.1,0.8,0.1,1.3,0.1v0.7h-6.4v-0.7c0.4,0,0.8,0,1-0.1
		c0.3-0.1,0.5-0.2,0.6-0.3c0.1-0.1,0.2-0.3,0.3-0.6c0.1-0.3,0.1-0.6,0.1-1v-4h-7v1h0.2c0,0.9-0.1,1.8-0.3,2.5
		c-0.2,0.7-0.5,1.3-0.9,1.8c-0.4,0.5-1,0.8-1.6,1.1c-0.7,0.2-1.5,0.4-2.4,0.4c-0.9,0-1.7-0.1-2.3-0.3c-0.7-0.2-1.2-0.5-1.7-0.9
		c-0.4-0.4-0.8-0.9-1-1.6c-0.2-0.6-0.3-1.4-0.3-2.4v-1.6h-4.6c0,0.9-0.2,1.8-0.6,2.5c-0.4,0.8-0.9,1.6-1.6,2.2
		c-0.7,0.6-1.5,1.1-2.4,1.5c-0.9,0.4-1.9,0.5-2.9,0.5s-2-0.2-2.9-0.5c-0.9-0.4-1.7-0.9-2.4-1.5c-0.7-0.6-1.2-1.4-1.6-2.2
		c-0.4-0.8-0.6-1.7-0.6-2.5h-13.5c0,1.8,0.4,3.2,1.2,4.2c0.8,1,2,1.6,3.5,1.6c2.3,0,3.8-1.2,4.5-3.7h0.7v4.5h-0.6l-0.5-1.4
		c-1.3,1.1-2.8,1.6-4.6,1.6c-1,0-1.9-0.2-2.8-0.5c-0.8-0.3-1.5-0.8-2.1-1.4c-0.6-0.6-1-1.3-1.4-2.2c-0.3-0.9-0.5-1.8-0.5-2.8h-9.2
		c0.1,0.2,0.1,0.5,0.2,0.8c0.1,0.2,0.2,0.5,0.2,0.7c-0.2-0.4-0.4-0.8-0.6-1.1c-0.1-0.1-0.1-0.2-0.2-0.3h-0.2
		c0.1,0.2,0.2,0.4,0.3,0.5c0.4,0.9,1,1.8,1.1,2.8c0.1,0.7,0.1,1.6,0,2.5c0.1-0.7,0-1.3-0.2-2c0,0,0,0,0-0.1
		c-0.3-1.3-0.9-2.5-1.6-3.8h-0.2c0.4,0.6,0.8,1.3,1.1,2c-0.3-0.6-0.8-1.3-1.4-2h-0.6c1.7,2.2,2.3,3.8,2.3,3.8
		c0.2,0.7,0.2,1.4,0.1,2.1c0.1-2.1-1.4-4.3-3-5.9h-0.3c0.3,0.3,0.7,0.7,1,1c-0.1,0.3-0.1,0.6-0.1,0.8c-0.5-0.5-1-0.8-1.4-1.1
		c0-0.1,0.1-0.4,0.1-0.8h-0.3c0,0.2-0.1,0.5-0.1,0.6c-0.2-0.1-0.5-0.2-0.7-0.2c0-0.1,0.1-0.3,0.1-0.5h-10.9v32.8h140v-32.8H1.1
		C1.1-170.4,1.1-170.3,1.1-170.2z M-119.5-167.1c-0.5-0.2-0.7-0.7-0.6-1.6c0.1-0.7,0.6-1.2,1.3-1.3c1.1-0.2,2.7,0.3,3.9,1.9
		c-0.2-0.2-0.3-0.3-0.6-0.4c-0.5-0.3-0.9-0.4-1.3-0.5c-0.9-0.2-1.7,0.1-2.1,0.6c-0.2,0.2-0.2,0.4-0.2,0.7c0,0.2,0.2,0.4,0.3,0.5
		C-119-167.1-119.3-167-119.5-167.1z M-116.6-168.7c0.3,0.1,0.7,0.2,1.1,0.5c0.2,0.1,0.3,0.2,0.4,0.3c-0.2,0.9-0.2,1.5-0.2,1.8
		c-0.5-0.3-1.1-0.3-1.7-0.2C-117-166.9-116.7-168.2-116.6-168.7z M-117.3-166.3c-0.2,0.1-0.5,0.2-0.7,0.3c0.2-0.8,0.5-2.3,0.6-2.8
		c0.2,0,0.4,0,0.6,0C-117-168.3-117.2-166.8-117.3-166.3z M-112.8-163.9c-0.5,2.4-2.2,2.9-2.4,3c-0.9,0.2-1.8,0-2.5-0.4
		c-0.8-0.5-1.2-1.4-1.3-2.5c0-0.3,0.1-0.7,0.4-0.9c0.7-0.6,1.4-0.8,2-0.8c0.5,0,0.9,0.3,1.1,0.6c0.4,0.5,0.2,1.1,0,1.3
		c-0.1,0.1-0.2,0.2-0.4,0.1c-0.1-0.1-0.2-0.2-0.2-0.3c0-0.2,0.2-0.5,0.2-0.6v-0.1c0,0,0-0.1-0.1-0.1c-0.6-0.3-1.2-0.2-1.6,0.2
		c-0.4,0.4-0.6,1-0.4,1.6c0.2,0.5,0.6,0.8,1.2,0.8c1.1,0.1,1.7-0.4,1.9-0.7c0.7-0.7,0.7-1.6,0.4-2.6c-0.1-0.3-0.3-0.5-0.5-0.7
		c0-0.2,0-0.7,0.2-1.7c0.9,1,1.2,2.5,1.2,2.5c0.3,2.1-1,3.2-1,3.3c-0.1,0.1-0.1,0.1,0,0.2c0.1,0.1,0.1,0.1,0.2,0
		c0,0,1.4-1.3,1.1-3.5c0,0,0,0,0-0.1c-0.1-0.7-0.3-1.4-0.8-2.2c-0.2-0.3-0.4-0.7-0.6-0.9c0-0.1,0.1-0.4,0.1-0.8
		C-113.4-167.6-112.4-165.6-112.8-163.9z M-78.8-152.7l-0.6,1.2l-0.6-1.2l-1.4-0.2l1-1l-0.3-1.4l1.3,0.6l1.2-0.6l-0.2,1.4l1,1
		L-78.8-152.7z M-69.5-151.5l-0.9,1.9l-0.9-1.9l-2.1-0.3l1.5-1.4l-0.4-2.1l1.9,1l1.8-1l-0.3,2.1l1.5,1.4L-69.5-151.5z M-56.9-148.9
		l-1.5,3.1l-1.6-3.1l-3.4-0.5l2.5-2.5l-0.6-3.4l3.1,1.6l3.1-1.6l-0.6,3.4l2.5,2.5L-56.9-148.9z M-45.5-151.5l-0.9,1.9l-0.9-1.9
		l-2.1-0.3l1.5-1.4l-0.4-2.1l1.9,1l1.8-1l-0.3,2.1l1.5,1.4L-45.5-151.5z M-36.8-152.7l-0.6,1.2l-0.6-1.2l-1.4-0.2l1-1l-0.3-1.4
		l1.3,0.6l1.2-0.6l-0.2,1.4l1,1L-36.8-152.7z M1.2-161.4c-0.4,0.5-1.2,0.7-2.2,0.5c-0.2,0-1.9-0.5-2.4-3c-0.4-1.7,0.6-3.7,1.8-5.3
		c0.1,0.3,0.1,0.6,0.1,0.8c-0.2,0.3-0.4,0.6-0.6,0.9c-0.4,0.8-0.7,1.5-0.8,2.2c0,0,0,0,0,0.1c-0.3,2.3,1.1,3.5,1.1,3.5
		c0.1,0.1,0.1,0,0.2,0c0.1-0.1,0-0.1,0-0.2c-0.1-0.1-1.3-1.2-1-3.3c0,0,0.3-1.5,1.2-2.5c0.2,1,0.2,1.5,0.2,1.7
		c-0.2,0.2-0.4,0.4-0.5,0.7c-0.4,1-0.3,1.9,0.1,2.5c0.3,0.4,0.8,0.8,1.9,0.7c0.6,0,1-0.3,1.2-0.8c0.2-0.5,0-1.2-0.4-1.6
		c-0.4-0.4-1-0.5-1.6-0.2l-0.1,0.1v0.1c0.1,0.1,0.3,0.4,0.2,0.6c0,0.1-0.1,0.2-0.2,0.3c-0.2,0.1-0.3,0-0.4-0.1
		c-0.2-0.3-0.4-0.9,0-1.3c0.2-0.2,0.5-0.5,1.1-0.6c0.6-0.1,1.3,0.2,2,0.8c0.3,0.2,0.4,0.5,0.4,0.9C2.5-162.8,2-161.9,1.2-161.4z
		 M0.9-166.3c-0.6-0.1-1.3-0.1-1.7,0.2c0-0.3-0.1-0.8-0.2-1.8c0.1-0.1,0.3-0.2,0.4-0.3c0.4-0.2,0.8-0.4,1.1-0.5
		C0.6-168.3,0.8-166.9,0.9-166.3z M0.7-168.8c0.2,0,0.4,0,0.6,0c0.1,0.5,0.4,2,0.5,2.8c-0.2-0.1-0.5-0.2-0.7-0.3
		C1.1-166.9,0.8-168.3,0.7-168.8z M2.6-170c0.8,0.2,1.3,0.7,1.3,1.3c0.1,0.8-0.1,1.4-0.6,1.5c-0.3,0.1-0.6,0-0.7-0.1
		c0.1-0.1,0.3-0.3,0.3-0.5s0-0.4-0.2-0.6c-0.3-0.5-1.1-0.8-2.1-0.6c-0.4,0.1-0.9,0.3-1.3,0.5c-0.2,0.1-0.4,0.3-0.6,0.4
		C-0.1-169.7,1.5-170.3,2.6-170z"/>
	<path class="st24" d="M-84.9-168.2c0.2,0.7,0.6,1.4,1,1.9c0.4,0.5,1,0.9,1.6,1.2c0.6,0.3,1.3,0.4,2.1,0.4s1.5-0.1,2.1-0.4
		c0.6-0.3,1.2-0.7,1.6-1.2c0.5-0.5,0.8-1.1,1-1.9c0.2-0.8,0.4-1.5,0.4-2.3h-10.2C-85.3-169.7-85.2-168.9-84.9-168.2z"/>
	<path class="st24" d="M-65.8-167.3c0.1,0.5,0.3,0.9,0.6,1.2c0.3,0.3,0.7,0.6,1.1,0.7c0.4,0.1,1,0.3,1.7,0.3c1.2,0,2.1-0.3,2.7-1
		c0.6-0.7,0.9-1.6,0.9-2.9v-1.5H-66v1.6C-66-168.3-65.9-167.7-65.8-167.3z"/>
	<path class="st24" d="M-101.8-165.6c0.6,0.6,1.3,1.1,2.1,1.4c0.9,0.3,1.8,0.5,2.8,0.5c1.8,0,3.3-0.5,4.6-1.6l0.5,1.4h0.6v-4.5h-0.7
		c-0.7,2.5-2.2,3.7-4.5,3.7c-1.5,0-2.7-0.6-3.5-1.6c-0.8-1-1.2-2.5-1.2-4.2h-2.6c0,1,0.2,1.9,0.5,2.8
		C-102.8-166.9-102.4-166.2-101.8-165.6z"/>
	
		<linearGradient id="SVGID_00000003803892145753145370000017137951248259013001_" gradientUnits="userSpaceOnUse" x1="-97.4488" y1="36.9295" x2="-97.4488" y2="51.1295" gradientTransform="matrix(1 0 0 -1 0 -126.738)">
		<stop  offset="0" style="stop-color:#8F6E27"/>
		<stop  offset="0.5" style="stop-color:#FFEABF"/>
		<stop  offset="1" style="stop-color:#8F6E27"/>
	</linearGradient>
	<path style="display:inline;fill:url(#SVGID_00000003803892145753145370000017137951248259013001_);" d="M-101.8-165.6
		c0.6,0.6,1.3,1.1,2.1,1.4c0.9,0.3,1.8,0.5,2.8,0.5c1.8,0,3.3-0.5,4.6-1.6l0.5,1.4h0.6v-4.5h-0.7c-0.7,2.5-2.2,3.7-4.5,3.7
		c-1.5,0-2.7-0.6-3.5-1.6c-0.8-1-1.2-2.5-1.2-4.2h-2.6c0,1,0.2,1.9,0.5,2.8C-102.8-166.9-102.4-166.2-101.8-165.6z"/>
	<path class="st24" d="M-85.4-165.8c0.7,0.6,1.5,1.1,2.4,1.5c0.9,0.3,1.9,0.5,2.9,0.5s2-0.1,2.9-0.5c0.9-0.4,1.7-0.9,2.4-1.5
		c0.7-0.6,1.2-1.4,1.6-2.2c0.4-0.8,0.6-1.6,0.6-2.5h-2.5c0,0.8-0.2,1.6-0.4,2.3c-0.2,0.8-0.5,1.4-1,1.9c-0.4,0.5-1,0.9-1.6,1.2
		c-0.6,0.3-1.3,0.4-2.1,0.4s-1.5-0.1-2.1-0.4c-0.6-0.3-1.2-0.7-1.6-1.2c-0.4-0.5-0.8-1.2-1-1.9c-0.3-0.8-0.4-1.5-0.4-2.3h-2.3
		c0,0.9,0.2,1.8,0.6,2.5C-86.6-167.2-86.1-166.4-85.4-165.8z"/>
	
		<linearGradient id="SVGID_00000116942133921419896930000010831976538871892098_" gradientUnits="userSpaceOnUse" x1="-80.0998" y1="37.0295" x2="-80.0998" y2="51.1295" gradientTransform="matrix(1 0 0 -1 0 -126.738)">
		<stop  offset="0" style="stop-color:#8F6E27"/>
		<stop  offset="0.5" style="stop-color:#FFEABF"/>
		<stop  offset="1" style="stop-color:#8F6E27"/>
	</linearGradient>
	<path style="display:inline;fill:url(#SVGID_00000116942133921419896930000010831976538871892098_);" d="M-85.4-165.8
		c0.7,0.6,1.5,1.1,2.4,1.5c0.9,0.3,1.9,0.5,2.9,0.5s2-0.1,2.9-0.5c0.9-0.4,1.7-0.9,2.4-1.5c0.7-0.6,1.2-1.4,1.6-2.2
		c0.4-0.8,0.6-1.6,0.6-2.5h-2.5c0,0.8-0.2,1.6-0.4,2.3c-0.2,0.8-0.5,1.4-1,1.9c-0.4,0.5-1,0.9-1.6,1.2c-0.6,0.3-1.3,0.4-2.1,0.4
		s-1.5-0.1-2.1-0.4c-0.6-0.3-1.2-0.7-1.6-1.2c-0.4-0.5-0.8-1.2-1-1.9c-0.3-0.8-0.4-1.5-0.4-2.3h-2.3c0,0.9,0.2,1.8,0.6,2.5
		C-86.6-167.2-86.1-166.4-85.4-165.8z"/>
	<path class="st24" d="M-67.7-166.5c0.2,0.7,0.6,1.2,1,1.6c0.5,0.4,1,0.7,1.7,0.9c0.6,0.2,1.4,0.3,2.3,0.3c0.9,0,1.7-0.2,2.4-0.4
		c0.6-0.3,1.2-0.6,1.6-1.1c0.4-0.5,0.7-1.1,0.9-1.8c0.2-0.7,0.3-1.6,0.3-2.5h-0.2v-1h-1.1v1.5c0,1.3-0.3,2.2-0.9,2.9
		c-0.6,0.7-1.5,1-2.7,1c-0.7,0-1.3-0.2-1.7-0.3c-0.4-0.1-0.8-0.4-1.1-0.7c-0.3-0.3-0.5-0.7-0.6-1.2c-0.1-0.4-0.2-1-0.2-1.6v-1.6h-2
		v1.6C-68-167.9-67.9-167.1-67.7-166.5z"/>
	
		<linearGradient id="SVGID_00000025437673128019649290000017549754911035702949_" gradientUnits="userSpaceOnUse" x1="-62.75" y1="36.9295" x2="-62.75" y2="51.2295" gradientTransform="matrix(1 0 0 -1 0 -126.738)">
		<stop  offset="0" style="stop-color:#8F6E27"/>
		<stop  offset="0.5" style="stop-color:#FFEABF"/>
		<stop  offset="1" style="stop-color:#8F6E27"/>
	</linearGradient>
	<path style="display:inline;fill:url(#SVGID_00000025437673128019649290000017549754911035702949_);" d="M-67.7-166.5
		c0.2,0.7,0.6,1.2,1,1.6c0.5,0.4,1,0.7,1.7,0.9c0.6,0.2,1.4,0.3,2.3,0.3c0.9,0,1.7-0.2,2.4-0.4c0.6-0.3,1.2-0.6,1.6-1.1
		c0.4-0.5,0.7-1.1,0.9-1.8c0.2-0.7,0.3-1.6,0.3-2.5h-0.2v-1h-1.1v1.5c0,1.3-0.3,2.2-0.9,2.9c-0.6,0.7-1.5,1-2.7,1
		c-0.7,0-1.3-0.2-1.7-0.3c-0.4-0.1-0.8-0.4-1.1-0.7c-0.3-0.3-0.5-0.7-0.6-1.2c-0.1-0.4-0.2-1-0.2-1.6v-1.6h-2v1.6
		C-68-167.9-67.9-167.1-67.7-166.5z"/>
	<path class="st24" d="M-50.8-165.5c-0.1,0.3-0.2,0.5-0.3,0.6c-0.1,0.1-0.3,0.2-0.6,0.3c-0.2,0.1-0.6,0.1-1,0.1v0.7h6.4v-0.7
		c-0.5,0-1,0-1.3-0.1c-0.4,0-0.7-0.1-0.8-0.3c-0.1-0.2-0.2-0.4-0.3-0.7c-0.1-0.3-0.1-0.7-0.1-1.1v-3.7c0.3,0,0.5,0,0.7,0
		s0.3,0,0.5,0.1c0.1,0.1,0.3,0.2,0.4,0.3c0.1,0.1,0.2,0.3,0.4,0.5l4.4,5.7h3.5v-0.7c-0.5-0.1-1-0.2-1.4-0.4
		c-0.4-0.2-0.8-0.5-1.1-0.9l-4-4.8h-5.3v4C-50.7-166.1-50.7-165.8-50.8-165.5z"/>
	
		<linearGradient id="SVGID_00000182509487258696031730000005485542922015063432_" gradientUnits="userSpaceOnUse" x1="-45.8" y1="37.0295" x2="-45.8" y2="50.8295" gradientTransform="matrix(1 0 0 -1 0 -126.738)">
		<stop  offset="0" style="stop-color:#8F6E27"/>
		<stop  offset="0.5" style="stop-color:#FFEABF"/>
		<stop  offset="1" style="stop-color:#8F6E27"/>
	</linearGradient>
	<path style="display:inline;fill:url(#SVGID_00000182509487258696031730000005485542922015063432_);" d="M-50.8-165.5
		c-0.1,0.3-0.2,0.5-0.3,0.6c-0.1,0.1-0.3,0.2-0.6,0.3c-0.2,0.1-0.6,0.1-1,0.1v0.7h6.4v-0.7c-0.5,0-1,0-1.3-0.1
		c-0.4,0-0.7-0.1-0.8-0.3c-0.1-0.2-0.2-0.4-0.3-0.7c-0.1-0.3-0.1-0.7-0.1-1.1v-3.7c0.3,0,0.5,0,0.7,0s0.3,0,0.5,0.1
		c0.1,0.1,0.3,0.2,0.4,0.3c0.1,0.1,0.2,0.3,0.4,0.5l4.4,5.7h3.5v-0.7c-0.5-0.1-1-0.2-1.4-0.4c-0.4-0.2-0.8-0.5-1.1-0.9l-4-4.8h-5.3
		v4C-50.7-166.1-50.7-165.8-50.8-165.5z"/>
	<path class="st24" d="M-30.9-169.1c0.4,0.2,0.8,0.5,1,0.7c0.2,0.2,0.4,0.4,0.5,0.7c0.1,0.2,0.2,0.5,0.2,0.8c0,0.7-0.3,1.3-0.8,1.7
		c-0.5,0.4-1.2,0.6-2.1,0.6c-0.5,0-1.1,0-1.5-0.2c-0.4-0.2-0.8-0.4-1.2-0.7c-0.4-0.3-0.7-0.7-0.9-1.1c-0.3-0.5-0.4-1-0.5-1.5h-0.7
		l0.2,4.4h0.4l0.5-0.9c0.6,0.5,1.2,0.8,1.7,1c0.5,0.2,1.1,0.3,1.8,0.3c0.7,0,1.4-0.1,2-0.3c0.6-0.2,1.1-0.4,1.5-0.8
		c0.4-0.4,0.8-0.8,1-1.3c0.3-0.5,0.4-1.1,0.4-1.7c0-0.5-0.1-0.9-0.2-1.3c-0.1-0.4-0.4-0.8-0.7-1.1c-0.2-0.2-0.6-0.5-1-0.8H-34
		c0.5,0.2,1,0.5,1.6,0.8C-31.8-169.6-31.3-169.3-30.9-169.1z"/>
	
		<linearGradient id="SVGID_00000026853126100144405360000017782617772334385827_" gradientUnits="userSpaceOnUse" x1="-32.15" y1="36.5295" x2="-32.15" y2="50.9295" gradientTransform="matrix(1 0 0 -1 0 -126.738)">
		<stop  offset="0" style="stop-color:#8F6E27"/>
		<stop  offset="0.5" style="stop-color:#FFEABF"/>
		<stop  offset="1" style="stop-color:#8F6E27"/>
	</linearGradient>
	<path style="display:inline;fill:url(#SVGID_00000026853126100144405360000017782617772334385827_);" d="M-30.9-169.1
		c0.4,0.2,0.8,0.5,1,0.7c0.2,0.2,0.4,0.4,0.5,0.7c0.1,0.2,0.2,0.5,0.2,0.8c0,0.7-0.3,1.3-0.8,1.7c-0.5,0.4-1.2,0.6-2.1,0.6
		c-0.5,0-1.1,0-1.5-0.2c-0.4-0.2-0.8-0.4-1.2-0.7c-0.4-0.3-0.7-0.7-0.9-1.1c-0.3-0.5-0.4-1-0.5-1.5h-0.7l0.2,4.4h0.4l0.5-0.9
		c0.6,0.5,1.2,0.8,1.7,1c0.5,0.2,1.1,0.3,1.8,0.3c0.7,0,1.4-0.1,2-0.3c0.6-0.2,1.1-0.4,1.5-0.8c0.4-0.4,0.8-0.8,1-1.3
		c0.3-0.5,0.4-1.1,0.4-1.7c0-0.5-0.1-0.9-0.2-1.3c-0.1-0.4-0.4-0.8-0.7-1.1c-0.2-0.2-0.6-0.5-1-0.8H-34c0.5,0.2,1,0.5,1.6,0.8
		C-31.8-169.6-31.3-169.3-30.9-169.1z"/>
	<path class="st24" d="M-22.2-165.6c-0.1,0.3-0.2,0.5-0.3,0.6c-0.1,0.1-0.3,0.2-0.6,0.3c-0.2,0.1-0.6,0.1-1,0.1v0.7H-13l0.3-3.5
		h-0.7c-0.2,0.5-0.3,0.9-0.5,1.3c-0.2,0.4-0.4,0.7-0.7,0.9c-0.3,0.3-0.7,0.4-1.1,0.5s-1,0.1-1.6,0.1c-0.5,0-1,0-1.4-0.1
		c-0.4,0-0.7-0.1-0.9-0.3c-0.2-0.1-0.4-0.3-0.5-0.6c-0.1-0.3-0.1-0.6-0.1-1v-3.9h-1.9v3.9C-22.1-166.2-22.1-165.9-22.2-165.6z"/>
	
		<linearGradient id="SVGID_00000028285356641841942500000011656958855570390915_" gradientUnits="userSpaceOnUse" x1="-18.4" y1="37.1295" x2="-18.4" y2="50.9295" gradientTransform="matrix(1 0 0 -1 0 -126.738)">
		<stop  offset="0" style="stop-color:#8F6E27"/>
		<stop  offset="0.5" style="stop-color:#FFEABF"/>
		<stop  offset="1" style="stop-color:#8F6E27"/>
	</linearGradient>
	<path style="display:inline;fill:url(#SVGID_00000028285356641841942500000011656958855570390915_);" d="M-22.2-165.6
		c-0.1,0.3-0.2,0.5-0.3,0.6c-0.1,0.1-0.3,0.2-0.6,0.3c-0.2,0.1-0.6,0.1-1,0.1v0.7H-13l0.3-3.5h-0.7c-0.2,0.5-0.3,0.9-0.5,1.3
		c-0.2,0.4-0.4,0.7-0.7,0.9c-0.3,0.3-0.7,0.4-1.1,0.5s-1,0.1-1.6,0.1c-0.5,0-1,0-1.4-0.1c-0.4,0-0.7-0.1-0.9-0.3
		c-0.2-0.1-0.4-0.3-0.5-0.6c-0.1-0.3-0.1-0.6-0.1-1v-3.9h-1.9v3.9C-22.1-166.2-22.1-165.9-22.2-165.6z"/>
	<path class="st24" d="M-17.5-170.2c0.2,0.2,0.4,0.4,0.5,0.7c0.1,0.2,0.2,0.5,0.2,0.9h0.6v-2h-2.1C-18-170.4-17.7-170.3-17.5-170.2z
		"/>
	
		<linearGradient id="SVGID_00000044900421544332463550000010859338547187457457_" gradientUnits="userSpaceOnUse" x1="-17.253" y1="37.1295" x2="-17.253" y2="50.9295" gradientTransform="matrix(1 0 0 -1 0 -126.738)">
		<stop  offset="0" style="stop-color:#8F6E27"/>
		<stop  offset="0.5" style="stop-color:#FFEABF"/>
		<stop  offset="1" style="stop-color:#8F6E27"/>
	</linearGradient>
	<path style="display:inline;fill:url(#SVGID_00000044900421544332463550000010859338547187457457_);" d="M-17.5-170.2
		c0.2,0.2,0.4,0.4,0.5,0.7c0.1,0.2,0.2,0.5,0.2,0.9h0.6v-2h-2.1C-18-170.4-17.7-170.3-17.5-170.2z"/>
	<polygon class="st24" points="-55.3,-155.3 -58.4,-153.7 -61.5,-155.3 -60.9,-151.9 -63.4,-149.4 -60,-148.9 -58.4,-145.8 
		-56.9,-148.9 -53.4,-149.4 -55.9,-151.9 	"/>
	
		<linearGradient id="SVGID_00000150095219869798254520000010730485831390961041_" gradientUnits="userSpaceOnUse" x1="-58.4" y1="19.0295" x2="-58.4" y2="28.5295" gradientTransform="matrix(1 0 0 -1 0 -126.738)">
		<stop  offset="0" style="stop-color:#8F6E27"/>
		<stop  offset="0.5" style="stop-color:#FFEABF"/>
		<stop  offset="1" style="stop-color:#8F6E27"/>
	</linearGradient>
	<polygon style="display:inline;fill:url(#SVGID_00000150095219869798254520000010730485831390961041_);" points="-55.3,-155.3 
		-58.4,-153.7 -61.5,-155.3 -60.9,-151.9 -63.4,-149.4 -60,-148.9 -58.4,-145.8 -56.9,-148.9 -53.4,-149.4 -55.9,-151.9 	"/>
	<polygon class="st24" points="-68.6,-155.3 -70.4,-154.3 -72.3,-155.3 -71.9,-153.2 -73.4,-151.8 -71.3,-151.5 -70.4,-149.6 
		-69.5,-151.5 -67.4,-151.8 -68.9,-153.2 	"/>
	
		<linearGradient id="SVGID_00000174580385669741989200000006313197002707493766_" gradientUnits="userSpaceOnUse" x1="-70.4" y1="22.8295" x2="-70.4" y2="28.5295" gradientTransform="matrix(1 0 0 -1 0 -126.738)">
		<stop  offset="0" style="stop-color:#8F6E27"/>
		<stop  offset="0.5" style="stop-color:#FFEABF"/>
		<stop  offset="1" style="stop-color:#8F6E27"/>
	</linearGradient>
	<polygon style="display:inline;fill:url(#SVGID_00000174580385669741989200000006313197002707493766_);" points="-68.6,-155.3 
		-70.4,-154.3 -72.3,-155.3 -71.9,-153.2 -73.4,-151.8 -71.3,-151.5 -70.4,-149.6 -69.5,-151.5 -67.4,-151.8 -68.9,-153.2 	"/>
	<polygon class="st24" points="-78.2,-155.3 -79.4,-154.7 -80.7,-155.3 -80.4,-153.9 -81.4,-152.9 -80,-152.7 -79.4,-151.5 
		-78.8,-152.7 -77.4,-152.9 -78.4,-153.9 	"/>
	
		<linearGradient id="SVGID_00000070803985858192151020000010768018310887111349_" gradientUnits="userSpaceOnUse" x1="-79.4" y1="24.7295" x2="-79.4" y2="28.5295" gradientTransform="matrix(1 0 0 -1 0 -126.738)">
		<stop  offset="0" style="stop-color:#8F6E27"/>
		<stop  offset="0.5" style="stop-color:#FFEABF"/>
		<stop  offset="1" style="stop-color:#8F6E27"/>
	</linearGradient>
	<polygon style="display:inline;fill:url(#SVGID_00000070803985858192151020000010768018310887111349_);" points="-78.2,-155.3 
		-79.4,-154.7 -80.7,-155.3 -80.4,-153.9 -81.4,-152.9 -80,-152.7 -79.4,-151.5 -78.8,-152.7 -77.4,-152.9 -78.4,-153.9 	"/>
	<polygon class="st24" points="-44.6,-155.3 -46.4,-154.3 -48.3,-155.3 -47.9,-153.2 -49.4,-151.8 -47.3,-151.5 -46.4,-149.6 
		-45.5,-151.5 -43.4,-151.8 -44.9,-153.2 	"/>
	
		<linearGradient id="SVGID_00000108267106563672667390000004276610646223101584_" gradientUnits="userSpaceOnUse" x1="-46.4" y1="22.8295" x2="-46.4" y2="28.5295" gradientTransform="matrix(1 0 0 -1 0 -126.738)">
		<stop  offset="0" style="stop-color:#8F6E27"/>
		<stop  offset="0.5" style="stop-color:#FFEABF"/>
		<stop  offset="1" style="stop-color:#8F6E27"/>
	</linearGradient>
	<polygon style="display:inline;fill:url(#SVGID_00000108267106563672667390000004276610646223101584_);" points="-44.6,-155.3 
		-46.4,-154.3 -48.3,-155.3 -47.9,-153.2 -49.4,-151.8 -47.3,-151.5 -46.4,-149.6 -45.5,-151.5 -43.4,-151.8 -44.9,-153.2 	"/>
	<polygon class="st24" points="-36.2,-155.3 -37.4,-154.7 -38.7,-155.3 -38.4,-153.9 -39.4,-152.9 -38,-152.7 -37.4,-151.5 
		-36.8,-152.7 -35.4,-152.9 -36.4,-153.9 	"/>
	
		<linearGradient id="SVGID_00000178902119611906047030000018389588816686569909_" gradientUnits="userSpaceOnUse" x1="-37.4" y1="24.7295" x2="-37.4" y2="28.5295" gradientTransform="matrix(1 0 0 -1 0 -126.738)">
		<stop  offset="0" style="stop-color:#8F6E27"/>
		<stop  offset="0.5" style="stop-color:#FFEABF"/>
		<stop  offset="1" style="stop-color:#8F6E27"/>
	</linearGradient>
	<polygon style="display:inline;fill:url(#SVGID_00000178902119611906047030000018389588816686569909_);" points="-36.2,-155.3 
		-37.4,-154.7 -38.7,-155.3 -38.4,-153.9 -39.4,-152.9 -38,-152.7 -37.4,-151.5 -36.8,-152.7 -35.4,-152.9 -36.4,-153.9 	"/>
	<path class="st24" d="M-1.3-168.1c0.2-0.1,0.4-0.3,0.6-0.4c0.4-0.2,0.9-0.4,1.3-0.5c0,0-0.1,0-0.1,0s0,0,0.1,0
		c1-0.2,1.8,0.1,2.1,0.6c0.2,0.2,0.2,0.4,0.2,0.6s-0.2,0.4-0.3,0.5c0.1,0.1,0.4,0.2,0.7,0.1c0.5-0.1,0.7-0.7,0.6-1.5
		c0-0.6-0.5-1.1-1.3-1.3C1.5-170.3-0.1-169.7-1.3-168.1z"/>
	
		<linearGradient id="SVGID_00000029047908111647295120000003660566497112954779_" gradientUnits="userSpaceOnUse" x1="1.3125" y1="34.0529" x2="1.3125" y2="53.9295" gradientTransform="matrix(1 0 0 -1 0 -126.738)">
		<stop  offset="0" style="stop-color:#8F6E27"/>
		<stop  offset="0.5" style="stop-color:#FFEABF"/>
		<stop  offset="1" style="stop-color:#8F6E27"/>
	</linearGradient>
	<path style="display:inline;fill:url(#SVGID_00000029047908111647295120000003660566497112954779_);" d="M-1.3-168.1
		c0.2-0.1,0.4-0.3,0.6-0.4c0.4-0.2,0.9-0.4,1.3-0.5c0,0-0.1,0-0.1,0s0,0,0.1,0c1-0.2,1.8,0.1,2.1,0.6c0.2,0.2,0.2,0.4,0.2,0.6
		s-0.2,0.4-0.3,0.5c0.1,0.1,0.4,0.2,0.7,0.1c0.5-0.1,0.7-0.7,0.6-1.5c0-0.6-0.5-1.1-1.3-1.3C1.5-170.3-0.1-169.7-1.3-168.1z"/>
	<path class="st24" d="M-1.5-170.5h-0.4c-0.5,0.8-0.9,1.5-1.2,2.2C-2.7-168.9-2.1-169.7-1.5-170.5z"/>
	
		<linearGradient id="SVGID_00000164510860879160292040000015208671439866334870_" gradientUnits="userSpaceOnUse" x1="-2.2386" y1="34.0529" x2="-2.2386" y2="53.9295" gradientTransform="matrix(1 0 0 -1 0 -126.738)">
		<stop  offset="0" style="stop-color:#8F6E27"/>
		<stop  offset="0.5" style="stop-color:#FFEABF"/>
		<stop  offset="1" style="stop-color:#8F6E27"/>
	</linearGradient>
	<path style="display:inline;fill:url(#SVGID_00000164510860879160292040000015208671439866334870_);" d="M-1.5-170.5h-0.4
		c-0.5,0.8-0.9,1.5-1.2,2.2C-2.7-168.9-2.1-169.7-1.5-170.5z"/>
	<path class="st24" d="M-3.6-166.6c-0.1,0.7-0.2,1.4-0.1,2.1c0-2.1,1.5-4.4,3.1-6h-0.6C-3-168.3-3.6-166.6-3.6-166.6z"/>
	
		<linearGradient id="SVGID_00000107552775596962338600000006049632404251405486_" gradientUnits="userSpaceOnUse" x1="-2.1937" y1="34.0529" x2="-2.1937" y2="53.9295" gradientTransform="matrix(1 0 0 -1 0 -126.738)">
		<stop  offset="0" style="stop-color:#8F6E27"/>
		<stop  offset="0.5" style="stop-color:#FFEABF"/>
		<stop  offset="1" style="stop-color:#8F6E27"/>
	</linearGradient>
	<path style="display:inline;fill:url(#SVGID_00000107552775596962338600000006049632404251405486_);" d="M-3.6-166.6
		c-0.1,0.7-0.2,1.4-0.1,2.1c0-2.1,1.5-4.4,3.1-6h-0.6C-3-168.3-3.6-166.6-3.6-166.6z"/>
	<path class="st24" d="M1.1-170.2c0-0.1,0-0.2,0-0.3H0.3c0,0.2,0.1,0.4,0.1,0.5C0.7-170.1,0.9-170.1,1.1-170.2z"/>
	
		<linearGradient id="SVGID_00000003786641602462625120000004738910582611569850_" gradientUnits="userSpaceOnUse" x1="0.7196" y1="34.0529" x2="0.7196" y2="53.9295" gradientTransform="matrix(1 0 0 -1 0 -126.738)">
		<stop  offset="0" style="stop-color:#8F6E27"/>
		<stop  offset="0.5" style="stop-color:#FFEABF"/>
		<stop  offset="1" style="stop-color:#8F6E27"/>
	</linearGradient>
	<path style="display:inline;fill:url(#SVGID_00000003786641602462625120000004738910582611569850_);" d="M1.1-170.2
		c0-0.1,0-0.2,0-0.3H0.3c0,0.2,0.1,0.4,0.1,0.5C0.7-170.1,0.9-170.1,1.1-170.2z"/>
	<path class="st24" d="M-1.2-168.7c0.4-0.5,0.9-0.8,1.4-1.1c0-0.1-0.1-0.4-0.1-0.8h-0.4c-0.3,0.3-0.7,0.7-1,1
		C-1.3-169.2-1.2-168.9-1.2-168.7z"/>
	
		<linearGradient id="SVGID_00000156569013695260892030000006071878424605964687_" gradientUnits="userSpaceOnUse" x1="-0.55" y1="34.0529" x2="-0.55" y2="53.9295" gradientTransform="matrix(1 0 0 -1 0 -126.738)">
		<stop  offset="0" style="stop-color:#8F6E27"/>
		<stop  offset="0.5" style="stop-color:#FFEABF"/>
		<stop  offset="1" style="stop-color:#8F6E27"/>
	</linearGradient>
	<path style="display:inline;fill:url(#SVGID_00000156569013695260892030000006071878424605964687_);" d="M-1.2-168.7
		c0.4-0.5,0.9-0.8,1.4-1.1c0-0.1-0.1-0.4-0.1-0.8h-0.4c-0.3,0.3-0.7,0.7-1,1C-1.3-169.2-1.2-168.9-1.2-168.7z"/>
	<path class="st24" d="M-4-167.2c-0.1,0.7-0.1,1.6,0,2.5c0-0.6,0-1.3,0.2-2c0-0.1,0-0.1,0-0.1c0.3-1.3,0.9-2.5,1.6-3.8h-0.4
		c-0.1,0.2-0.2,0.4-0.3,0.5C-3.4-169.2-3.9-168.2-4-167.2z"/>
	
		<linearGradient id="SVGID_00000031178497258859380990000015990190296396618646_" gradientUnits="userSpaceOnUse" x1="-3.1392" y1="34.0529" x2="-3.1392" y2="53.9295" gradientTransform="matrix(1 0 0 -1 0 -126.738)">
		<stop  offset="0" style="stop-color:#8F6E27"/>
		<stop  offset="0.5" style="stop-color:#FFEABF"/>
		<stop  offset="1" style="stop-color:#8F6E27"/>
	</linearGradient>
	<path style="display:inline;fill:url(#SVGID_00000031178497258859380990000015990190296396618646_);" d="M-4-167.2
		c-0.1,0.7-0.1,1.6,0,2.5c0-0.6,0-1.3,0.2-2c0-0.1,0-0.1,0-0.1c0.3-1.3,0.9-2.5,1.6-3.8h-0.4c-0.1,0.2-0.2,0.4-0.3,0.5
		C-3.4-169.2-3.9-168.2-4-167.2z"/>
	<path class="st24" d="M-0.6-168.2c-0.1,0.1-0.3,0.2-0.4,0.3c0.1,1,0.2,1.5,0.2,1.8c0.4-0.3,1.1-0.3,1.7-0.2c-0.1-0.6-0.3-2-0.4-2.4
		C0.2-168.6-0.2-168.4-0.6-168.2z"/>
	
		<linearGradient id="SVGID_00000047750275732870141360000000749262183068988808_" gradientUnits="userSpaceOnUse" x1="-5.001831e-02" y1="34.0529" x2="-5.001831e-02" y2="53.9295" gradientTransform="matrix(1 0 0 -1 0 -126.738)">
		<stop  offset="0" style="stop-color:#8F6E27"/>
		<stop  offset="0.5" style="stop-color:#FFEABF"/>
		<stop  offset="1" style="stop-color:#8F6E27"/>
	</linearGradient>
	<path style="display:inline;fill:url(#SVGID_00000047750275732870141360000000749262183068988808_);" d="M-0.6-168.2
		c-0.1,0.1-0.3,0.2-0.4,0.3c0.1,1,0.2,1.5,0.2,1.8c0.4-0.3,1.1-0.3,1.7-0.2c-0.1-0.6-0.3-2-0.4-2.4C0.2-168.6-0.2-168.4-0.6-168.2z"
		/>
	<path class="st24" d="M-3.8-169.1c0.2-0.4,0.4-0.7,0.6-1.1c0.1-0.1,0.1-0.2,0.2-0.3h-0.3c-0.1,0.2-0.1,0.5-0.3,0.8
		C-3.7-169.6-3.7-169.3-3.8-169.1z"/>
	
		<linearGradient id="SVGID_00000011725757227236966710000013519757283180384443_" gradientUnits="userSpaceOnUse" x1="-3.4116" y1="34.0529" x2="-3.4116" y2="53.9295" gradientTransform="matrix(1 0 0 -1 0 -126.738)">
		<stop  offset="0" style="stop-color:#8F6E27"/>
		<stop  offset="0.5" style="stop-color:#FFEABF"/>
		<stop  offset="1" style="stop-color:#8F6E27"/>
	</linearGradient>
	<path style="display:inline;fill:url(#SVGID_00000011725757227236966710000013519757283180384443_);" d="M-3.8-169.1
		c0.2-0.4,0.4-0.7,0.6-1.1c0.1-0.1,0.1-0.2,0.2-0.3h-0.3c-0.1,0.2-0.1,0.5-0.3,0.8C-3.7-169.6-3.7-169.3-3.8-169.1z"/>
	<path class="st24" d="M1.8-166c-0.1-0.8-0.4-2.3-0.5-2.8c-0.2,0-0.4,0-0.6,0c0.1,0.5,0.4,1.9,0.4,2.5C1.3-166.2,1.6-166.1,1.8-166z
		"/>
	
		<linearGradient id="SVGID_00000041293237773117636490000013122575395122708144_" gradientUnits="userSpaceOnUse" x1="1.25" y1="34.0529" x2="1.25" y2="53.9295" gradientTransform="matrix(1 0 0 -1 0 -126.738)">
		<stop  offset="0" style="stop-color:#8F6E27"/>
		<stop  offset="0.5" style="stop-color:#FFEABF"/>
		<stop  offset="1" style="stop-color:#8F6E27"/>
	</linearGradient>
	<path style="display:inline;fill:url(#SVGID_00000041293237773117636490000013122575395122708144_);" d="M1.8-166
		c-0.1-0.8-0.4-2.3-0.5-2.8c-0.2,0-0.4,0-0.6,0c0.1,0.5,0.4,1.9,0.4,2.5C1.3-166.2,1.6-166.1,1.8-166z"/>
	<path class="st24" d="M2.1-164.8c-0.7-0.6-1.4-0.9-2-0.8c-0.6,0.1-0.9,0.4-1.1,0.6c-0.4,0.4-0.2,1,0,1.3c0.1,0.1,0.2,0.2,0.4,0.1
		c0.1-0.1,0.2-0.2,0.2-0.3c0.1-0.2-0.1-0.5-0.2-0.6v-0.1l0.1-0.1c0.6-0.3,1.2-0.2,1.6,0.2c0.4,0.4,0.6,1.1,0.4,1.6
		c-0.2,0.5-0.6,0.8-1.2,0.8c-1.1,0.1-1.6-0.3-1.9-0.7c-0.4-0.6-0.5-1.5-0.1-2.5c0.1-0.3,0.3-0.5,0.5-0.7c0-0.2,0-0.7-0.2-1.7
		c-0.9,1-1.2,2.5-1.2,2.5c-0.3,2.1,0.9,3.2,1,3.3c0,0.1,0.1,0.1,0,0.2c-0.1,0-0.1,0.1-0.2,0c0,0-1.4-1.2-1.1-3.5c0-0.1,0-0.1,0-0.1
		c0.1-0.7,0.4-1.4,0.8-2.2c0.2-0.3,0.4-0.6,0.6-0.9c0-0.2,0-0.5-0.1-0.8c-1.2,1.6-2.2,3.6-1.8,5.3c0.5,2.5,2.2,3,2.4,3
		c1,0.2,1.8,0,2.2-0.5c0.8-0.5,1.3-1.4,1.3-2.5C2.5-164.3,2.4-164.6,2.1-164.8z"/>
	
		<linearGradient id="SVGID_00000083077076915096834920000001986282241329875120_" gradientUnits="userSpaceOnUse" x1="-0.4948" y1="34.0529" x2="-0.4948" y2="53.9295" gradientTransform="matrix(1 0 0 -1 0 -126.738)">
		<stop  offset="0" style="stop-color:#8F6E27"/>
		<stop  offset="0.5" style="stop-color:#FFEABF"/>
		<stop  offset="1" style="stop-color:#8F6E27"/>
	</linearGradient>
	<path style="display:inline;fill:url(#SVGID_00000083077076915096834920000001986282241329875120_);" d="M2.1-164.8
		c-0.7-0.6-1.4-0.9-2-0.8c-0.6,0.1-0.9,0.4-1.1,0.6c-0.4,0.4-0.2,1,0,1.3c0.1,0.1,0.2,0.2,0.4,0.1c0.1-0.1,0.2-0.2,0.2-0.3
		c0.1-0.2-0.1-0.5-0.2-0.6v-0.1l0.1-0.1c0.6-0.3,1.2-0.2,1.6,0.2c0.4,0.4,0.6,1.1,0.4,1.6c-0.2,0.5-0.6,0.8-1.2,0.8
		c-1.1,0.1-1.6-0.3-1.9-0.7c-0.4-0.6-0.5-1.5-0.1-2.5c0.1-0.3,0.3-0.5,0.5-0.7c0-0.2,0-0.7-0.2-1.7c-0.9,1-1.2,2.5-1.2,2.5
		c-0.3,2.1,0.9,3.2,1,3.3c0,0.1,0.1,0.1,0,0.2c-0.1,0-0.1,0.1-0.2,0c0,0-1.4-1.2-1.1-3.5c0-0.1,0-0.1,0-0.1c0.1-0.7,0.4-1.4,0.8-2.2
		c0.2-0.3,0.4-0.6,0.6-0.9c0-0.2,0-0.5-0.1-0.8c-1.2,1.6-2.2,3.6-1.8,5.3c0.5,2.5,2.2,3,2.4,3c1,0.2,1.8,0,2.2-0.5
		c0.8-0.5,1.3-1.4,1.3-2.5C2.5-164.3,2.4-164.6,2.1-164.8z"/>
	<path class="st24" d="M-112.5-169.1c0-0.2-0.1-0.5-0.2-0.7c-0.1-0.3-0.2-0.5-0.2-0.8h-0.4c0.1,0.1,0.1,0.2,0.2,0.3
		C-112.9-169.9-112.7-169.5-112.5-169.1z"/>
	
		<linearGradient id="SVGID_00000180350500394270694630000001554447830968554916_" gradientUnits="userSpaceOnUse" x1="-112.8885" y1="34.051" x2="-112.8885" y2="54.1295" gradientTransform="matrix(1 0 0 -1 0 -126.738)">
		<stop  offset="0" style="stop-color:#8F6E27"/>
		<stop  offset="0.5" style="stop-color:#FFEABF"/>
		<stop  offset="1" style="stop-color:#8F6E27"/>
	</linearGradient>
	<path style="display:inline;fill:url(#SVGID_00000180350500394270694630000001554447830968554916_);" d="M-112.5-169.1
		c0-0.2-0.1-0.5-0.2-0.7c-0.1-0.3-0.2-0.5-0.2-0.8h-0.4c0.1,0.1,0.1,0.2,0.2,0.3C-112.9-169.9-112.7-169.5-112.5-169.1z"/>
	<path class="st24" d="M-112.3-166.7c0.2,0.7,0.3,1.3,0.2,2c0.1-0.9,0.1-1.8,0-2.5c-0.1-1-0.7-1.9-1.1-2.8c-0.1-0.2-0.2-0.4-0.3-0.5
		h-0.4C-113.2-169.3-112.6-168-112.3-166.7C-112.3-166.7-112.3-166.7-112.3-166.7z"/>
	
		<linearGradient id="SVGID_00000034087944645811346750000011447967905434298779_" gradientUnits="userSpaceOnUse" x1="-112.9608" y1="34.051" x2="-112.9608" y2="54.1295" gradientTransform="matrix(1 0 0 -1 0 -126.738)">
		<stop  offset="0" style="stop-color:#8F6E27"/>
		<stop  offset="0.5" style="stop-color:#FFEABF"/>
		<stop  offset="1" style="stop-color:#8F6E27"/>
	</linearGradient>
	<path style="display:inline;fill:url(#SVGID_00000034087944645811346750000011447967905434298779_);" d="M-112.3-166.7
		c0.2,0.7,0.3,1.3,0.2,2c0.1-0.9,0.1-1.8,0-2.5c-0.1-1-0.7-1.9-1.1-2.8c-0.1-0.2-0.2-0.4-0.3-0.5h-0.4
		C-113.2-169.3-112.6-168-112.3-166.7C-112.3-166.7-112.3-166.7-112.3-166.7z"/>
	<path class="st24" d="M-118-166c0.2-0.1,0.5-0.2,0.7-0.3c0.1-0.5,0.3-2,0.5-2.5c-0.2,0-0.4,0-0.6,0
		C-117.5-168.3-117.8-166.8-118-166z"/>
	
		<linearGradient id="SVGID_00000096750460648117344120000011251464328459287973_" gradientUnits="userSpaceOnUse" x1="-117.4" y1="34.051" x2="-117.4" y2="54.1295" gradientTransform="matrix(1 0 0 -1 0 -126.738)">
		<stop  offset="0" style="stop-color:#8F6E27"/>
		<stop  offset="0.5" style="stop-color:#FFEABF"/>
		<stop  offset="1" style="stop-color:#8F6E27"/>
	</linearGradient>
	<path style="display:inline;fill:url(#SVGID_00000096750460648117344120000011251464328459287973_);" d="M-118-166
		c0.2-0.1,0.5-0.2,0.7-0.3c0.1-0.5,0.3-2,0.5-2.5c-0.2,0-0.4,0-0.6,0C-117.5-168.3-117.8-166.8-118-166z"/>
	<path class="st24" d="M-116.6-169.9c0-0.2,0-0.4,0.1-0.6h-0.7c0,0.2-0.1,0.3-0.1,0.5C-117.1-170.1-116.8-170-116.6-169.9z"/>
	
		<linearGradient id="SVGID_00000023977294558799231090000007600675306469474726_" gradientUnits="userSpaceOnUse" x1="-116.9101" y1="34.051" x2="-116.9101" y2="54.1295" gradientTransform="matrix(1 0 0 -1 0 -126.738)">
		<stop  offset="0" style="stop-color:#8F6E27"/>
		<stop  offset="0.5" style="stop-color:#FFEABF"/>
		<stop  offset="1" style="stop-color:#8F6E27"/>
	</linearGradient>
	<path style="display:inline;fill:url(#SVGID_00000023977294558799231090000007600675306469474726_);" d="M-116.6-169.9
		c0-0.2,0-0.4,0.1-0.6h-0.7c0,0.2-0.1,0.3-0.1,0.5C-117.1-170.1-116.8-170-116.6-169.9z"/>
	<path class="st24" d="M-119.1-167.7c0-0.3,0-0.5,0.2-0.7c0.4-0.5,1.2-0.8,2.1-0.6c0.4,0.1,0.8,0.2,1.3,0.5c0.3,0.1,0.4,0.2,0.6,0.4
		c-1.2-1.6-2.8-2.1-3.9-1.9c-0.7,0.1-1.2,0.6-1.3,1.3c-0.1,0.9,0.1,1.4,0.6,1.6c0.2,0.1,0.5,0,0.7-0.1
		C-118.9-167.3-119.1-167.5-119.1-167.7z"/>
	
		<linearGradient id="SVGID_00000144302424204963850080000014561576219248781750_" gradientUnits="userSpaceOnUse" x1="-117.5125" y1="34.051" x2="-117.5125" y2="54.1295" gradientTransform="matrix(1 0 0 -1 0 -126.738)">
		<stop  offset="0" style="stop-color:#8F6E27"/>
		<stop  offset="0.5" style="stop-color:#FFEABF"/>
		<stop  offset="1" style="stop-color:#8F6E27"/>
	</linearGradient>
	<path style="display:inline;fill:url(#SVGID_00000144302424204963850080000014561576219248781750_);" d="M-119.1-167.7
		c0-0.3,0-0.5,0.2-0.7c0.4-0.5,1.2-0.8,2.1-0.6c0.4,0.1,0.8,0.2,1.3,0.5c0.3,0.1,0.4,0.2,0.6,0.4c-1.2-1.6-2.8-2.1-3.9-1.9
		c-0.7,0.1-1.2,0.6-1.3,1.3c-0.1,0.9,0.1,1.4,0.6,1.6c0.2,0.1,0.5,0,0.7-0.1C-118.9-167.3-119.1-167.5-119.1-167.7z"/>
	<path class="st24" d="M-114.9-168.7c0-0.2,0-0.5,0.1-0.8c-0.3-0.4-0.6-0.7-1-1h-0.4c-0.1,0.3-0.1,0.6-0.1,0.8
		C-115.9-169.5-115.4-169.2-114.9-168.7z"/>
	
		<linearGradient id="SVGID_00000052096761092634040770000000181226405722923710_" gradientUnits="userSpaceOnUse" x1="-115.55" y1="34.051" x2="-115.55" y2="54.1295" gradientTransform="matrix(1 0 0 -1 0 -126.738)">
		<stop  offset="0" style="stop-color:#8F6E27"/>
		<stop  offset="0.5" style="stop-color:#FFEABF"/>
		<stop  offset="1" style="stop-color:#8F6E27"/>
	</linearGradient>
	<path style="display:inline;fill:url(#SVGID_00000052096761092634040770000000181226405722923710_);" d="M-114.9-168.7
		c0-0.2,0-0.5,0.1-0.8c-0.3-0.4-0.6-0.7-1-1h-0.4c-0.1,0.3-0.1,0.6-0.1,0.8C-115.9-169.5-115.4-169.2-114.9-168.7z"/>
	<path class="st24" d="M-114.7-168.4c0.2,0.2,0.4,0.6,0.6,0.9c0.5,0.8,0.7,1.5,0.8,2.2c0,0.1,0,0.1,0,0.1c0.3,2.2-1.1,3.5-1.1,3.5
		c-0.1,0.1-0.1,0.1-0.2,0c-0.1-0.1-0.1-0.1,0-0.2c0-0.1,1.3-1.2,1-3.3c0,0-0.3-1.5-1.2-2.5c-0.2,1-0.2,1.5-0.2,1.7
		c0.2,0.2,0.4,0.4,0.5,0.7c0.3,1,0.3,1.9-0.4,2.6c-0.2,0.3-0.8,0.8-1.9,0.7c-0.6,0-1-0.3-1.2-0.8c-0.2-0.6,0-1.2,0.4-1.6
		c0.4-0.4,1-0.5,1.6-0.2c0.1,0,0.1,0.1,0.1,0.1v0.1c0,0.1-0.2,0.4-0.2,0.6c0,0.1,0.1,0.2,0.2,0.3c0.2,0.1,0.3,0,0.4-0.1
		c0.2-0.2,0.4-0.8,0-1.3c-0.2-0.3-0.6-0.6-1.1-0.6c-0.6,0-1.3,0.2-2,0.8c-0.3,0.2-0.4,0.6-0.4,0.9c0.1,1.1,0.5,2,1.3,2.5
		c0.7,0.4,1.6,0.6,2.5,0.4c0.2-0.1,1.9-0.6,2.4-3c0.4-1.7-0.6-3.7-1.8-5.3C-114.6-168.8-114.7-168.5-114.7-168.4z"/>
	
		<linearGradient id="SVGID_00000154412706640666470910000016472668676235395243_" gradientUnits="userSpaceOnUse" x1="-115.8552" y1="34.051" x2="-115.8552" y2="54.1295" gradientTransform="matrix(1 0 0 -1 0 -126.738)">
		<stop  offset="0" style="stop-color:#8F6E27"/>
		<stop  offset="0.5" style="stop-color:#FFEABF"/>
		<stop  offset="1" style="stop-color:#8F6E27"/>
	</linearGradient>
	<path style="display:inline;fill:url(#SVGID_00000154412706640666470910000016472668676235395243_);" d="M-114.7-168.4
		c0.2,0.2,0.4,0.6,0.6,0.9c0.5,0.8,0.7,1.5,0.8,2.2c0,0.1,0,0.1,0,0.1c0.3,2.2-1.1,3.5-1.1,3.5c-0.1,0.1-0.1,0.1-0.2,0
		c-0.1-0.1-0.1-0.1,0-0.2c0-0.1,1.3-1.2,1-3.3c0,0-0.3-1.5-1.2-2.5c-0.2,1-0.2,1.5-0.2,1.7c0.2,0.2,0.4,0.4,0.5,0.7
		c0.3,1,0.3,1.9-0.4,2.6c-0.2,0.3-0.8,0.8-1.9,0.7c-0.6,0-1-0.3-1.2-0.8c-0.2-0.6,0-1.2,0.4-1.6c0.4-0.4,1-0.5,1.6-0.2
		c0.1,0,0.1,0.1,0.1,0.1v0.1c0,0.1-0.2,0.4-0.2,0.6c0,0.1,0.1,0.2,0.2,0.3c0.2,0.1,0.3,0,0.4-0.1c0.2-0.2,0.4-0.8,0-1.3
		c-0.2-0.3-0.6-0.6-1.1-0.6c-0.6,0-1.3,0.2-2,0.8c-0.3,0.2-0.4,0.6-0.4,0.9c0.1,1.1,0.5,2,1.3,2.5c0.7,0.4,1.6,0.6,2.5,0.4
		c0.2-0.1,1.9-0.6,2.4-3c0.4-1.7-0.6-3.7-1.8-5.3C-114.6-168.8-114.7-168.5-114.7-168.4z"/>
	<path class="st24" d="M-115.3-166.1c0-0.3,0-0.9,0.2-1.8c-0.1-0.1-0.2-0.2-0.4-0.3c-0.4-0.3-0.8-0.4-1.1-0.5
		c-0.1,0.5-0.4,1.8-0.4,2.4C-116.4-166.4-115.8-166.4-115.3-166.1z"/>
	
		<linearGradient id="SVGID_00000063621914962489498650000014792309938350379405_" gradientUnits="userSpaceOnUse" x1="-116.05" y1="34.051" x2="-116.05" y2="54.1295" gradientTransform="matrix(1 0 0 -1 0 -126.738)">
		<stop  offset="0" style="stop-color:#8F6E27"/>
		<stop  offset="0.5" style="stop-color:#FFEABF"/>
		<stop  offset="1" style="stop-color:#8F6E27"/>
	</linearGradient>
	<path style="display:inline;fill:url(#SVGID_00000063621914962489498650000014792309938350379405_);" d="M-115.3-166.1
		c0-0.3,0-0.9,0.2-1.8c-0.1-0.1-0.2-0.2-0.4-0.3c-0.4-0.3-0.8-0.4-1.1-0.5c-0.1,0.5-0.4,1.8-0.4,2.4
		C-116.4-166.4-115.8-166.4-115.3-166.1z"/>
	<path class="st24" d="M-112.6-166.7c0,0-0.6-1.6-2.3-3.8h-0.5c1.5,1.6,3,3.9,3,5.9C-112.4-165.3-112.4-166-112.6-166.7z"/>
	
		<linearGradient id="SVGID_00000144299883045310153940000017754602217375375278_" gradientUnits="userSpaceOnUse" x1="-113.9429" y1="34.051" x2="-113.9429" y2="54.1295" gradientTransform="matrix(1 0 0 -1 0 -126.738)">
		<stop  offset="0" style="stop-color:#8F6E27"/>
		<stop  offset="0.5" style="stop-color:#FFEABF"/>
		<stop  offset="1" style="stop-color:#8F6E27"/>
	</linearGradient>
	<path style="display:inline;fill:url(#SVGID_00000144299883045310153940000017754602217375375278_);" d="M-112.6-166.7
		c0,0-0.6-1.6-2.3-3.8h-0.5c1.5,1.6,3,3.9,3,5.9C-112.4-165.3-112.4-166-112.6-166.7z"/>
	<path class="st24" d="M-113-168.5c-0.3-0.7-0.7-1.4-1.1-2h-0.3C-113.8-169.7-113.3-169-113-168.5z"/>
	
		<linearGradient id="SVGID_00000121967206564424000540000004121075786826538173_" gradientUnits="userSpaceOnUse" x1="-113.6849" y1="34.051" x2="-113.6849" y2="54.1295" gradientTransform="matrix(1 0 0 -1 0 -126.738)">
		<stop  offset="0" style="stop-color:#8F6E27"/>
		<stop  offset="0.5" style="stop-color:#FFEABF"/>
		<stop  offset="1" style="stop-color:#8F6E27"/>
	</linearGradient>
	<path style="display:inline;fill:url(#SVGID_00000121967206564424000540000004121075786826538173_);" d="M-113-168.5
		c-0.3-0.7-0.7-1.4-1.1-2h-0.3C-113.8-169.7-113.3-169-113-168.5z"/>
</g>
</svg>
