<?xml version="1.0" encoding="utf-8"?>
<!-- Generator: Adobe Illustrator 27.1.1, SVG Export Plug-In . SVG Version: 6.00 Build 0)  -->
<svg version="1.1" id="レイヤー_1" xmlns="http://www.w3.org/2000/svg" xmlns:xlink="http://www.w3.org/1999/xlink" x="0px"
	 y="0px" viewBox="0 0 140 32.8" style="enable-background:new 0 0 140 32.8;" xml:space="preserve">
<style type="text/css">
	.st0{display:none;}
	.st1{display:inline;fill:#1A1A1A;}
	.st2{display:inline;fill:url(#SVGID_1_);}
	.st3{display:inline;fill:url(#SVGID_00000103242941570669749040000001593747738020192941_);}
	.st4{display:inline;fill:url(#SVGID_00000011713845153913872590000005728152129678645174_);}
	.st5{display:inline;fill:url(#SVGID_00000078009376626871313550000009127345281475290531_);}
	.st6{display:inline;fill:url(#SVGID_00000097498298929316823100000004965770931651357375_);}
	.st7{display:inline;fill:url(#SVGID_00000052787892679967888890000009012838790880902792_);}
	.st8{display:inline;fill:url(#SVGID_00000122701815083857013120000010389428590335802265_);}
	.st9{display:inline;fill:url(#SVGID_00000165943477325028379100000012926632043538919866_);}
	.st10{display:inline;fill:url(#SVGID_00000159434892708403891060000001038010216630420128_);}
	.st11{display:inline;fill:url(#SVGID_00000004535112803662314780000010580304167389693060_);}
	.st12{display:inline;fill:url(#SVGID_00000065072068018497597510000004851268118563334287_);}
	.st13{display:inline;fill:url(#SVGID_00000181066767604053761950000010838001344543657099_);}
	.st14{display:inline;fill:url(#SVGID_00000093869180176356886980000016285583942324821132_);}
	.st15{display:inline;fill:url(#SVGID_00000172416148998311846980000015374679758189706660_);}
	.st16{display:inline;fill:url(#SVGID_00000145037412016279832680000006950476844836820874_);}
	.st17{display:inline;fill:url(#SVGID_00000092434785174469228730000003970051310534543789_);}
	.st18{display:inline;fill:url(#SVGID_00000132049028334550781040000009155767986141095347_);}
	.st19{display:inline;fill:url(#SVGID_00000033369217252590505530000002861940893734526343_);}
	.st20{display:inline;fill:url(#SVGID_00000047061599967293596870000004112052934603611268_);}
	.st21{display:inline;fill:url(#SVGID_00000015329613702313526190000007017394976559706240_);}
	.st22{display:inline;fill:url(#SVGID_00000177477905098350062700000001154512025626801586_);}
	.st23{display:inline;fill:url(#SVGID_00000102532079133180986110000018147466622213147284_);}
	.st24{fill:#1A1A1A;}
	.st25{fill:url(#SVGID_00000021821361960195316350000015277955489912743601_);}
	.st26{fill:url(#SVGID_00000012455462194959553340000014425081593778618805_);}
	.st27{fill:url(#SVGID_00000163054279506817073790000000076443824627956113_);}
	.st28{fill:url(#SVGID_00000026122593840924498940000005090735211747724201_);}
	.st29{fill:url(#SVGID_00000023240845146668041220000014897599165474670210_);}
	.st30{fill:url(#SVGID_00000049219909623030674270000015399094299077518271_);}
	.st31{fill:url(#SVGID_00000160191230981708641410000006125548056039897232_);}
	.st32{fill:url(#SVGID_00000176006441104927554650000011727221829300182184_);}
	.st33{fill:url(#SVGID_00000139268392757970936650000000008302381547968911_);}
	.st34{fill:url(#SVGID_00000085969146939054649160000003367267439113761698_);}
	.st35{fill:url(#SVGID_00000031171960412150798070000002406466472345540768_);}
	.st36{fill:url(#SVGID_00000052077768331776544010000007358115170939648681_);}
	.st37{fill:url(#SVGID_00000150067104846306509620000014518024311467594914_);}
	.st38{fill:url(#SVGID_00000146498869909775391050000009796192816383222201_);}
	.st39{fill:url(#SVGID_00000013871808050520798790000002462938732338380734_);}
	.st40{fill:url(#SVGID_00000034055335301956446260000012090908644696828582_);}
	.st41{fill:url(#SVGID_00000169519616768145905630000009013694227557984647_);}
	.st42{fill:url(#SVGID_00000106825785482534179250000013593257399681954952_);}
	.st43{fill:url(#SVGID_00000145749253395404171020000009187251623366001847_);}
	.st44{fill:url(#SVGID_00000149381058759246289710000004014429721702405510_);}
	.st45{fill:url(#SVGID_00000138542245023031795180000005891811319720501180_);}
	.st46{fill:url(#SVGID_00000083800044172134525060000012104310286733265546_);}
	.st47{fill:url(#SVGID_00000114058022135632598140000011733052370044693676_);}
	.st48{fill:url(#SVGID_00000034769514078342467090000004266888791765195198_);}
	.st49{fill:url(#SVGID_00000159451215040657772980000006056396680080620217_);}
	.st50{fill:url(#SVGID_00000179607440127008508330000014470738023623151245_);}
	.st51{fill:url(#SVGID_00000073687451313185483680000018109720299181010866_);}
	.st52{fill:url(#SVGID_00000145764837392394412700000014133204472889949877_);}
	.st53{fill:url(#SVGID_00000145756857688398407750000011821540837981364359_);}
	.st54{fill:url(#SVGID_00000143591857245716279050000007943134000212798639_);}
	.st55{fill:url(#SVGID_00000134240935404752388130000001683611191116219025_);}
	.st56{fill:url(#SVGID_00000117674585995897505580000012823291861888136864_);}
</style>
<g id="レイヤー_1_1_">
</g>
<g class="st0">
	<path class="st1" d="M258.7,197.6c0-0.1,0-0.1-0.1-0.1c-0.1,0-0.1,0-0.2,0.1c0,0-0.3,1.7-2.7,4.5c-0.4,0.4-0.7,0.8-1,1.1h0.3
		c0.3-0.3,0.6-0.7,0.9-1C258.4,199.4,258.7,197.7,258.7,197.6z"/>
	<path class="st1" d="M212.2,199.6c0-1-0.2-1.7-0.7-2.1c-0.5-0.4-1.2-0.6-2.2-0.6h-1.7c-0.2,0-0.3,0.1-0.3,0.3v5.3h1.3
		c1.2,0,2.1-0.2,2.7-0.7C211.9,201.3,212.2,200.6,212.2,199.6z"/>
	<path class="st1" d="M139.3,202.2c0.2,0.2,0.4,0.3,0.5,0.5c0,0.2-0.1,0.4-0.1,0.5h0.3c0-0.1,0.1-0.2,0.1-0.3
		c0.1,0.1,0.2,0.2,0.3,0.3h0.3c-0.2-0.2-0.4-0.4-0.5-0.5l-0.1-0.1c-1.5-1.5-3.2-3.1-3-5.8c0.3-2.8,2.5-3.9,3.9-3.9
		c0.3,0,0.6,0.1,0.7,0.4c0,0.1,0.1,0.2,0.1,0.3c0,0.1,0,0.2,0,0.3s0,0.1-0.1,0.2c0,0.1-0.1,0.1-0.1,0.2c-0.2,0.1-0.3,0.2-0.5,0.2
		c0-0.2,0.1-0.4,0-0.6c-0.1-0.2-0.3-0.4-0.6-0.5c-0.4-0.1-0.8,0-1.2,0.3c-0.6,0.6-1.2,1.8-0.9,3.5c0.1,0.7,0.7,1.6,1.4,2.6
		c0.2,0.3,0.4,0.5,0.6,0.8c0.5,0.8,1.1,1.6,1.6,2.4c0,0.1,0.1,0.2,0.1,0.2h0.2c-0.1-0.1-0.1-0.2-0.2-0.3c0-0.1,0.1-0.3,0.2-0.7
		c0.1,0.3,0.2,0.7,0.4,1h0.2c-0.3-0.7-0.6-1.2-0.6-1.8c0-0.2,0.1-0.3,0.2-0.5c0.4-0.4,0.6-0.6,0.8-0.6s0.4,0.1,0.6,0.3
		c-0.2,0-0.4,0.1-0.6,0.3c-0.3,0.4-0.3,1.2,0,2.2h9.2c0,0,0,0,0,0c0-1.1,0.2-2.1,0.5-3c0.3-0.9,0.8-1.7,1.4-2.3
		c0.6-0.6,1.3-1.1,2.2-1.5c0.8-0.4,1.8-0.5,2.8-0.5c0.7,0,1.4,0.1,2,0.3c0.6,0.2,1.3,0.5,2.1,1l0.5-1.1h0.5l0.2,4.1H164
		c-0.3-1.1-0.8-1.9-1.5-2.5c-0.8-0.6-1.7-0.9-2.7-0.9c-0.7,0-1.4,0.1-2,0.4c-0.6,0.3-1.1,0.7-1.5,1.2c-0.4,0.5-0.7,1.2-0.9,2
		c-0.2,0.8-0.3,1.7-0.3,2.6c0,0.1,0,0.2,0,0.2h13.5c0,0,0-0.1,0-0.1c0-1,0.2-2,0.6-2.8c0.4-0.9,0.9-1.6,1.6-2.3
		c0.7-0.6,1.5-1.2,2.4-1.5c0.7-0.4,1.7-0.6,2.8-0.6s2,0.2,3,0.6c1,0.4,1.7,0.9,2.4,1.5c0.7,0.6,1.2,1.4,1.6,2.3
		c0.4,0.9,0.6,1.8,0.6,2.8c0,0.1,0,0.1,0,0.1h4.6v-3.1c0-0.9,0-1.6-0.1-2.1c-0.1-0.5-0.2-0.8-0.4-1.1c-0.1-0.2-0.3-0.3-0.6-0.3
		c-0.2-0.1-0.6-0.1-1-0.1v-0.7h6.1v0.7c-0.4,0-0.7,0-1,0.1c-0.3,0-0.5,0.2-0.6,0.4c-0.2,0.2-0.3,0.6-0.3,1c0,0.4-0.1,1.2-0.1,2v3.2
		h7.2v-2.8c0-1.1,0-1.9-0.1-2.4c-0.1-0.6-0.2-0.9-0.5-1.2c-0.2-0.2-0.4-0.3-0.6-0.3s-0.6-0.1-0.9-0.1v-0.7h5.2v0.7
		c-0.4,0-0.7,0-0.9,0.1c-0.2,0.1-0.4,0.2-0.6,0.4c-0.2,0.3-0.3,0.6-0.4,1.2c-0.1,0.5-0.1,1.3-0.1,2.3v2.8h7v-4.3c0-0.4,0-0.8-0.1-1
		c0-0.3-0.1-0.5-0.3-0.6c-0.2-0.1-0.3-0.3-0.5-0.3c-0.2-0.1-0.6-0.1-0.9-0.1v-0.7h5.7c1.7,0,2.9,0.3,3.8,0.9
		c0.8,0.5,1.3,1.3,1.3,2.4c0,1-0.3,1.8-0.9,2.4c-0.6,0.6-1.5,1.1-2.8,1.3l0,0h11.3c-0.1,0-0.2-0.1-0.3-0.1c-0.5-0.3-0.9-0.6-1.2-0.9
		s-0.5-0.7-0.6-1c-0.1-0.4-0.2-0.8-0.2-1.3c0-0.6,0.1-1.1,0.3-1.5c0.2-0.5,0.5-0.9,0.8-1.2c0.4-0.3,0.8-0.6,1.3-0.8s1-0.3,1.6-0.3
		c0.5,0,1,0.1,1.5,0.3s0.9,0.4,1.4,0.8l0.5-0.8h0.4l0.2,3.6h-0.7c-0.3-1-0.7-1.7-1.3-2.2c-0.6-0.5-1.2-0.7-2-0.7
		c-0.7,0-1.3,0.2-1.7,0.5c-0.4,0.3-0.6,0.8-0.6,1.5c0,0.3,0,0.5,0.1,0.8c0.1,0.2,0.3,0.5,0.5,0.7s0.5,0.4,0.8,0.6
		c0.3,0.2,0.8,0.4,1.3,0.7c0.9,0.4,1.6,0.8,2.2,1.1c0.2,0.1,0.3,0.2,0.4,0.2h7.2v-4.4c0-0.4,0-0.8-0.1-1c0-0.3-0.1-0.5-0.3-0.6
		c-0.2-0.1-0.3-0.3-0.5-0.3c-0.2-0.1-0.6-0.1-0.9-0.1v-0.7h10.4l0.2,3.2h-0.6c-0.1-0.5-0.2-0.9-0.4-1.2c-0.2-0.3-0.4-0.5-0.7-0.7
		s-0.6-0.3-1.1-0.4c-0.4-0.1-1-0.1-1.6-0.1h-2.3c-0.2,0-0.3,0.1-0.3,0.3v5.1h0.1c0.6,0,1.2,0,1.6-0.1c0.4-0.1,0.8-0.2,1-0.4
		c0.3-0.2,0.4-0.4,0.6-0.6c0.1-0.3,0.2-0.6,0.2-0.9h0.6v2.9h12.9c0.3-1.1,0.4-1.8-0.1-2.2c-0.2-0.2-0.4-0.3-0.6-0.3
		c0.2-0.2,0.4-0.4,0.6-0.3c0.4,0,0.6,0.2,0.8,0.6c0.1,0.2,0.1,0.4,0.2,0.5c0,0.5-0.3,1.1-0.6,1.8h0.4c0.2-0.4,0.4-0.7,0.4-1
		c0.1,0.4,0.1,0.6,0.2,0.7c-0.1,0.1-0.1,0.2-0.2,0.3h0.4c0,0,0,0,0,0c0.5-0.8,1.1-1.6,1.6-2.4c0.2-0.3,0.4-0.6,0.6-0.8
		c0.7-1.1,1.2-2,1.4-2.6c0.3-1.7-0.3-2.9-0.9-3.5c-0.4-0.3-0.8-0.4-1.2-0.3c-0.3,0.1-0.5,0.3-0.6,0.5c-0.1,0.2-0.1,0.5,0,0.6
		c-0.2,0-0.4-0.1-0.5-0.2c0-0.1-0.1-0.1-0.1-0.2c0-0.1,0-0.1-0.1-0.2c0-0.1,0-0.2,0-0.3c0-0.1,0-0.2,0.1-0.3
		c0.1-0.2,0.4-0.4,0.7-0.4c1.4,0,3.6,1,3.9,3.9c0.1,2.5-1.6,4.1-3.1,5.6l-0.2,0.2c-0.1,0.1-0.3,0.3-0.4,0.4h0.3
		c0.1-0.1,0.2-0.2,0.3-0.3c0,0.1,0.1,0.2,0.1,0.3h0.3c0-0.2-0.1-0.4-0.1-0.6c0.2-0.2,0.4-0.3,0.5-0.5c0.1,0.3,0.3,0.8,0.4,1.1h10.8
		v-32.8h-140v32.8H139C139.1,202.9,139.2,202.4,139.3,202.2z M218.2,185.5l0.6-1.3l0.6,1.3l1.4,0.2l-1,0.9l0.2,1.4l-1.2-0.6
		l-1.3,0.6l0.3-1.4l-1-0.9L218.2,185.5z M208.9,184.2l0.9-1.9l0.9,1.9l2.1,0.3l-1.5,1.4l0.3,2.1l-1.8-1l-1.9,1l0.4-2.1l-1.5-1.4
		L208.9,184.2z M196.2,181.6l1.6-3.1l1.5,3.1l3.5,0.5l-2.5,2.5l0.6,3.4l-3.1-1.6l-3.1,1.6l0.6-3.4l-2.5-2.5L196.2,181.6z
		 M184.9,184.2l0.9-1.9l0.9,1.9l2.1,0.3l-1.5,1.4l0.3,2.1l-1.8-1l-1.9,1l0.4-2.1l-1.5-1.4L184.9,184.2z M176.2,185.5l0.6-1.3
		l0.6,1.3l1.4,0.2l-1,0.9l0.2,1.4l-1.2-0.6l-1.3,0.6l0.3-1.4l-1-0.9L176.2,185.5z"/>
	<path class="st1" d="M236,203.1v0.1h1.9c-0.1,0-0.1,0-0.2,0C237.3,203.1,236.7,203.1,236,203.1z"/>
	<path class="st1" d="M181.1,203.1c0-1-0.1-1.8-0.4-2.6c-0.3-0.8-0.6-1.4-1-2c-0.4-0.5-1-1-1.6-1.3c-0.6-0.3-1.4-0.4-2.1-0.4
		c-0.8,0-1.5,0.1-2.1,0.4c-0.6,0.3-1.2,0.7-1.6,1.3c-0.4,0.5-0.8,1.2-1,2c-0.2,0.8-0.4,1.6-0.4,2.6c0,0.1,0,0.1,0,0.1h10.2
		C181.1,203.2,181.1,203.2,181.1,203.1z"/>
	<path class="st1" d="M137.8,197.5c0-0.1-0.1-0.1-0.2-0.1c-0.1,0-0.1,0.1-0.1,0.1c0,0.1,0.3,1.8,2.8,4.6c0.4,0.4,0.7,0.8,1,1.1h0.6
		c-0.3-0.4-0.7-0.9-1.1-1.3C138.1,199.2,137.8,197.5,137.8,197.5z"/>
	<path class="st1" d="M155.4,200.4c0.2-0.8,0.5-1.5,0.9-2c0.4-0.5,0.9-0.9,1.5-1.2c0.6-0.3,1.3-0.4,2-0.4c1,0,1.9,0.3,2.7,0.9
		c0.7,0.6,1.2,1.4,1.5,2.5h0.7l-0.2-4.1H164l-0.5,1.1c-0.8-0.5-1.5-0.8-2.1-1c-0.6-0.2-1.3-0.3-2-0.3c-1,0-2,0.1-2.8,0.5
		c-0.9,0.4-1.6,0.9-2.2,1.5c-0.6,0.6-1.1,1.4-1.4,2.3c-0.3,0.9-0.5,1.9-0.5,3c0,0,0,0,0,0h2.6c0-0.1,0-0.2,0-0.2
		C155.1,202.1,155.2,201.2,155.4,200.4z"/>
	
		<linearGradient id="SVGID_1_" gradientUnits="userSpaceOnUse" x1="158.6" y1="4.1794" x2="158.6" y2="18.3794" gradientTransform="matrix(1 0 0 -1 0 214.297)">
		<stop  offset="0" style="stop-color:#8F6E27"/>
		<stop  offset="0.5" style="stop-color:#FFEABF"/>
		<stop  offset="1" style="stop-color:#8F6E27"/>
	</linearGradient>
	<path class="st2" d="M155.4,200.4c0.2-0.8,0.5-1.5,0.9-2c0.4-0.5,0.9-0.9,1.5-1.2c0.6-0.3,1.3-0.4,2-0.4c1,0,1.9,0.3,2.7,0.9
		c0.7,0.6,1.2,1.4,1.5,2.5h0.7l-0.2-4.1H164l-0.5,1.1c-0.8-0.5-1.5-0.8-2.1-1c-0.6-0.2-1.3-0.3-2-0.3c-1,0-2,0.1-2.8,0.5
		c-0.9,0.4-1.6,0.9-2.2,1.5c-0.6,0.6-1.1,1.4-1.4,2.3c-0.3,0.9-0.5,1.9-0.5,3c0,0,0,0,0,0h2.6c0-0.1,0-0.2,0-0.2
		C155.1,202.1,155.2,201.2,155.4,200.4z"/>
	<path class="st1" d="M183,200.3c-0.4-0.9-0.9-1.7-1.6-2.3c-0.7-0.6-1.4-1.1-2.4-1.5c-1-0.4-1.9-0.6-3-0.6s-2.1,0.2-2.8,0.6
		c-0.9,0.3-1.7,0.9-2.4,1.5c-0.7,0.7-1.2,1.4-1.6,2.3c-0.4,0.8-0.6,1.8-0.6,2.8c0,0,0,0.1,0,0.1h2.3c0-0.1,0-0.1,0-0.1
		c0-1,0.2-1.8,0.4-2.6c0.2-0.8,0.6-1.5,1-2c0.4-0.6,1-1,1.6-1.3c0.6-0.3,1.3-0.4,2.1-0.4c0.7,0,1.5,0.1,2.1,0.4
		c0.6,0.3,1.2,0.8,1.6,1.3c0.4,0.6,0.7,1.2,1,2c0.3,0.8,0.4,1.6,0.4,2.6c0,0.1,0,0.1,0,0.1h2.5c0-0.1,0-0.1,0-0.1
		C183.6,202.1,183.4,201.2,183,200.3z"/>
	
		<linearGradient id="SVGID_00000124850295388669167340000008433069847963018393_" gradientUnits="userSpaceOnUse" x1="176.1" y1="4.2794" x2="176.1" y2="18.3794" gradientTransform="matrix(1 0 0 -1 0 214.297)">
		<stop  offset="0" style="stop-color:#8F6E27"/>
		<stop  offset="0.5" style="stop-color:#FFEABF"/>
		<stop  offset="1" style="stop-color:#8F6E27"/>
	</linearGradient>
	<path style="display:inline;fill:url(#SVGID_00000124850295388669167340000008433069847963018393_);" d="M183,200.3
		c-0.4-0.9-0.9-1.7-1.6-2.3c-0.7-0.6-1.4-1.1-2.4-1.5c-1-0.4-1.9-0.6-3-0.6s-2.1,0.2-2.8,0.6c-0.9,0.3-1.7,0.9-2.4,1.5
		c-0.7,0.7-1.2,1.4-1.6,2.3c-0.4,0.8-0.6,1.8-0.6,2.8c0,0,0,0.1,0,0.1h2.3c0-0.1,0-0.1,0-0.1c0-1,0.2-1.8,0.4-2.6
		c0.2-0.8,0.6-1.5,1-2c0.4-0.6,1-1,1.6-1.3c0.6-0.3,1.3-0.4,2.1-0.4c0.7,0,1.5,0.1,2.1,0.4c0.6,0.3,1.2,0.8,1.6,1.3
		c0.4,0.6,0.7,1.2,1,2c0.3,0.8,0.4,1.6,0.4,2.6c0,0.1,0,0.1,0,0.1h2.5c0-0.1,0-0.1,0-0.1C183.6,202.1,183.4,201.2,183,200.3z"/>
	<path class="st1" d="M198.6,198.2c0.1-0.6,0.2-0.9,0.4-1.2c0.2-0.2,0.4-0.3,0.6-0.4c0.2-0.1,0.5-0.1,0.9-0.1v-0.7h-5.2v0.7
		c0.3,0,0.7,0.1,0.9,0.1s0.4,0.1,0.6,0.3c0.3,0.3,0.4,0.6,0.5,1.2c0.1,0.5,0.1,1.3,0.1,2.4v2.8h1.1v-2.8
		C198.5,199.5,198.5,198.7,198.6,198.2z"/>
	
		<linearGradient id="SVGID_00000104679127684071736270000002705905452496765845_" gradientUnits="userSpaceOnUse" x1="197.9" y1="4.1794" x2="197.9" y2="18.4794" gradientTransform="matrix(1 0 0 -1 0 214.297)">
		<stop  offset="0" style="stop-color:#8F6E27"/>
		<stop  offset="0.5" style="stop-color:#FFEABF"/>
		<stop  offset="1" style="stop-color:#8F6E27"/>
	</linearGradient>
	<path style="display:inline;fill:url(#SVGID_00000104679127684071736270000002705905452496765845_);" d="M198.6,198.2
		c0.1-0.6,0.2-0.9,0.4-1.2c0.2-0.2,0.4-0.3,0.6-0.4c0.2-0.1,0.5-0.1,0.9-0.1v-0.7h-5.2v0.7c0.3,0,0.7,0.1,0.9,0.1s0.4,0.1,0.6,0.3
		c0.3,0.3,0.4,0.6,0.5,1.2c0.1,0.5,0.1,1.3,0.1,2.4v2.8h1.1v-2.8C198.5,199.5,198.5,198.7,198.6,198.2z"/>
	<path class="st1" d="M190.2,200c0-0.8,0.1-1.6,0.1-2c0-0.4,0.1-0.8,0.3-1c0.1-0.2,0.3-0.4,0.6-0.4c0.3-0.1,0.6-0.1,1-0.1v-0.7h-6.1
		v0.7c0.4,0,0.8,0,1,0.1c0.3,0,0.5,0.1,0.6,0.3c0.2,0.3,0.3,0.6,0.4,1.1c0.1,0.5,0.1,1.2,0.1,2.1v3.1h2V200z"/>
	
		<linearGradient id="SVGID_00000120536190826905946080000012473340207745443247_" gradientUnits="userSpaceOnUse" x1="189.15" y1="4.1794" x2="189.15" y2="18.4794" gradientTransform="matrix(1 0 0 -1 0 214.297)">
		<stop  offset="0" style="stop-color:#8F6E27"/>
		<stop  offset="0.5" style="stop-color:#FFEABF"/>
		<stop  offset="1" style="stop-color:#8F6E27"/>
	</linearGradient>
	<path style="display:inline;fill:url(#SVGID_00000120536190826905946080000012473340207745443247_);" d="M190.2,200
		c0-0.8,0.1-1.6,0.1-2c0-0.4,0.1-0.8,0.3-1c0.1-0.2,0.3-0.4,0.6-0.4c0.3-0.1,0.6-0.1,1-0.1v-0.7h-6.1v0.7c0.4,0,0.8,0,1,0.1
		c0.3,0,0.5,0.1,0.6,0.3c0.2,0.3,0.3,0.6,0.4,1.1c0.1,0.5,0.1,1.2,0.1,2.1v3.1h2V200z"/>
	<path class="st1" d="M213.6,201.9c0.6-0.6,0.9-1.4,0.9-2.4c0-1.1-0.5-1.9-1.3-2.4c-0.9-0.6-2.1-0.9-3.8-0.9h-5.7v0.7
		c0.3,0,0.7,0,0.9,0.1c0.2,0,0.3,0.2,0.5,0.3c0.2,0.1,0.3,0.3,0.3,0.6c0.1,0.2,0.1,0.6,0.1,1v4.3h5.3l0,0
		C212.1,203,213,202.5,213.6,201.9z M207.3,202.5v-5.3c0-0.2,0.1-0.3,0.3-0.3h1.7c1,0,1.7,0.2,2.2,0.6c0.5,0.4,0.7,1.1,0.7,2.1
		s-0.3,1.7-0.9,2.2c-0.6,0.5-1.5,0.7-2.7,0.7H207.3z"/>
	
		<linearGradient id="SVGID_00000177469887294129099550000018087055321989190576_" gradientUnits="userSpaceOnUse" x1="209.1" y1="4.2794" x2="209.1" y2="18.0794" gradientTransform="matrix(1 0 0 -1 0 214.297)">
		<stop  offset="0" style="stop-color:#8F6E27"/>
		<stop  offset="0.5" style="stop-color:#FFEABF"/>
		<stop  offset="1" style="stop-color:#8F6E27"/>
	</linearGradient>
	<path style="display:inline;fill:url(#SVGID_00000177469887294129099550000018087055321989190576_);" d="M213.6,201.9
		c0.6-0.6,0.9-1.4,0.9-2.4c0-1.1-0.5-1.9-1.3-2.4c-0.9-0.6-2.1-0.9-3.8-0.9h-5.7v0.7c0.3,0,0.7,0,0.9,0.1c0.2,0,0.3,0.2,0.5,0.3
		c0.2,0.1,0.3,0.3,0.3,0.6c0.1,0.2,0.1,0.6,0.1,1v4.3h5.3l0,0C212.1,203,213,202.5,213.6,201.9z M207.3,202.5v-5.3
		c0-0.2,0.1-0.3,0.3-0.3h1.7c1,0,1.7,0.2,2.2,0.6c0.5,0.4,0.7,1.1,0.7,2.1s-0.3,1.7-0.9,2.2c-0.6,0.5-1.5,0.7-2.7,0.7H207.3z"/>
	<path class="st1" d="M224.3,201.9c-0.5-0.3-1-0.5-1.3-0.7c-0.3-0.2-0.6-0.4-0.8-0.6s-0.4-0.5-0.5-0.7c-0.1-0.3-0.1-0.5-0.1-0.8
		c0-0.7,0.2-1.2,0.6-1.5c0.4-0.3,1-0.5,1.7-0.5c0.8,0,1.4,0.2,2,0.7c0.6,0.5,1,1.2,1.3,2.2h0.7l-0.2-3.6h-0.4l-0.5,0.8
		c-0.5-0.4-0.9-0.6-1.4-0.8s-1-0.3-1.5-0.3c-0.6,0-1.1,0.1-1.6,0.3s-0.9,0.5-1.3,0.8c-0.3,0.3-0.6,0.7-0.8,1.2
		c-0.2,0.4-0.3,0.9-0.3,1.5c0,0.5,0.1,0.9,0.2,1.3c0.1,0.3,0.3,0.7,0.6,1s0.7,0.6,1.2,0.9c0.1,0,0.2,0.1,0.3,0.1h4.8
		c-0.1-0.1-0.3-0.2-0.4-0.2C225.9,202.7,225.2,202.3,224.3,201.9z"/>
	
		<linearGradient id="SVGID_00000094613768150470871880000003743800972588043654_" gradientUnits="userSpaceOnUse" x1="223.9" y1="3.7794" x2="223.9" y2="18.1794" gradientTransform="matrix(1 0 0 -1 0 214.297)">
		<stop  offset="0" style="stop-color:#8F6E27"/>
		<stop  offset="0.5" style="stop-color:#FFEABF"/>
		<stop  offset="1" style="stop-color:#8F6E27"/>
	</linearGradient>
	<path style="display:inline;fill:url(#SVGID_00000094613768150470871880000003743800972588043654_);" d="M224.3,201.9
		c-0.5-0.3-1-0.5-1.3-0.7c-0.3-0.2-0.6-0.4-0.8-0.6s-0.4-0.5-0.5-0.7c-0.1-0.3-0.1-0.5-0.1-0.8c0-0.7,0.2-1.2,0.6-1.5
		c0.4-0.3,1-0.5,1.7-0.5c0.8,0,1.4,0.2,2,0.7c0.6,0.5,1,1.2,1.3,2.2h0.7l-0.2-3.6h-0.4l-0.5,0.8c-0.5-0.4-0.9-0.6-1.4-0.8
		s-1-0.3-1.5-0.3c-0.6,0-1.1,0.1-1.6,0.3s-0.9,0.5-1.3,0.8c-0.3,0.3-0.6,0.7-0.8,1.2c-0.2,0.4-0.3,0.9-0.3,1.5
		c0,0.5,0.1,0.9,0.2,1.3c0.1,0.3,0.3,0.7,0.6,1s0.7,0.6,1.2,0.9c0.1,0,0.2,0.1,0.3,0.1h4.8c-0.1-0.1-0.3-0.2-0.4-0.2
		C225.9,202.7,225.2,202.3,224.3,201.9z"/>
	<path class="st1" d="M239.4,200.3c0,0.3-0.1,0.6-0.2,0.9c-0.2,0.2-0.3,0.4-0.6,0.6c-0.2,0.2-0.6,0.3-1,0.4c-0.4,0.1-1,0.1-1.6,0.1
		h-0.1v-5.1c0-0.2,0.1-0.3,0.3-0.3h2.3c0.6,0,1.2,0,1.6,0.1c0.5,0.1,0.8,0.2,1.1,0.4s0.5,0.4,0.7,0.7c0.2,0.3,0.3,0.7,0.4,1.2h0.6
		l-0.2-3.2h-10.4v0.7c0.3,0,0.7,0,0.9,0.1c0.2,0,0.3,0.2,0.5,0.3c0.2,0.1,0.3,0.3,0.3,0.6c0.1,0.2,0.1,0.6,0.1,1v4.4h1.9v-0.1
		c0.7,0,1.3,0,1.7,0.1c0.1,0,0.1,0,0.2,0h2.1v-2.9H239.4z"/>
	
		<linearGradient id="SVGID_00000085972890494876775540000001883619179354801061_" gradientUnits="userSpaceOnUse" x1="237.6" y1="4.3794" x2="237.6" y2="18.1794" gradientTransform="matrix(1 0 0 -1 0 214.297)">
		<stop  offset="0" style="stop-color:#8F6E27"/>
		<stop  offset="0.5" style="stop-color:#FFEABF"/>
		<stop  offset="1" style="stop-color:#8F6E27"/>
	</linearGradient>
	<path style="display:inline;fill:url(#SVGID_00000085972890494876775540000001883619179354801061_);" d="M239.4,200.3
		c0,0.3-0.1,0.6-0.2,0.9c-0.2,0.2-0.3,0.4-0.6,0.6c-0.2,0.2-0.6,0.3-1,0.4c-0.4,0.1-1,0.1-1.6,0.1h-0.1v-5.1c0-0.2,0.1-0.3,0.3-0.3
		h2.3c0.6,0,1.2,0,1.6,0.1c0.5,0.1,0.8,0.2,1.1,0.4s0.5,0.4,0.7,0.7c0.2,0.3,0.3,0.7,0.4,1.2h0.6l-0.2-3.2h-10.4v0.7
		c0.3,0,0.7,0,0.9,0.1c0.2,0,0.3,0.2,0.5,0.3c0.2,0.1,0.3,0.3,0.3,0.6c0.1,0.2,0.1,0.6,0.1,1v4.4h1.9v-0.1c0.7,0,1.3,0,1.7,0.1
		c0.1,0,0.1,0,0.2,0h2.1v-2.9H239.4z"/>
	<polygon class="st1" points="194.7,188 197.8,186.4 200.9,188 200.3,184.6 202.8,182.1 199.3,181.6 197.8,178.5 196.2,181.6 
		192.8,182.1 195.3,184.6 	"/>
	
		<linearGradient id="SVGID_00000157284003203889313310000002629356920426858421_" gradientUnits="userSpaceOnUse" x1="197.8" y1="26.2795" x2="197.8" y2="35.7795" gradientTransform="matrix(1 0 0 -1 0 214.297)">
		<stop  offset="0" style="stop-color:#8F6E27"/>
		<stop  offset="0.5" style="stop-color:#FFEABF"/>
		<stop  offset="1" style="stop-color:#8F6E27"/>
	</linearGradient>
	<polygon style="display:inline;fill:url(#SVGID_00000157284003203889313310000002629356920426858421_);" points="194.7,188 
		197.8,186.4 200.9,188 200.3,184.6 202.8,182.1 199.3,181.6 197.8,178.5 196.2,181.6 192.8,182.1 195.3,184.6 	"/>
	<polygon class="st1" points="207.9,188 209.8,187 211.6,188 211.3,185.9 212.8,184.5 210.7,184.2 209.8,182.3 208.9,184.2 
		206.8,184.5 208.3,185.9 	"/>
	
		<linearGradient id="SVGID_00000132050182129045836390000003183449761743781808_" gradientUnits="userSpaceOnUse" x1="209.8" y1="26.2795" x2="209.8" y2="31.9794" gradientTransform="matrix(1 0 0 -1 0 214.297)">
		<stop  offset="0" style="stop-color:#8F6E27"/>
		<stop  offset="0.5" style="stop-color:#FFEABF"/>
		<stop  offset="1" style="stop-color:#8F6E27"/>
	</linearGradient>
	<polygon style="display:inline;fill:url(#SVGID_00000132050182129045836390000003183449761743781808_);" points="207.9,188 
		209.8,187 211.6,188 211.3,185.9 212.8,184.5 210.7,184.2 209.8,182.3 208.9,184.2 206.8,184.5 208.3,185.9 	"/>
	<polygon class="st1" points="217.5,188 218.8,187.4 220,188 219.8,186.6 220.8,185.7 219.4,185.5 218.8,184.2 218.2,185.5 
		216.8,185.7 217.8,186.6 	"/>
	
		<linearGradient id="SVGID_00000013915788274354754460000015088700015645057695_" gradientUnits="userSpaceOnUse" x1="218.8" y1="26.2795" x2="218.8" y2="30.0795" gradientTransform="matrix(1 0 0 -1 0 214.297)">
		<stop  offset="0" style="stop-color:#8F6E27"/>
		<stop  offset="0.5" style="stop-color:#FFEABF"/>
		<stop  offset="1" style="stop-color:#8F6E27"/>
	</linearGradient>
	<polygon style="display:inline;fill:url(#SVGID_00000013915788274354754460000015088700015645057695_);" points="217.5,188 
		218.8,187.4 220,188 219.8,186.6 220.8,185.7 219.4,185.5 218.8,184.2 218.2,185.5 216.8,185.7 217.8,186.6 	"/>
	<polygon class="st1" points="183.9,188 185.8,187 187.6,188 187.3,185.9 188.8,184.5 186.7,184.2 185.8,182.3 184.9,184.2 
		182.8,184.5 184.3,185.9 	"/>
	
		<linearGradient id="SVGID_00000106109742121815734570000008974221708033247903_" gradientUnits="userSpaceOnUse" x1="185.8" y1="26.2795" x2="185.8" y2="31.9794" gradientTransform="matrix(1 0 0 -1 0 214.297)">
		<stop  offset="0" style="stop-color:#8F6E27"/>
		<stop  offset="0.5" style="stop-color:#FFEABF"/>
		<stop  offset="1" style="stop-color:#8F6E27"/>
	</linearGradient>
	<polygon style="display:inline;fill:url(#SVGID_00000106109742121815734570000008974221708033247903_);" points="183.9,188 
		185.8,187 187.6,188 187.3,185.9 188.8,184.5 186.7,184.2 185.8,182.3 184.9,184.2 182.8,184.5 184.3,185.9 	"/>
	<polygon class="st1" points="175.5,188 176.8,187.4 178,188 177.8,186.6 178.8,185.7 177.4,185.5 176.8,184.2 176.2,185.5 
		174.8,185.7 175.8,186.6 	"/>
	
		<linearGradient id="SVGID_00000152956433858898717240000010425769326118918045_" gradientUnits="userSpaceOnUse" x1="176.8" y1="26.2795" x2="176.8" y2="30.0795" gradientTransform="matrix(1 0 0 -1 0 214.297)">
		<stop  offset="0" style="stop-color:#8F6E27"/>
		<stop  offset="0.5" style="stop-color:#FFEABF"/>
		<stop  offset="1" style="stop-color:#8F6E27"/>
	</linearGradient>
	<polygon style="display:inline;fill:url(#SVGID_00000152956433858898717240000010425769326118918045_);" points="175.5,188 
		176.8,187.4 178,188 177.8,186.6 178.8,185.7 177.4,185.5 176.8,184.2 176.2,185.5 174.8,185.7 175.8,186.6 	"/>
	<path class="st1" d="M256.2,202.6c1.5-1.5,3.2-3.1,3.1-5.6c-0.3-2.9-2.5-3.9-3.9-3.9c-0.3,0-0.6,0.2-0.7,0.4
		c-0.1,0.1-0.1,0.2-0.1,0.3c0,0.1,0,0.2,0,0.3c0.1,0.1,0.1,0.1,0.1,0.2c0,0.1,0.1,0.1,0.1,0.2c0.1,0.1,0.3,0.2,0.5,0.2
		c-0.1-0.1-0.1-0.4,0-0.6c0.1-0.2,0.3-0.4,0.6-0.5c0.4-0.1,0.8,0,1.2,0.3c0.6,0.6,1.2,1.8,0.9,3.5c-0.2,0.6-0.7,1.5-1.4,2.6
		c-0.2,0.2-0.4,0.5-0.6,0.8c-0.5,0.8-1.1,1.6-1.6,2.4c0,0,0,0,0,0h0.4c0.3-0.4,0.6-0.8,1-1.1c2.4-2.8,2.7-4.5,2.7-4.5
		c0.1-0.1,0.1-0.1,0.2-0.1c0.1,0,0.1,0,0.1,0.1c0,0.1-0.3,1.8-2.8,4.6c-0.3,0.4-0.6,0.7-0.9,1h0.6c0.1-0.2,0.3-0.3,0.4-0.4
		L256.2,202.6z"/>
	
		<linearGradient id="SVGID_00000119809460044813401380000006082045077331198910_" gradientUnits="userSpaceOnUse" x1="256.8374" y1="1.3028" x2="256.8374" y2="21.1794" gradientTransform="matrix(1 0 0 -1 0 214.297)">
		<stop  offset="0" style="stop-color:#8F6E27"/>
		<stop  offset="0.5" style="stop-color:#FFEABF"/>
		<stop  offset="1" style="stop-color:#8F6E27"/>
	</linearGradient>
	<path style="display:inline;fill:url(#SVGID_00000119809460044813401380000006082045077331198910_);" d="M256.2,202.6
		c1.5-1.5,3.2-3.1,3.1-5.6c-0.3-2.9-2.5-3.9-3.9-3.9c-0.3,0-0.6,0.2-0.7,0.4c-0.1,0.1-0.1,0.2-0.1,0.3c0,0.1,0,0.2,0,0.3
		c0.1,0.1,0.1,0.1,0.1,0.2c0,0.1,0.1,0.1,0.1,0.2c0.1,0.1,0.3,0.2,0.5,0.2c-0.1-0.1-0.1-0.4,0-0.6c0.1-0.2,0.3-0.4,0.6-0.5
		c0.4-0.1,0.8,0,1.2,0.3c0.6,0.6,1.2,1.8,0.9,3.5c-0.2,0.6-0.7,1.5-1.4,2.6c-0.2,0.2-0.4,0.5-0.6,0.8c-0.5,0.8-1.1,1.6-1.6,2.4
		c0,0,0,0,0,0h0.4c0.3-0.4,0.6-0.8,1-1.1c2.4-2.8,2.7-4.5,2.7-4.5c0.1-0.1,0.1-0.1,0.2-0.1c0.1,0,0.1,0,0.1,0.1
		c0,0.1-0.3,1.8-2.8,4.6c-0.3,0.4-0.6,0.7-0.9,1h0.6c0.1-0.2,0.3-0.3,0.4-0.4L256.2,202.6z"/>
	<path class="st1" d="M255.9,203.3h0.4c0-0.1-0.1-0.2-0.1-0.3C256.1,203,256,203.1,255.9,203.3z"/>
	
		<linearGradient id="SVGID_00000182530336521562456630000009688594649231679385_" gradientUnits="userSpaceOnUse" x1="256.0689" y1="1.3028" x2="256.0689" y2="21.1794" gradientTransform="matrix(1 0 0 -1 0 214.297)">
		<stop  offset="0" style="stop-color:#8F6E27"/>
		<stop  offset="0.5" style="stop-color:#FFEABF"/>
		<stop  offset="1" style="stop-color:#8F6E27"/>
	</linearGradient>
	<path style="display:inline;fill:url(#SVGID_00000182530336521562456630000009688594649231679385_);" d="M255.9,203.3h0.4
		c0-0.1-0.1-0.2-0.1-0.3C256.1,203,256,203.1,255.9,203.3z"/>
	<path class="st1" d="M253.6,201c-0.2-0.4-0.4-0.6-0.8-0.6c-0.2-0.1-0.4,0.1-0.6,0.3c0.2,0,0.4,0.1,0.6,0.3c0.4,0.4,0.4,1.2,0.1,2.2
		h0.3c0.3-0.7,0.6-1.2,0.6-1.8C253.7,201.4,253.7,201.2,253.6,201z"/>
	
		<linearGradient id="SVGID_00000008119544617605264660000008799072495002043823_" gradientUnits="userSpaceOnUse" x1="253" y1="1.3028" x2="253" y2="21.1794" gradientTransform="matrix(1 0 0 -1 0 214.297)">
		<stop  offset="0" style="stop-color:#8F6E27"/>
		<stop  offset="0.5" style="stop-color:#FFEABF"/>
		<stop  offset="1" style="stop-color:#8F6E27"/>
	</linearGradient>
	<path style="display:inline;fill:url(#SVGID_00000008119544617605264660000008799072495002043823_);" d="M253.6,201
		c-0.2-0.4-0.4-0.6-0.8-0.6c-0.2-0.1-0.4,0.1-0.6,0.3c0.2,0,0.4,0.1,0.6,0.3c0.4,0.4,0.4,1.2,0.1,2.2h0.3c0.3-0.7,0.6-1.2,0.6-1.8
		C253.7,201.4,253.7,201.2,253.6,201z"/>
	<path class="st1" d="M254,202.2c-0.1,0.3-0.2,0.7-0.4,1h0.4c0.1-0.1,0.1-0.2,0.2-0.3C254.1,202.8,254.1,202.6,254,202.2z"/>
	
		<linearGradient id="SVGID_00000182489914197567698060000015131745352229878193_" gradientUnits="userSpaceOnUse" x1="253.8904" y1="1.3028" x2="253.8904" y2="21.1794" gradientTransform="matrix(1 0 0 -1 0 214.297)">
		<stop  offset="0" style="stop-color:#8F6E27"/>
		<stop  offset="0.5" style="stop-color:#FFEABF"/>
		<stop  offset="1" style="stop-color:#8F6E27"/>
	</linearGradient>
	<path style="display:inline;fill:url(#SVGID_00000182489914197567698060000015131745352229878193_);" d="M254,202.2
		c-0.1,0.3-0.2,0.7-0.4,1h0.4c0.1-0.1,0.1-0.2,0.2-0.3C254.1,202.8,254.1,202.6,254,202.2z"/>
	<path class="st1" d="M256.4,202.6c0.1,0.2,0.1,0.4,0.1,0.6h0.7c-0.1-0.4-0.2-0.9-0.4-1.1C256.8,202.3,256.6,202.4,256.4,202.6z"/>
	
		<linearGradient id="SVGID_00000036213263922885969650000015301703945987272329_" gradientUnits="userSpaceOnUse" x1="256.8278" y1="1.3028" x2="256.8278" y2="21.1794" gradientTransform="matrix(1 0 0 -1 0 214.297)">
		<stop  offset="0" style="stop-color:#8F6E27"/>
		<stop  offset="0.5" style="stop-color:#FFEABF"/>
		<stop  offset="1" style="stop-color:#8F6E27"/>
	</linearGradient>
	<path style="display:inline;fill:url(#SVGID_00000036213263922885969650000015301703945987272329_);" d="M256.4,202.6
		c0.1,0.2,0.1,0.4,0.1,0.6h0.7c-0.1-0.4-0.2-0.9-0.4-1.1C256.8,202.3,256.6,202.4,256.4,202.6z"/>
	<path class="st1" d="M140.4,200.6c-0.2-0.3-0.4-0.5-0.6-0.8c-0.7-1-1.3-1.9-1.4-2.6c-0.3-1.7,0.3-2.9,0.9-3.5
		c0.4-0.3,0.8-0.4,1.2-0.3c0.3,0.1,0.5,0.3,0.6,0.5c0.1,0.2,0,0.4,0,0.6c0.2,0,0.3-0.1,0.5-0.2c0-0.1,0.1-0.1,0.1-0.2
		c0.1-0.1,0.1-0.1,0.1-0.2s0-0.2,0-0.3c0-0.1-0.1-0.2-0.1-0.3c-0.1-0.3-0.4-0.4-0.7-0.4c-1.4,0-3.6,1.1-3.9,3.9
		c-0.2,2.7,1.5,4.3,3,5.8l0.1,0.1c0.2,0.2,0.4,0.4,0.5,0.5h0.5c-0.3-0.4-0.6-0.8-1-1.1c-2.5-2.8-2.8-4.5-2.8-4.6c0,0,0-0.1,0.1-0.1
		c0.1,0,0.2,0,0.2,0.1c0,0,0.3,1.7,2.9,4.4c0.4,0.5,0.8,0.9,1.1,1.3h0.3c0-0.1-0.1-0.2-0.1-0.2C141.5,202.2,140.9,201.4,140.4,200.6
		z"/>
	
		<linearGradient id="SVGID_00000135672582611544224380000014261150967275092893_" gradientUnits="userSpaceOnUse" x1="139.6143" y1="1.301" x2="139.6143" y2="21.3794" gradientTransform="matrix(1 0 0 -1 0 214.297)">
		<stop  offset="0" style="stop-color:#8F6E27"/>
		<stop  offset="0.5" style="stop-color:#FFEABF"/>
		<stop  offset="1" style="stop-color:#8F6E27"/>
	</linearGradient>
	<path style="display:inline;fill:url(#SVGID_00000135672582611544224380000014261150967275092893_);" d="M140.4,200.6
		c-0.2-0.3-0.4-0.5-0.6-0.8c-0.7-1-1.3-1.9-1.4-2.6c-0.3-1.7,0.3-2.9,0.9-3.5c0.4-0.3,0.8-0.4,1.2-0.3c0.3,0.1,0.5,0.3,0.6,0.5
		c0.1,0.2,0,0.4,0,0.6c0.2,0,0.3-0.1,0.5-0.2c0-0.1,0.1-0.1,0.1-0.2c0.1-0.1,0.1-0.1,0.1-0.2s0-0.2,0-0.3c0-0.1-0.1-0.2-0.1-0.3
		c-0.1-0.3-0.4-0.4-0.7-0.4c-1.4,0-3.6,1.1-3.9,3.9c-0.2,2.7,1.5,4.3,3,5.8l0.1,0.1c0.2,0.2,0.4,0.4,0.5,0.5h0.5
		c-0.3-0.4-0.6-0.8-1-1.1c-2.5-2.8-2.8-4.5-2.8-4.6c0,0,0-0.1,0.1-0.1c0.1,0,0.2,0,0.2,0.1c0,0,0.3,1.7,2.9,4.4
		c0.4,0.5,0.8,0.9,1.1,1.3h0.3c0-0.1-0.1-0.2-0.1-0.2C141.5,202.2,140.9,201.4,140.4,200.6z"/>
	<path class="st1" d="M140,203.3h0.4c-0.1-0.1-0.2-0.2-0.3-0.3C140.1,203,140,203.1,140,203.3z"/>
	
		<linearGradient id="SVGID_00000074436827292600665460000008749524496792737169_" gradientUnits="userSpaceOnUse" x1="140.2311" y1="1.301" x2="140.2311" y2="21.3794" gradientTransform="matrix(1 0 0 -1 0 214.297)">
		<stop  offset="0" style="stop-color:#8F6E27"/>
		<stop  offset="0.5" style="stop-color:#FFEABF"/>
		<stop  offset="1" style="stop-color:#8F6E27"/>
	</linearGradient>
	<path style="display:inline;fill:url(#SVGID_00000074436827292600665460000008749524496792737169_);" d="M140,203.3h0.4
		c-0.1-0.1-0.2-0.2-0.3-0.3C140.1,203,140,203.1,140,203.3z"/>
	<path class="st1" d="M143.3,201c0.2-0.2,0.4-0.3,0.6-0.3c-0.2-0.2-0.4-0.3-0.6-0.3s-0.4,0.2-0.8,0.6c-0.1,0.2-0.2,0.3-0.2,0.5
		c0,0.5,0.3,1.1,0.6,1.8h0.4C143,202.2,143,201.4,143.3,201z"/>
	
		<linearGradient id="SVGID_00000016034768744644925750000003461984500064019358_" gradientUnits="userSpaceOnUse" x1="143.1" y1="1.301" x2="143.1" y2="21.3794" gradientTransform="matrix(1 0 0 -1 0 214.297)">
		<stop  offset="0" style="stop-color:#8F6E27"/>
		<stop  offset="0.5" style="stop-color:#FFEABF"/>
		<stop  offset="1" style="stop-color:#8F6E27"/>
	</linearGradient>
	<path style="display:inline;fill:url(#SVGID_00000016034768744644925750000003461984500064019358_);" d="M143.3,201
		c0.2-0.2,0.4-0.3,0.6-0.3c-0.2-0.2-0.4-0.3-0.6-0.3s-0.4,0.2-0.8,0.6c-0.1,0.2-0.2,0.3-0.2,0.5c0,0.5,0.3,1.1,0.6,1.8h0.4
		C143,202.2,143,201.4,143.3,201z"/>
	<path class="st1" d="M142.1,202.9c0.1,0.1,0.1,0.2,0.2,0.3h0.4c-0.2-0.4-0.4-0.7-0.4-1C142.2,202.6,142.1,202.8,142.1,202.9z"/>
	
		<linearGradient id="SVGID_00000029735892809827454240000013728776977718222987_" gradientUnits="userSpaceOnUse" x1="142.4096" y1="1.301" x2="142.4096" y2="21.3794" gradientTransform="matrix(1 0 0 -1 0 214.297)">
		<stop  offset="0" style="stop-color:#8F6E27"/>
		<stop  offset="0.5" style="stop-color:#FFEABF"/>
		<stop  offset="1" style="stop-color:#8F6E27"/>
	</linearGradient>
	<path style="display:inline;fill:url(#SVGID_00000029735892809827454240000013728776977718222987_);" d="M142.1,202.9
		c0.1,0.1,0.1,0.2,0.2,0.3h0.4c-0.2-0.4-0.4-0.7-0.4-1C142.2,202.6,142.1,202.8,142.1,202.9z"/>
	<path class="st1" d="M139.3,202.2c-0.1,0.2-0.2,0.7-0.3,1h0.7c0-0.2,0.1-0.4,0.1-0.5C139.7,202.5,139.5,202.4,139.3,202.2z"/>
	
		<linearGradient id="SVGID_00000152963691056386027180000017766572815747090068_" gradientUnits="userSpaceOnUse" x1="139.4067" y1="1.301" x2="139.4067" y2="21.3794" gradientTransform="matrix(1 0 0 -1 0 214.297)">
		<stop  offset="0" style="stop-color:#8F6E27"/>
		<stop  offset="0.5" style="stop-color:#FFEABF"/>
		<stop  offset="1" style="stop-color:#8F6E27"/>
	</linearGradient>
	<path style="display:inline;fill:url(#SVGID_00000152963691056386027180000017766572815747090068_);" d="M139.3,202.2
		c-0.1,0.2-0.2,0.7-0.3,1h0.7c0-0.2,0.1-0.4,0.1-0.5C139.7,202.5,139.5,202.4,139.3,202.2z"/>
</g>
<g id="レイヤー_1_00000011032380638173691930000005909821897541872002_">
</g>
<g>
	<path class="st24" d="M129.2,0.3c-0.2,0.1-0.4,0.1-0.7,0.2c0-0.1,0-0.3-0.1-0.5h-0.3c0.1,0.3,0.1,0.6,0.1,0.8
		c-0.5,0.3-1,0.6-1.4,1.1c0-0.2-0.1-0.5-0.1-0.8c0.3-0.4,0.6-0.7,1-1h-0.3c-1.6,1.6-3.1,4-3.1,6c-0.1-0.7,0-1.4,0.1-2.1
		c0,0,0.6-1.7,2.4-4h-0.3c-0.7,0.8-1.2,1.6-1.5,2.2c0.3-0.8,0.7-1.5,1.2-2.2h-0.4c-0.7,1.2-1.3,2.5-1.6,3.8c0,0,0,0,0,0.1
		c-0.2,0.7-0.2,1.4-0.2,2c-0.1-0.9-0.1-1.8,0-2.5c0.1-1,0.6-2,1.1-2.8c0.1-0.2,0.2-0.4,0.3-0.5h-0.4c-0.1,0.1-0.1,0.2-0.2,0.3
		c-0.2,0.4-0.4,0.7-0.6,1.1c0.1-0.2,0.1-0.5,0.2-0.7c0.1-0.3,0.2-0.5,0.3-0.8h-12.9v2h-0.6c0-0.4-0.1-0.7-0.2-0.9
		c-0.1-0.3-0.3-0.5-0.5-0.7c-0.2-0.2-0.5-0.3-0.8-0.3h-1.9v3.9c0,0.4,0,0.7,0.1,1c0.1,0.3,0.3,0.5,0.5,0.6c0.2,0.2,0.5,0.3,0.9,0.3
		c0.4,0.1,0.9,0.1,1.4,0.1c0.6,0,1.2,0,1.6-0.1s0.8-0.2,1.1-0.5c0.3-0.2,0.5-0.5,0.7-0.9c0.2-0.4,0.3-0.8,0.5-1.3h0.7l-0.3,3.5H104
		V5.9c0.4,0,0.8,0,1-0.1c0.3-0.1,0.5-0.2,0.6-0.3c0.1-0.1,0.2-0.3,0.3-0.6c0.1-0.3,0.1-0.6,0.1-1V0h-7.2c0.4,0.3,0.7,0.5,1,0.8
		c0.3,0.3,0.6,0.7,0.7,1.1c0.1,0.4,0.2,0.8,0.2,1.3c0,0.6-0.1,1.2-0.4,1.7c-0.2,0.5-0.6,0.9-1,1.3c-0.4,0.4-0.9,0.6-1.5,0.8
		c-0.6,0.2-1.3,0.3-2,0.3c-0.7,0-1.3-0.1-1.8-0.3c-0.5-0.2-1.1-0.5-1.7-1l-0.5,0.9h-0.4l-0.2-4.4h0.7C92,3,92.1,3.5,92.4,4
		c0.2,0.4,0.5,0.8,0.9,1.1c0.4,0.3,0.8,0.5,1.2,0.7C94.9,6,95.5,6,96,6c0.9,0,1.6-0.2,2.1-0.6c0.5-0.4,0.8-1,0.8-1.7
		c0-0.3-0.1-0.6-0.2-0.8c-0.1-0.3-0.3-0.5-0.5-0.7c-0.2-0.2-0.6-0.5-1-0.7c-0.4-0.2-0.9-0.5-1.5-0.7c-0.6-0.2-1.2-0.5-1.6-0.8H82.7
		l4,4.8c0.3,0.4,0.7,0.7,1.1,0.9C88.2,5.8,88.7,6,89.2,6v0.7h-3.5L81.3,1c-0.2-0.2-0.3-0.4-0.4-0.5c-0.1-0.1-0.3-0.2-0.4-0.3
		c-0.2-0.1-0.3-0.1-0.5-0.1s-0.4,0-0.7,0v3.7c0,0.4,0,0.8,0.1,1.1c0.1,0.3,0.2,0.5,0.3,0.7C79.8,5.8,80.1,6,80.5,6
		C80.8,6,81.3,6,81.8,6v0.7h-6.4V6c0.4,0,0.8,0,1-0.1c0.3-0.1,0.5-0.2,0.6-0.3c0.1-0.1,0.2-0.3,0.3-0.6c0.1-0.3,0.1-0.6,0.1-1V0h-7
		v1h0.2c0,0.9-0.1,1.8-0.3,2.5c-0.2,0.7-0.5,1.3-0.9,1.8c-0.4,0.5-1,0.8-1.6,1.1c-0.7,0.2-1.5,0.4-2.4,0.4c-0.9,0-1.7-0.1-2.3-0.3
		c-0.7-0.2-1.2-0.5-1.7-0.9c-0.4-0.4-0.8-0.9-1-1.6c-0.2-0.6-0.3-1.4-0.3-2.4V0h-4.6c0,0.9-0.2,1.8-0.6,2.5
		c-0.4,0.8-0.9,1.6-1.6,2.2c-0.7,0.6-1.5,1.1-2.4,1.5C50,6.6,49,6.8,48,6.8s-2-0.2-2.9-0.5c-0.9-0.4-1.7-0.9-2.4-1.5
		c-0.7-0.6-1.2-1.4-1.6-2.2c-0.4-0.8-0.6-1.7-0.6-2.5H27c0,1.8,0.4,3.2,1.2,4.2c0.8,1,2,1.6,3.5,1.6c2.3,0,3.8-1.2,4.5-3.7h0.7v4.5
		h-0.6l-0.5-1.4c-1.3,1.1-2.8,1.6-4.6,1.6c-1,0-1.9-0.2-2.8-0.5c-0.8-0.3-1.5-0.8-2.1-1.4c-0.6-0.6-1-1.3-1.4-2.2
		C24.6,1.9,24.4,1,24.4,0h-9.2c0.1,0.2,0.1,0.5,0.2,0.8c0.1,0.2,0.2,0.5,0.2,0.7C15.4,1,15.2,0.6,15,0.3c-0.1-0.1-0.1-0.2-0.2-0.3
		h-0.2c0.1,0.2,0.2,0.4,0.3,0.5c0.4,0.9,1,1.8,1.1,2.8c0.1,0.7,0.1,1.6,0,2.5c0.1-0.7,0-1.3-0.2-2c0,0,0,0,0-0.1
		c-0.3-1.3-0.9-2.5-1.6-3.8H14c0.4,0.6,0.8,1.3,1.1,2c-0.3-0.6-0.8-1.3-1.4-2h-0.6c1.7,2.2,2.3,3.8,2.3,3.8c0.2,0.7,0.2,1.4,0.1,2.1
		c0.1-2.1-1.4-4.3-3-5.9h-0.3c0.3,0.3,0.7,0.7,1,1c-0.1,0.3-0.1,0.6-0.1,0.8c-0.5-0.5-1-0.8-1.4-1.1c0-0.1,0.1-0.4,0.1-0.8h-0.3
		c0,0.2-0.1,0.5-0.1,0.6c-0.2-0.1-0.5-0.2-0.7-0.2c0-0.1,0.1-0.3,0.1-0.5H0v32.8h140V0h-10.8C129.2,0.1,129.2,0.3,129.2,0.3z
		 M8.6,3.4C8.1,3.2,7.9,2.8,8,1.8c0.1-0.7,0.6-1.2,1.3-1.3c1.1-0.2,2.7,0.3,3.9,1.9C13,2.2,12.9,2.1,12.6,2
		c-0.5-0.3-0.9-0.4-1.3-0.5c-0.9-0.2-1.7,0.1-2.1,0.6C9,2.3,9,2.5,9,2.8C9,3,9.2,3.2,9.3,3.3C9.1,3.4,8.8,3.5,8.6,3.4z M11.5,1.8
		c0.3,0.1,0.7,0.2,1.1,0.5c0.2,0.1,0.3,0.2,0.4,0.3c-0.2,0.9-0.2,1.5-0.2,1.8c-0.5-0.3-1.1-0.3-1.7-0.2C11.1,3.6,11.4,2.3,11.5,1.8z
		 M10.8,4.2c-0.2,0.1-0.5,0.2-0.7,0.3c0.2-0.8,0.5-2.3,0.6-2.8c0.2,0,0.4,0,0.6,0C11.1,2.2,10.9,3.8,10.8,4.2z M15.3,6.6
		c-0.5,2.4-2.2,2.9-2.4,3c-0.9,0.2-1.8,0-2.5-0.4C9.6,8.8,9.2,7.8,9.1,6.8c0-0.3,0.1-0.7,0.4-0.9c0.7-0.6,1.4-0.8,2-0.8
		c0.5,0,0.9,0.3,1.1,0.6c0.4,0.5,0.2,1.1,0,1.3C12.5,7,12.4,7.1,12.2,7C12.1,6.9,12,6.8,12,6.8c0-0.2,0.2-0.5,0.2-0.6V6
		c0,0,0-0.1-0.1-0.1c-0.6-0.3-1.2-0.2-1.6,0.2c-0.4,0.4-0.6,1-0.4,1.6c0.2,0.5,0.6,0.8,1.2,0.8c1.1,0.1,1.7-0.4,1.9-0.7
		c0.7-0.7,0.7-1.6,0.4-2.6c-0.1-0.3-0.3-0.5-0.5-0.7c0-0.2,0-0.7,0.2-1.7c0.9,1,1.2,2.5,1.2,2.5c0.3,2.1-1,3.2-1,3.3
		c-0.1,0.1-0.1,0.1,0,0.2c0.1,0.1,0.1,0.1,0.2,0c0,0,1.4-1.3,1.1-3.5c0,0,0,0,0-0.1C14.7,4.5,14.5,3.8,14,3
		c-0.2-0.3-0.4-0.7-0.6-0.9c0-0.1,0.1-0.4,0.1-0.8C14.7,2.9,15.7,4.9,15.3,6.6z M49.3,17.8L48.7,19l-0.6-1.2l-1.4-0.2l1-1l-0.3-1.4
		l1.3,0.6l1.2-0.6l-0.2,1.4l1,1L49.3,17.8z M58.6,19L57.7,21L56.8,19l-2.1-0.3l1.5-1.4l-0.4-2.1l1.9,1l1.8-1l-0.3,2.1l1.5,1.4
		L58.6,19z M71.2,21.6l-1.5,3.1l-1.6-3.1l-3.4-0.5l2.5-2.5l-0.6-3.4l3.1,1.6l3.1-1.6l-0.6,3.4l2.5,2.5L71.2,21.6z M82.6,19L81.7,21
		L80.8,19l-2.1-0.3l1.5-1.4l-0.4-2.1l1.9,1l1.8-1l-0.3,2.1l1.5,1.4L82.6,19z M91.3,17.8L90.7,19l-0.6-1.2l-1.4-0.2l1-1l-0.3-1.4
		l1.3,0.6l1.2-0.6l-0.2,1.4l1,1L91.3,17.8z M129.3,9.1c-0.4,0.5-1.2,0.7-2.2,0.5c-0.2,0-1.9-0.5-2.4-3c-0.4-1.7,0.6-3.7,1.8-5.3
		c0.1,0.3,0.1,0.6,0.1,0.8c-0.2,0.3-0.4,0.6-0.6,0.9c-0.4,0.8-0.7,1.5-0.8,2.2c0,0,0,0,0,0.1c-0.3,2.3,1.1,3.5,1.1,3.5
		c0.1,0.1,0.1,0,0.2,0c0.1-0.1,0-0.1,0-0.2c-0.1-0.1-1.3-1.2-1-3.3c0,0,0.3-1.5,1.2-2.5c0.2,1,0.2,1.5,0.2,1.7
		c-0.2,0.2-0.4,0.4-0.5,0.7c-0.4,1-0.3,1.9,0.1,2.5c0.3,0.4,0.8,0.8,1.9,0.7c0.6,0,1-0.3,1.2-0.8c0.2-0.5,0-1.2-0.4-1.6
		c-0.4-0.4-1-0.5-1.6-0.2L127.5,6V6c0.1,0.1,0.3,0.4,0.2,0.6c0,0.1-0.1,0.2-0.2,0.3c-0.2,0.1-0.3,0-0.4-0.1c-0.2-0.3-0.4-0.9,0-1.3
		c0.2-0.2,0.5-0.5,1.1-0.6c0.6-0.1,1.3,0.2,2,0.8c0.3,0.2,0.4,0.5,0.4,0.9C130.6,7.8,130.1,8.6,129.3,9.1z M129,4.2
		c-0.6-0.1-1.3-0.1-1.7,0.2c0-0.3-0.1-0.8-0.2-1.8c0.1-0.1,0.3-0.2,0.4-0.3c0.4-0.2,0.8-0.4,1.1-0.5C128.7,2.2,128.9,3.6,129,4.2z
		 M128.8,1.8c0.2,0,0.4,0,0.6,0c0.1,0.5,0.4,2,0.5,2.8c-0.2-0.1-0.5-0.2-0.7-0.3C129.2,3.6,128.9,2.2,128.8,1.8z M130.7,0.5
		c0.8,0.2,1.3,0.7,1.3,1.3c0.1,0.8-0.1,1.4-0.6,1.5c-0.3,0.1-0.6,0-0.7-0.1c0.1-0.1,0.3-0.3,0.3-0.5s0-0.4-0.2-0.6
		c-0.3-0.5-1.1-0.8-2.1-0.6c-0.4,0.1-0.9,0.3-1.3,0.5c-0.2,0.1-0.4,0.3-0.6,0.4C128,0.8,129.6,0.2,130.7,0.5z"/>
	<path class="st24" d="M43.2,2.3c0.2,0.7,0.6,1.4,1,1.9c0.4,0.5,1,0.9,1.6,1.2c0.6,0.3,1.3,0.4,2.1,0.4s1.5-0.1,2.1-0.4
		c0.6-0.3,1.2-0.7,1.6-1.2c0.5-0.5,0.8-1.1,1-1.9C52.8,1.6,53,0.8,53,0H42.8C42.8,0.8,42.9,1.6,43.2,2.3z"/>
	<path class="st24" d="M62.3,3.2c0.1,0.5,0.3,0.9,0.6,1.2C63.2,4.8,63.6,5,64,5.1c0.4,0.1,1,0.3,1.7,0.3c1.2,0,2.1-0.3,2.7-1
		c0.6-0.7,0.9-1.6,0.9-2.9V0h-7.2v1.6C62.1,2.2,62.2,2.8,62.3,3.2z"/>
	<path class="st24" d="M26.3,4.9c0.6,0.6,1.3,1.1,2.1,1.4c0.9,0.3,1.8,0.5,2.8,0.5c1.8,0,3.3-0.5,4.6-1.6l0.5,1.4h0.6V2.1h-0.7
		c-0.7,2.5-2.2,3.7-4.5,3.7c-1.5,0-2.7-0.6-3.5-1.6C27.4,3.2,27,1.8,27,0h-2.6c0,1,0.2,1.9,0.5,2.8C25.3,3.6,25.7,4.3,26.3,4.9z"/>
	
		<linearGradient id="SVGID_00000147187720937903874480000004805829744790353853_" gradientUnits="userSpaceOnUse" x1="30.6512" y1="207.447" x2="30.6512" y2="221.647" gradientTransform="matrix(1 0 0 -1 0 214.297)">
		<stop  offset="0" style="stop-color:#8F6E27"/>
		<stop  offset="0.5" style="stop-color:#FFEABF"/>
		<stop  offset="1" style="stop-color:#8F6E27"/>
	</linearGradient>
	<path style="fill:url(#SVGID_00000147187720937903874480000004805829744790353853_);" d="M26.3,4.9c0.6,0.6,1.3,1.1,2.1,1.4
		c0.9,0.3,1.8,0.5,2.8,0.5c1.8,0,3.3-0.5,4.6-1.6l0.5,1.4h0.6V2.1h-0.7c-0.7,2.5-2.2,3.7-4.5,3.7c-1.5,0-2.7-0.6-3.5-1.6
		C27.4,3.2,27,1.8,27,0h-2.6c0,1,0.2,1.9,0.5,2.8C25.3,3.6,25.7,4.3,26.3,4.9z"/>
	<path class="st24" d="M42.7,4.8c0.7,0.6,1.5,1.1,2.4,1.5C46,6.5,47,6.8,48,6.8s2-0.1,2.9-0.5c0.9-0.4,1.7-0.9,2.4-1.5
		c0.7-0.6,1.2-1.4,1.6-2.2c0.4-0.8,0.6-1.6,0.6-2.5H53c0,0.8-0.2,1.6-0.4,2.3c-0.2,0.8-0.5,1.4-1,1.9c-0.4,0.5-1,0.9-1.6,1.2
		c-0.6,0.3-1.3,0.4-2.1,0.4s-1.5-0.1-2.1-0.4c-0.6-0.3-1.2-0.7-1.6-1.2c-0.4-0.5-0.8-1.2-1-1.9c-0.3-0.8-0.4-1.5-0.4-2.3h-2.3
		c0,0.9,0.2,1.8,0.6,2.5C41.5,3.3,42,4.1,42.7,4.8z"/>
	
		<linearGradient id="SVGID_00000116950601012034712660000006036767333431092354_" gradientUnits="userSpaceOnUse" x1="48.0002" y1="207.547" x2="48.0002" y2="221.647" gradientTransform="matrix(1 0 0 -1 0 214.297)">
		<stop  offset="0" style="stop-color:#8F6E27"/>
		<stop  offset="0.5" style="stop-color:#FFEABF"/>
		<stop  offset="1" style="stop-color:#8F6E27"/>
	</linearGradient>
	<path style="fill:url(#SVGID_00000116950601012034712660000006036767333431092354_);" d="M42.7,4.8c0.7,0.6,1.5,1.1,2.4,1.5
		C46,6.5,47,6.8,48,6.8s2-0.1,2.9-0.5c0.9-0.4,1.7-0.9,2.4-1.5c0.7-0.6,1.2-1.4,1.6-2.2c0.4-0.8,0.6-1.6,0.6-2.5H53
		c0,0.8-0.2,1.6-0.4,2.3c-0.2,0.8-0.5,1.4-1,1.9c-0.4,0.5-1,0.9-1.6,1.2c-0.6,0.3-1.3,0.4-2.1,0.4s-1.5-0.1-2.1-0.4
		c-0.6-0.3-1.2-0.7-1.6-1.2c-0.4-0.5-0.8-1.2-1-1.9c-0.3-0.8-0.4-1.5-0.4-2.3h-2.3c0,0.9,0.2,1.8,0.6,2.5C41.5,3.3,42,4.1,42.7,4.8z
		"/>
	<path class="st24" d="M60.4,4c0.2,0.7,0.6,1.2,1,1.6c0.5,0.4,1,0.7,1.7,0.9c0.6,0.2,1.4,0.3,2.3,0.3c0.9,0,1.7-0.2,2.4-0.4
		c0.6-0.3,1.2-0.6,1.6-1.1c0.4-0.5,0.7-1.1,0.9-1.8C70.5,2.8,70.6,2,70.6,1h-0.2V0h-1.1v1.5c0,1.3-0.3,2.2-0.9,2.9
		c-0.6,0.7-1.5,1-2.7,1c-0.7,0-1.3-0.2-1.7-0.3c-0.4-0.1-0.8-0.4-1.1-0.7c-0.3-0.3-0.5-0.7-0.6-1.2c-0.1-0.4-0.2-1-0.2-1.6V0h-2v1.6
		C60.1,2.6,60.2,3.5,60.4,4z"/>
	
		<linearGradient id="SVGID_00000022555647771023771800000009022617234548203921_" gradientUnits="userSpaceOnUse" x1="65.35" y1="207.447" x2="65.35" y2="221.747" gradientTransform="matrix(1 0 0 -1 0 214.297)">
		<stop  offset="0" style="stop-color:#8F6E27"/>
		<stop  offset="0.5" style="stop-color:#FFEABF"/>
		<stop  offset="1" style="stop-color:#8F6E27"/>
	</linearGradient>
	<path style="fill:url(#SVGID_00000022555647771023771800000009022617234548203921_);" d="M60.4,4c0.2,0.7,0.6,1.2,1,1.6
		c0.5,0.4,1,0.7,1.7,0.9c0.6,0.2,1.4,0.3,2.3,0.3c0.9,0,1.7-0.2,2.4-0.4c0.6-0.3,1.2-0.6,1.6-1.1c0.4-0.5,0.7-1.1,0.9-1.8
		C70.5,2.8,70.6,2,70.6,1h-0.2V0h-1.1v1.5c0,1.3-0.3,2.2-0.9,2.9c-0.6,0.7-1.5,1-2.7,1c-0.7,0-1.3-0.2-1.7-0.3
		c-0.4-0.1-0.8-0.4-1.1-0.7c-0.3-0.3-0.5-0.7-0.6-1.2c-0.1-0.4-0.2-1-0.2-1.6V0h-2v1.6C60.1,2.6,60.2,3.5,60.4,4z"/>
	<path class="st24" d="M77.3,5c-0.1,0.3-0.2,0.5-0.3,0.6c-0.1,0.1-0.3,0.2-0.6,0.3C76.2,6,75.8,6,75.4,6v0.7h6.4V6
		c-0.5,0-1,0-1.3-0.1c-0.4,0-0.7-0.1-0.8-0.3c-0.1-0.2-0.2-0.4-0.3-0.7c-0.1-0.3-0.1-0.7-0.1-1.1V0.1c0.3,0,0.5,0,0.7,0
		s0.3,0,0.5,0.1c0.1,0.1,0.3,0.2,0.4,0.3C81,0.6,81.1,0.8,81.3,1l4.4,5.7h3.5V6c-0.5-0.1-1-0.2-1.4-0.4c-0.4-0.2-0.8-0.5-1.1-0.9
		l-4-4.8h-5.3v4C77.4,4.5,77.4,4.8,77.3,5z"/>
	
		<linearGradient id="SVGID_00000126305467509891562850000004489474870213920692_" gradientUnits="userSpaceOnUse" x1="82.3" y1="207.547" x2="82.3" y2="221.347" gradientTransform="matrix(1 0 0 -1 0 214.297)">
		<stop  offset="0" style="stop-color:#8F6E27"/>
		<stop  offset="0.5" style="stop-color:#FFEABF"/>
		<stop  offset="1" style="stop-color:#8F6E27"/>
	</linearGradient>
	<path style="fill:url(#SVGID_00000126305467509891562850000004489474870213920692_);" d="M77.3,5c-0.1,0.3-0.2,0.5-0.3,0.6
		c-0.1,0.1-0.3,0.2-0.6,0.3C76.2,6,75.8,6,75.4,6v0.7h6.4V6c-0.5,0-1,0-1.3-0.1c-0.4,0-0.7-0.1-0.8-0.3c-0.1-0.2-0.2-0.4-0.3-0.7
		c-0.1-0.3-0.1-0.7-0.1-1.1V0.1c0.3,0,0.5,0,0.7,0s0.3,0,0.5,0.1c0.1,0.1,0.3,0.2,0.4,0.3C81,0.6,81.1,0.8,81.3,1l4.4,5.7h3.5V6
		c-0.5-0.1-1-0.2-1.4-0.4c-0.4-0.2-0.8-0.5-1.1-0.9l-4-4.8h-5.3v4C77.4,4.5,77.4,4.8,77.3,5z"/>
	<path class="st24" d="M97.2,1.5c0.4,0.2,0.8,0.5,1,0.7c0.2,0.2,0.4,0.4,0.5,0.7c0.1,0.2,0.2,0.5,0.2,0.8c0,0.7-0.3,1.3-0.8,1.7
		C97.6,5.8,96.9,6,96,6c-0.5,0-1.1,0-1.5-0.2c-0.4-0.2-0.8-0.4-1.2-0.7c-0.4-0.3-0.7-0.7-0.9-1.1c-0.3-0.5-0.4-1-0.5-1.5h-0.7
		l0.2,4.4h0.4l0.5-0.9c0.6,0.5,1.2,0.8,1.7,1c0.5,0.2,1.1,0.3,1.8,0.3c0.7,0,1.4-0.1,2-0.3c0.6-0.2,1.1-0.4,1.5-0.8
		c0.4-0.4,0.8-0.8,1-1.3c0.3-0.5,0.4-1.1,0.4-1.7c0-0.5-0.1-0.9-0.2-1.3c-0.1-0.4-0.4-0.8-0.7-1.1c-0.2-0.2-0.6-0.5-1-0.8h-4.8
		c0.5,0.2,1,0.5,1.6,0.8C96.3,1,96.8,1.2,97.2,1.5z"/>
	
		<linearGradient id="SVGID_00000026156787420065166250000016461934394525964191_" gradientUnits="userSpaceOnUse" x1="95.95" y1="207.047" x2="95.95" y2="221.447" gradientTransform="matrix(1 0 0 -1 0 214.297)">
		<stop  offset="0" style="stop-color:#8F6E27"/>
		<stop  offset="0.5" style="stop-color:#FFEABF"/>
		<stop  offset="1" style="stop-color:#8F6E27"/>
	</linearGradient>
	<path style="fill:url(#SVGID_00000026156787420065166250000016461934394525964191_);" d="M97.2,1.5c0.4,0.2,0.8,0.5,1,0.7
		c0.2,0.2,0.4,0.4,0.5,0.7c0.1,0.2,0.2,0.5,0.2,0.8c0,0.7-0.3,1.3-0.8,1.7C97.6,5.8,96.9,6,96,6c-0.5,0-1.1,0-1.5-0.2
		c-0.4-0.2-0.8-0.4-1.2-0.7c-0.4-0.3-0.7-0.7-0.9-1.1c-0.3-0.5-0.4-1-0.5-1.5h-0.7l0.2,4.4h0.4l0.5-0.9c0.6,0.5,1.2,0.8,1.7,1
		c0.5,0.2,1.1,0.3,1.8,0.3c0.7,0,1.4-0.1,2-0.3c0.6-0.2,1.1-0.4,1.5-0.8c0.4-0.4,0.8-0.8,1-1.3c0.3-0.5,0.4-1.1,0.4-1.7
		c0-0.5-0.1-0.9-0.2-1.3c-0.1-0.4-0.4-0.8-0.7-1.1c-0.2-0.2-0.6-0.5-1-0.8h-4.8c0.5,0.2,1,0.5,1.6,0.8C96.3,1,96.8,1.2,97.2,1.5z"/>
	<path class="st24" d="M105.9,4.9c-0.1,0.3-0.2,0.5-0.3,0.6c-0.1,0.1-0.3,0.2-0.6,0.3c-0.2,0.1-0.6,0.1-1,0.1v0.7h11.1l0.3-3.5h-0.7
		c-0.2,0.5-0.3,0.9-0.5,1.3c-0.2,0.4-0.4,0.7-0.7,0.9c-0.3,0.3-0.7,0.4-1.1,0.5s-1,0.1-1.6,0.1c-0.5,0-1,0-1.4-0.1
		c-0.4,0-0.7-0.1-0.9-0.3c-0.2-0.1-0.4-0.3-0.5-0.6c-0.1-0.3-0.1-0.6-0.1-1V0H106v3.9C106,4.3,106,4.6,105.9,4.9z"/>
	
		<linearGradient id="SVGID_00000100363186157799389600000007119462356606425762_" gradientUnits="userSpaceOnUse" x1="109.7" y1="207.647" x2="109.7" y2="221.447" gradientTransform="matrix(1 0 0 -1 0 214.297)">
		<stop  offset="0" style="stop-color:#8F6E27"/>
		<stop  offset="0.5" style="stop-color:#FFEABF"/>
		<stop  offset="1" style="stop-color:#8F6E27"/>
	</linearGradient>
	<path style="fill:url(#SVGID_00000100363186157799389600000007119462356606425762_);" d="M105.9,4.9c-0.1,0.3-0.2,0.5-0.3,0.6
		c-0.1,0.1-0.3,0.2-0.6,0.3c-0.2,0.1-0.6,0.1-1,0.1v0.7h11.1l0.3-3.5h-0.7c-0.2,0.5-0.3,0.9-0.5,1.3c-0.2,0.4-0.4,0.7-0.7,0.9
		c-0.3,0.3-0.7,0.4-1.1,0.5s-1,0.1-1.6,0.1c-0.5,0-1,0-1.4-0.1c-0.4,0-0.7-0.1-0.9-0.3c-0.2-0.1-0.4-0.3-0.5-0.6
		c-0.1-0.3-0.1-0.6-0.1-1V0H106v3.9C106,4.3,106,4.6,105.9,4.9z"/>
	<path class="st24" d="M110.6,0.3c0.2,0.2,0.4,0.4,0.5,0.7c0.1,0.2,0.2,0.5,0.2,0.9h0.6V0h-2.1C110.1,0.1,110.4,0.2,110.6,0.3z"/>
	
		<linearGradient id="SVGID_00000166635636773053102950000011346462438901711245_" gradientUnits="userSpaceOnUse" x1="110.847" y1="207.647" x2="110.847" y2="221.447" gradientTransform="matrix(1 0 0 -1 0 214.297)">
		<stop  offset="0" style="stop-color:#8F6E27"/>
		<stop  offset="0.5" style="stop-color:#FFEABF"/>
		<stop  offset="1" style="stop-color:#8F6E27"/>
	</linearGradient>
	<path style="fill:url(#SVGID_00000166635636773053102950000011346462438901711245_);" d="M110.6,0.3c0.2,0.2,0.4,0.4,0.5,0.7
		c0.1,0.2,0.2,0.5,0.2,0.9h0.6V0h-2.1C110.1,0.1,110.4,0.2,110.6,0.3z"/>
	<polygon class="st24" points="72.8,15.2 69.7,16.8 66.6,15.2 67.2,18.6 64.7,21.1 68.1,21.6 69.7,24.8 71.2,21.6 74.7,21.1 
		72.2,18.6 	"/>
	
		<linearGradient id="SVGID_00000057868474612526932310000002089218112501379994_" gradientUnits="userSpaceOnUse" x1="69.7" y1="189.547" x2="69.7" y2="199.047" gradientTransform="matrix(1 0 0 -1 0 214.297)">
		<stop  offset="0" style="stop-color:#8F6E27"/>
		<stop  offset="0.5" style="stop-color:#FFEABF"/>
		<stop  offset="1" style="stop-color:#8F6E27"/>
	</linearGradient>
	<polygon style="fill:url(#SVGID_00000057868474612526932310000002089218112501379994_);" points="72.8,15.2 69.7,16.8 66.6,15.2 
		67.2,18.6 64.7,21.1 68.1,21.6 69.7,24.8 71.2,21.6 74.7,21.1 72.2,18.6 	"/>
	<polygon class="st24" points="59.5,15.2 57.7,16.2 55.8,15.2 56.2,17.3 54.7,18.8 56.8,19 57.7,21 58.6,19 60.7,18.8 59.2,17.3 	
		"/>
	
		<linearGradient id="SVGID_00000012467762750408190310000001893521718058657670_" gradientUnits="userSpaceOnUse" x1="57.7" y1="193.347" x2="57.7" y2="199.047" gradientTransform="matrix(1 0 0 -1 0 214.297)">
		<stop  offset="0" style="stop-color:#8F6E27"/>
		<stop  offset="0.5" style="stop-color:#FFEABF"/>
		<stop  offset="1" style="stop-color:#8F6E27"/>
	</linearGradient>
	<polygon style="fill:url(#SVGID_00000012467762750408190310000001893521718058657670_);" points="59.5,15.2 57.7,16.2 55.8,15.2 
		56.2,17.3 54.7,18.8 56.8,19 57.7,21 58.6,19 60.7,18.8 59.2,17.3 	"/>
	<polygon class="st24" points="49.9,15.2 48.7,15.8 47.4,15.2 47.7,16.6 46.7,17.6 48.1,17.8 48.7,19 49.3,17.8 50.7,17.6 
		49.7,16.6 	"/>
	
		<linearGradient id="SVGID_00000101783683851747098580000000533259135459085470_" gradientUnits="userSpaceOnUse" x1="48.7" y1="195.247" x2="48.7" y2="199.047" gradientTransform="matrix(1 0 0 -1 0 214.297)">
		<stop  offset="0" style="stop-color:#8F6E27"/>
		<stop  offset="0.5" style="stop-color:#FFEABF"/>
		<stop  offset="1" style="stop-color:#8F6E27"/>
	</linearGradient>
	<polygon style="fill:url(#SVGID_00000101783683851747098580000000533259135459085470_);" points="49.9,15.2 48.7,15.8 47.4,15.2 
		47.7,16.6 46.7,17.6 48.1,17.8 48.7,19 49.3,17.8 50.7,17.6 49.7,16.6 	"/>
	<polygon class="st24" points="83.5,15.2 81.7,16.2 79.8,15.2 80.2,17.3 78.7,18.8 80.8,19 81.7,21 82.6,19 84.7,18.8 83.2,17.3 	
		"/>
	
		<linearGradient id="SVGID_00000174563502834787691650000017508093130947046045_" gradientUnits="userSpaceOnUse" x1="81.7" y1="193.347" x2="81.7" y2="199.047" gradientTransform="matrix(1 0 0 -1 0 214.297)">
		<stop  offset="0" style="stop-color:#8F6E27"/>
		<stop  offset="0.5" style="stop-color:#FFEABF"/>
		<stop  offset="1" style="stop-color:#8F6E27"/>
	</linearGradient>
	<polygon style="fill:url(#SVGID_00000174563502834787691650000017508093130947046045_);" points="83.5,15.2 81.7,16.2 79.8,15.2 
		80.2,17.3 78.7,18.8 80.8,19 81.7,21 82.6,19 84.7,18.8 83.2,17.3 	"/>
	<polygon class="st24" points="91.9,15.2 90.7,15.8 89.4,15.2 89.7,16.6 88.7,17.6 90.1,17.8 90.7,19 91.3,17.8 92.7,17.6 
		91.7,16.6 	"/>
	
		<linearGradient id="SVGID_00000054236960846532026910000013521401145560240277_" gradientUnits="userSpaceOnUse" x1="90.7" y1="195.247" x2="90.7" y2="199.047" gradientTransform="matrix(1 0 0 -1 0 214.297)">
		<stop  offset="0" style="stop-color:#8F6E27"/>
		<stop  offset="0.5" style="stop-color:#FFEABF"/>
		<stop  offset="1" style="stop-color:#8F6E27"/>
	</linearGradient>
	<polygon style="fill:url(#SVGID_00000054236960846532026910000013521401145560240277_);" points="91.9,15.2 90.7,15.8 89.4,15.2 
		89.7,16.6 88.7,17.6 90.1,17.8 90.7,19 91.3,17.8 92.7,17.6 91.7,16.6 	"/>
	<path class="st24" d="M126.8,2.5c0.2-0.1,0.4-0.3,0.6-0.4c0.4-0.2,0.9-0.4,1.3-0.5c0,0-0.1,0-0.1,0s0,0,0.1,0
		c1-0.2,1.8,0.1,2.1,0.6c0.2,0.2,0.2,0.4,0.2,0.6s-0.2,0.4-0.3,0.5c0.1,0.1,0.4,0.2,0.7,0.1c0.5-0.1,0.7-0.7,0.6-1.5
		c0-0.6-0.5-1.1-1.3-1.3C129.6,0.2,128,0.8,126.8,2.5z"/>
	
		<linearGradient id="SVGID_00000163039776385087659910000008129693875610297514_" gradientUnits="userSpaceOnUse" x1="129.4125" y1="204.5704" x2="129.4125" y2="224.447" gradientTransform="matrix(1 0 0 -1 0 214.297)">
		<stop  offset="0" style="stop-color:#8F6E27"/>
		<stop  offset="0.5" style="stop-color:#FFEABF"/>
		<stop  offset="1" style="stop-color:#8F6E27"/>
	</linearGradient>
	<path style="fill:url(#SVGID_00000163039776385087659910000008129693875610297514_);" d="M126.8,2.5c0.2-0.1,0.4-0.3,0.6-0.4
		c0.4-0.2,0.9-0.4,1.3-0.5c0,0-0.1,0-0.1,0s0,0,0.1,0c1-0.2,1.8,0.1,2.1,0.6c0.2,0.2,0.2,0.4,0.2,0.6s-0.2,0.4-0.3,0.5
		c0.1,0.1,0.4,0.2,0.7,0.1c0.5-0.1,0.7-0.7,0.6-1.5c0-0.6-0.5-1.1-1.3-1.3C129.6,0.2,128,0.8,126.8,2.5z"/>
	<path class="st24" d="M126.6,0h-0.4c-0.5,0.8-0.9,1.5-1.2,2.2C125.4,1.6,126,0.8,126.6,0z"/>
	
		<linearGradient id="SVGID_00000156585478189735096290000004787338596832873093_" gradientUnits="userSpaceOnUse" x1="125.8615" y1="204.5704" x2="125.8615" y2="224.447" gradientTransform="matrix(1 0 0 -1 0 214.297)">
		<stop  offset="0" style="stop-color:#8F6E27"/>
		<stop  offset="0.5" style="stop-color:#FFEABF"/>
		<stop  offset="1" style="stop-color:#8F6E27"/>
	</linearGradient>
	<path style="fill:url(#SVGID_00000156585478189735096290000004787338596832873093_);" d="M126.6,0h-0.4c-0.5,0.8-0.9,1.5-1.2,2.2
		C125.4,1.6,126,0.8,126.6,0z"/>
	<path class="st24" d="M124.5,4c-0.1,0.7-0.2,1.4-0.1,2.1c0-2.1,1.5-4.4,3.1-6h-0.6C125.1,2.2,124.5,4,124.5,4z"/>
	
		<linearGradient id="SVGID_00000107549839325385259620000017704054457396375680_" gradientUnits="userSpaceOnUse" x1="125.9064" y1="204.5704" x2="125.9064" y2="224.447" gradientTransform="matrix(1 0 0 -1 0 214.297)">
		<stop  offset="0" style="stop-color:#8F6E27"/>
		<stop  offset="0.5" style="stop-color:#FFEABF"/>
		<stop  offset="1" style="stop-color:#8F6E27"/>
	</linearGradient>
	<path style="fill:url(#SVGID_00000107549839325385259620000017704054457396375680_);" d="M124.5,4c-0.1,0.7-0.2,1.4-0.1,2.1
		c0-2.1,1.5-4.4,3.1-6h-0.6C125.1,2.2,124.5,4,124.5,4z"/>
	<path class="st24" d="M129.2,0.3c0-0.1,0-0.2,0-0.3h-0.7c0,0.2,0.1,0.4,0.1,0.5C128.8,0.4,129,0.4,129.2,0.3z"/>
	
		<linearGradient id="SVGID_00000062903381338642428160000013365871407493490578_" gradientUnits="userSpaceOnUse" x1="128.8197" y1="204.5704" x2="128.8197" y2="224.447" gradientTransform="matrix(1 0 0 -1 0 214.297)">
		<stop  offset="0" style="stop-color:#8F6E27"/>
		<stop  offset="0.5" style="stop-color:#FFEABF"/>
		<stop  offset="1" style="stop-color:#8F6E27"/>
	</linearGradient>
	<path style="fill:url(#SVGID_00000062903381338642428160000013365871407493490578_);" d="M129.2,0.3c0-0.1,0-0.2,0-0.3h-0.7
		c0,0.2,0.1,0.4,0.1,0.5C128.8,0.4,129,0.4,129.2,0.3z"/>
	<path class="st24" d="M126.9,1.8c0.4-0.5,0.9-0.8,1.4-1.1c0-0.1-0.1-0.4-0.1-0.8h-0.4c-0.3,0.3-0.7,0.7-1,1
		C126.8,1.3,126.9,1.6,126.9,1.8z"/>
	
		<linearGradient id="SVGID_00000182522770868905391850000008674399299327751590_" gradientUnits="userSpaceOnUse" x1="127.55" y1="204.5704" x2="127.55" y2="224.447" gradientTransform="matrix(1 0 0 -1 0 214.297)">
		<stop  offset="0" style="stop-color:#8F6E27"/>
		<stop  offset="0.5" style="stop-color:#FFEABF"/>
		<stop  offset="1" style="stop-color:#8F6E27"/>
	</linearGradient>
	<path style="fill:url(#SVGID_00000182522770868905391850000008674399299327751590_);" d="M126.9,1.8c0.4-0.5,0.9-0.8,1.4-1.1
		c0-0.1-0.1-0.4-0.1-0.8h-0.4c-0.3,0.3-0.7,0.7-1,1C126.8,1.3,126.9,1.6,126.9,1.8z"/>
	<path class="st24" d="M124.1,3.3c-0.1,0.7-0.1,1.6,0,2.5c0-0.6,0-1.3,0.2-2c0-0.1,0-0.1,0-0.1c0.3-1.3,0.9-2.5,1.6-3.8h-0.4
		c-0.1,0.2-0.2,0.4-0.3,0.5C124.7,1.3,124.2,2.3,124.1,3.3z"/>
	
		<linearGradient id="SVGID_00000132771812879672698670000010780298904661059771_" gradientUnits="userSpaceOnUse" x1="124.9608" y1="204.5704" x2="124.9608" y2="224.447" gradientTransform="matrix(1 0 0 -1 0 214.297)">
		<stop  offset="0" style="stop-color:#8F6E27"/>
		<stop  offset="0.5" style="stop-color:#FFEABF"/>
		<stop  offset="1" style="stop-color:#8F6E27"/>
	</linearGradient>
	<path style="fill:url(#SVGID_00000132771812879672698670000010780298904661059771_);" d="M124.1,3.3c-0.1,0.7-0.1,1.6,0,2.5
		c0-0.6,0-1.3,0.2-2c0-0.1,0-0.1,0-0.1c0.3-1.3,0.9-2.5,1.6-3.8h-0.4c-0.1,0.2-0.2,0.4-0.3,0.5C124.7,1.3,124.2,2.3,124.1,3.3z"/>
	<path class="st24" d="M127.5,2.3c-0.1,0.1-0.3,0.2-0.4,0.3c0.1,1,0.2,1.5,0.2,1.8c0.4-0.3,1.1-0.3,1.7-0.2c-0.1-0.6-0.3-2-0.4-2.4
		C128.3,2,127.9,2.1,127.5,2.3z"/>
	
		<linearGradient id="SVGID_00000165955374533310230010000010889735916212917921_" gradientUnits="userSpaceOnUse" x1="128.05" y1="204.5704" x2="128.05" y2="224.447" gradientTransform="matrix(1 0 0 -1 0 214.297)">
		<stop  offset="0" style="stop-color:#8F6E27"/>
		<stop  offset="0.5" style="stop-color:#FFEABF"/>
		<stop  offset="1" style="stop-color:#8F6E27"/>
	</linearGradient>
	<path style="fill:url(#SVGID_00000165955374533310230010000010889735916212917921_);" d="M127.5,2.3c-0.1,0.1-0.3,0.2-0.4,0.3
		c0.1,1,0.2,1.5,0.2,1.8c0.4-0.3,1.1-0.3,1.7-0.2c-0.1-0.6-0.3-2-0.4-2.4C128.3,2,127.9,2.1,127.5,2.3z"/>
	<path class="st24" d="M124.3,1.4c0.2-0.4,0.4-0.7,0.6-1.1c0.1-0.1,0.1-0.2,0.2-0.3h-0.3c-0.1,0.2-0.1,0.5-0.3,0.8
		C124.4,0.9,124.4,1.2,124.3,1.4z"/>
	
		<linearGradient id="SVGID_00000063595619118938926910000017402755498865638063_" gradientUnits="userSpaceOnUse" x1="124.6884" y1="204.5704" x2="124.6884" y2="224.447" gradientTransform="matrix(1 0 0 -1 0 214.297)">
		<stop  offset="0" style="stop-color:#8F6E27"/>
		<stop  offset="0.5" style="stop-color:#FFEABF"/>
		<stop  offset="1" style="stop-color:#8F6E27"/>
	</linearGradient>
	<path style="fill:url(#SVGID_00000063595619118938926910000017402755498865638063_);" d="M124.3,1.4c0.2-0.4,0.4-0.7,0.6-1.1
		c0.1-0.1,0.1-0.2,0.2-0.3h-0.3c-0.1,0.2-0.1,0.5-0.3,0.8C124.4,0.9,124.4,1.2,124.3,1.4z"/>
	<path class="st24" d="M129.9,4.5c-0.1-0.8-0.4-2.3-0.5-2.8c-0.2,0-0.4,0-0.6,0c0.1,0.5,0.4,1.9,0.4,2.5
		C129.4,4.3,129.7,4.5,129.9,4.5z"/>
	
		<linearGradient id="SVGID_00000165233484226214933170000009778977395361182886_" gradientUnits="userSpaceOnUse" x1="129.35" y1="204.5704" x2="129.35" y2="224.447" gradientTransform="matrix(1 0 0 -1 0 214.297)">
		<stop  offset="0" style="stop-color:#8F6E27"/>
		<stop  offset="0.5" style="stop-color:#FFEABF"/>
		<stop  offset="1" style="stop-color:#8F6E27"/>
	</linearGradient>
	<path style="fill:url(#SVGID_00000165233484226214933170000009778977395361182886_);" d="M129.9,4.5c-0.1-0.8-0.4-2.3-0.5-2.8
		c-0.2,0-0.4,0-0.6,0c0.1,0.5,0.4,1.9,0.4,2.5C129.4,4.3,129.7,4.5,129.9,4.5z"/>
	<path class="st24" d="M130.2,5.8c-0.7-0.6-1.4-0.9-2-0.8c-0.6,0.1-0.9,0.4-1.1,0.6c-0.4,0.4-0.2,1,0,1.3c0.1,0.1,0.2,0.2,0.4,0.1
		c0.1-0.1,0.2-0.2,0.2-0.3c0.1-0.2-0.1-0.5-0.2-0.6V6l0.1-0.1c0.6-0.3,1.2-0.2,1.6,0.2c0.4,0.4,0.6,1.1,0.4,1.6
		c-0.2,0.5-0.6,0.8-1.2,0.8c-1.1,0.1-1.6-0.3-1.9-0.7c-0.4-0.6-0.5-1.5-0.1-2.5c0.1-0.3,0.3-0.5,0.5-0.7c0-0.2,0-0.7-0.2-1.7
		c-0.9,1-1.2,2.5-1.2,2.5c-0.3,2.1,0.9,3.2,1,3.3c0,0.1,0.1,0.1,0,0.2c-0.1,0-0.1,0.1-0.2,0c0,0-1.4-1.2-1.1-3.5c0-0.1,0-0.1,0-0.1
		c0.1-0.7,0.4-1.4,0.8-2.2c0.2-0.3,0.4-0.6,0.6-0.9c0-0.2,0-0.5-0.1-0.8c-1.2,1.6-2.2,3.6-1.8,5.3c0.5,2.5,2.2,3,2.4,3
		c1,0.2,1.8,0,2.2-0.5c0.8-0.5,1.3-1.4,1.3-2.5C130.6,6.2,130.5,6,130.2,5.8z"/>
	
		<linearGradient id="SVGID_00000132074018820961742120000000292290649595416196_" gradientUnits="userSpaceOnUse" x1="127.6052" y1="204.5704" x2="127.6052" y2="224.447" gradientTransform="matrix(1 0 0 -1 0 214.297)">
		<stop  offset="0" style="stop-color:#8F6E27"/>
		<stop  offset="0.5" style="stop-color:#FFEABF"/>
		<stop  offset="1" style="stop-color:#8F6E27"/>
	</linearGradient>
	<path style="fill:url(#SVGID_00000132074018820961742120000000292290649595416196_);" d="M130.2,5.8c-0.7-0.6-1.4-0.9-2-0.8
		c-0.6,0.1-0.9,0.4-1.1,0.6c-0.4,0.4-0.2,1,0,1.3c0.1,0.1,0.2,0.2,0.4,0.1c0.1-0.1,0.2-0.2,0.2-0.3c0.1-0.2-0.1-0.5-0.2-0.6V6
		l0.1-0.1c0.6-0.3,1.2-0.2,1.6,0.2c0.4,0.4,0.6,1.1,0.4,1.6c-0.2,0.5-0.6,0.8-1.2,0.8c-1.1,0.1-1.6-0.3-1.9-0.7
		c-0.4-0.6-0.5-1.5-0.1-2.5c0.1-0.3,0.3-0.5,0.5-0.7c0-0.2,0-0.7-0.2-1.7c-0.9,1-1.2,2.5-1.2,2.5c-0.3,2.1,0.9,3.2,1,3.3
		c0,0.1,0.1,0.1,0,0.2c-0.1,0-0.1,0.1-0.2,0c0,0-1.4-1.2-1.1-3.5c0-0.1,0-0.1,0-0.1c0.1-0.7,0.4-1.4,0.8-2.2
		c0.2-0.3,0.4-0.6,0.6-0.9c0-0.2,0-0.5-0.1-0.8c-1.2,1.6-2.2,3.6-1.8,5.3c0.5,2.5,2.2,3,2.4,3c1,0.2,1.8,0,2.2-0.5
		c0.8-0.5,1.3-1.4,1.3-2.5C130.6,6.2,130.5,6,130.2,5.8z"/>
	<path class="st24" d="M15.6,1.5c0-0.2-0.1-0.5-0.2-0.7c-0.1-0.3-0.2-0.5-0.2-0.8h-0.4c0.1,0.1,0.1,0.2,0.2,0.3
		C15.2,0.6,15.4,1,15.6,1.5z"/>
	
		<linearGradient id="SVGID_00000087375585118793704970000008461155344191981220_" gradientUnits="userSpaceOnUse" x1="15.2116" y1="204.5686" x2="15.2116" y2="224.647" gradientTransform="matrix(1 0 0 -1 0 214.297)">
		<stop  offset="0" style="stop-color:#8F6E27"/>
		<stop  offset="0.5" style="stop-color:#FFEABF"/>
		<stop  offset="1" style="stop-color:#8F6E27"/>
	</linearGradient>
	<path style="fill:url(#SVGID_00000087375585118793704970000008461155344191981220_);" d="M15.6,1.5c0-0.2-0.1-0.5-0.2-0.7
		c-0.1-0.3-0.2-0.5-0.2-0.8h-0.4c0.1,0.1,0.1,0.2,0.2,0.3C15.2,0.6,15.4,1,15.6,1.5z"/>
	<path class="st24" d="M15.8,3.8c0.2,0.7,0.3,1.3,0.2,2c0.1-0.9,0.1-1.8,0-2.5c-0.1-1-0.7-1.9-1.1-2.8c-0.1-0.2-0.2-0.4-0.3-0.5
		h-0.4C14.9,1.2,15.5,2.5,15.8,3.8C15.8,3.8,15.8,3.8,15.8,3.8z"/>
	
		<linearGradient id="SVGID_00000016775173502243554620000011731113271719799221_" gradientUnits="userSpaceOnUse" x1="15.1392" y1="204.5686" x2="15.1392" y2="224.647" gradientTransform="matrix(1 0 0 -1 0 214.297)">
		<stop  offset="0" style="stop-color:#8F6E27"/>
		<stop  offset="0.5" style="stop-color:#FFEABF"/>
		<stop  offset="1" style="stop-color:#8F6E27"/>
	</linearGradient>
	<path style="fill:url(#SVGID_00000016775173502243554620000011731113271719799221_);" d="M15.8,3.8c0.2,0.7,0.3,1.3,0.2,2
		c0.1-0.9,0.1-1.8,0-2.5c-0.1-1-0.7-1.9-1.1-2.8c-0.1-0.2-0.2-0.4-0.3-0.5h-0.4C14.9,1.2,15.5,2.5,15.8,3.8
		C15.8,3.8,15.8,3.8,15.8,3.8z"/>
	<path class="st24" d="M10.1,4.5c0.2-0.1,0.5-0.2,0.7-0.3c0.1-0.5,0.3-2,0.5-2.5c-0.2,0-0.4,0-0.6,0C10.6,2.2,10.3,3.8,10.1,4.5z"/>
	
		<linearGradient id="SVGID_00000027588134711946636520000015058919840565332870_" gradientUnits="userSpaceOnUse" x1="10.7" y1="204.5686" x2="10.7" y2="224.647" gradientTransform="matrix(1 0 0 -1 0 214.297)">
		<stop  offset="0" style="stop-color:#8F6E27"/>
		<stop  offset="0.5" style="stop-color:#FFEABF"/>
		<stop  offset="1" style="stop-color:#8F6E27"/>
	</linearGradient>
	<path style="fill:url(#SVGID_00000027588134711946636520000015058919840565332870_);" d="M10.1,4.5c0.2-0.1,0.5-0.2,0.7-0.3
		c0.1-0.5,0.3-2,0.5-2.5c-0.2,0-0.4,0-0.6,0C10.6,2.2,10.3,3.8,10.1,4.5z"/>
	<path class="st24" d="M11.5,0.6c0-0.2,0-0.4,0.1-0.6h-0.7c0,0.2-0.1,0.3-0.1,0.5C11,0.5,11.3,0.5,11.5,0.6z"/>
	
		<linearGradient id="SVGID_00000086687966409374155400000001830695586028788610_" gradientUnits="userSpaceOnUse" x1="11.1899" y1="204.5686" x2="11.1899" y2="224.647" gradientTransform="matrix(1 0 0 -1 0 214.297)">
		<stop  offset="0" style="stop-color:#8F6E27"/>
		<stop  offset="0.5" style="stop-color:#FFEABF"/>
		<stop  offset="1" style="stop-color:#8F6E27"/>
	</linearGradient>
	<path style="fill:url(#SVGID_00000086687966409374155400000001830695586028788610_);" d="M11.5,0.6c0-0.2,0-0.4,0.1-0.6h-0.7
		c0,0.2-0.1,0.3-0.1,0.5C11,0.5,11.3,0.5,11.5,0.6z"/>
	<path class="st24" d="M9,2.8c0-0.3,0-0.5,0.2-0.7c0.4-0.5,1.2-0.8,2.1-0.6c0.4,0.1,0.8,0.2,1.3,0.5c0.3,0.1,0.4,0.2,0.6,0.4
		C12,0.8,10.4,0.3,9.3,0.5C8.6,0.6,8.1,1.1,8,1.8C7.9,2.8,8.1,3.2,8.6,3.4c0.2,0.1,0.5,0,0.7-0.1C9.2,3.2,9,3,9,2.8z"/>
	
		<linearGradient id="SVGID_00000142874144944205249760000017778175838398155655_" gradientUnits="userSpaceOnUse" x1="10.5875" y1="204.5686" x2="10.5875" y2="224.647" gradientTransform="matrix(1 0 0 -1 0 214.297)">
		<stop  offset="0" style="stop-color:#8F6E27"/>
		<stop  offset="0.5" style="stop-color:#FFEABF"/>
		<stop  offset="1" style="stop-color:#8F6E27"/>
	</linearGradient>
	<path style="fill:url(#SVGID_00000142874144944205249760000017778175838398155655_);" d="M9,2.8c0-0.3,0-0.5,0.2-0.7
		c0.4-0.5,1.2-0.8,2.1-0.6c0.4,0.1,0.8,0.2,1.3,0.5c0.3,0.1,0.4,0.2,0.6,0.4C12,0.8,10.4,0.3,9.3,0.5C8.6,0.6,8.1,1.1,8,1.8
		C7.9,2.8,8.1,3.2,8.6,3.4c0.2,0.1,0.5,0,0.7-0.1C9.2,3.2,9,3,9,2.8z"/>
	<path class="st24" d="M13.2,1.8c0-0.2,0-0.5,0.1-0.8c-0.3-0.4-0.6-0.7-1-1h-0.4c-0.1,0.3-0.1,0.6-0.1,0.8C12.2,1,12.7,1.3,13.2,1.8
		z"/>
	
		<linearGradient id="SVGID_00000173158838217681507980000008261287004554258613_" gradientUnits="userSpaceOnUse" x1="12.55" y1="204.5686" x2="12.55" y2="224.647" gradientTransform="matrix(1 0 0 -1 0 214.297)">
		<stop  offset="0" style="stop-color:#8F6E27"/>
		<stop  offset="0.5" style="stop-color:#FFEABF"/>
		<stop  offset="1" style="stop-color:#8F6E27"/>
	</linearGradient>
	<path style="fill:url(#SVGID_00000173158838217681507980000008261287004554258613_);" d="M13.2,1.8c0-0.2,0-0.5,0.1-0.8
		c-0.3-0.4-0.6-0.7-1-1h-0.4c-0.1,0.3-0.1,0.6-0.1,0.8C12.2,1,12.7,1.3,13.2,1.8z"/>
	<path class="st24" d="M13.4,2.1C13.6,2.3,13.8,2.8,14,3c0.5,0.8,0.7,1.5,0.8,2.2c0,0.1,0,0.1,0,0.1c0.3,2.2-1.1,3.5-1.1,3.5
		c-0.1,0.1-0.1,0.1-0.2,0c-0.1-0.1-0.1-0.1,0-0.2c0-0.1,1.3-1.2,1-3.3c0,0-0.3-1.5-1.2-2.5c-0.2,1-0.2,1.5-0.2,1.7
		c0.2,0.2,0.4,0.4,0.5,0.7c0.3,1,0.3,1.9-0.4,2.6c-0.2,0.3-0.8,0.8-1.9,0.7c-0.6,0-1-0.3-1.2-0.8c-0.2-0.6,0-1.2,0.4-1.6
		c0.4-0.4,1-0.5,1.6-0.2C12.2,6,12.2,6,12.2,6v0.1c0,0.1-0.2,0.4-0.2,0.6c0,0.1,0.1,0.2,0.2,0.3c0.2,0.1,0.3,0,0.4-0.1
		c0.2-0.2,0.4-0.8,0-1.3C12.4,5.3,12,5,11.5,5c-0.6,0-1.3,0.2-2,0.8C9.2,6,9.1,6.5,9.1,6.8c0.1,1.1,0.5,2,1.3,2.5
		c0.7,0.4,1.6,0.6,2.5,0.4c0.2-0.1,1.9-0.6,2.4-3c0.4-1.7-0.6-3.7-1.8-5.3C13.5,1.8,13.4,2,13.4,2.1z"/>
	
		<linearGradient id="SVGID_00000100366157525099670140000014543365666873191843_" gradientUnits="userSpaceOnUse" x1="12.2448" y1="204.5686" x2="12.2448" y2="224.647" gradientTransform="matrix(1 0 0 -1 0 214.297)">
		<stop  offset="0" style="stop-color:#8F6E27"/>
		<stop  offset="0.5" style="stop-color:#FFEABF"/>
		<stop  offset="1" style="stop-color:#8F6E27"/>
	</linearGradient>
	<path style="fill:url(#SVGID_00000100366157525099670140000014543365666873191843_);" d="M13.4,2.1C13.6,2.3,13.8,2.8,14,3
		c0.5,0.8,0.7,1.5,0.8,2.2c0,0.1,0,0.1,0,0.1c0.3,2.2-1.1,3.5-1.1,3.5c-0.1,0.1-0.1,0.1-0.2,0c-0.1-0.1-0.1-0.1,0-0.2
		c0-0.1,1.3-1.2,1-3.3c0,0-0.3-1.5-1.2-2.5c-0.2,1-0.2,1.5-0.2,1.7c0.2,0.2,0.4,0.4,0.5,0.7c0.3,1,0.3,1.9-0.4,2.6
		c-0.2,0.3-0.8,0.8-1.9,0.7c-0.6,0-1-0.3-1.2-0.8c-0.2-0.6,0-1.2,0.4-1.6c0.4-0.4,1-0.5,1.6-0.2C12.2,6,12.2,6,12.2,6v0.1
		c0,0.1-0.2,0.4-0.2,0.6c0,0.1,0.1,0.2,0.2,0.3c0.2,0.1,0.3,0,0.4-0.1c0.2-0.2,0.4-0.8,0-1.3C12.4,5.3,12,5,11.5,5
		c-0.6,0-1.3,0.2-2,0.8C9.2,6,9.1,6.5,9.1,6.8c0.1,1.1,0.5,2,1.3,2.5c0.7,0.4,1.6,0.6,2.5,0.4c0.2-0.1,1.9-0.6,2.4-3
		c0.4-1.7-0.6-3.7-1.8-5.3C13.5,1.8,13.4,2,13.4,2.1z"/>
	<path class="st24" d="M12.8,4.4c0-0.3,0-0.9,0.2-1.8c-0.1-0.1-0.2-0.2-0.4-0.3c-0.4-0.3-0.8-0.4-1.1-0.5c-0.1,0.5-0.4,1.8-0.4,2.4
		C11.7,4.1,12.3,4.1,12.8,4.4z"/>
	
		<linearGradient id="SVGID_00000160911494687834024810000016523941548467886212_" gradientUnits="userSpaceOnUse" x1="12.05" y1="204.5686" x2="12.05" y2="224.647" gradientTransform="matrix(1 0 0 -1 0 214.297)">
		<stop  offset="0" style="stop-color:#8F6E27"/>
		<stop  offset="0.5" style="stop-color:#FFEABF"/>
		<stop  offset="1" style="stop-color:#8F6E27"/>
	</linearGradient>
	<path style="fill:url(#SVGID_00000160911494687834024810000016523941548467886212_);" d="M12.8,4.4c0-0.3,0-0.9,0.2-1.8
		c-0.1-0.1-0.2-0.2-0.4-0.3c-0.4-0.3-0.8-0.4-1.1-0.5c-0.1,0.5-0.4,1.8-0.4,2.4C11.7,4.1,12.3,4.1,12.8,4.4z"/>
	<path class="st24" d="M15.5,3.8c0,0-0.6-1.6-2.3-3.8h-0.5c1.5,1.6,3,3.9,3,5.9C15.7,5.2,15.7,4.5,15.5,3.8z"/>
	
		<linearGradient id="SVGID_00000174580094301502217580000004906095312846133669_" gradientUnits="userSpaceOnUse" x1="14.1571" y1="204.5686" x2="14.1571" y2="224.647" gradientTransform="matrix(1 0 0 -1 0 214.297)">
		<stop  offset="0" style="stop-color:#8F6E27"/>
		<stop  offset="0.5" style="stop-color:#FFEABF"/>
		<stop  offset="1" style="stop-color:#8F6E27"/>
	</linearGradient>
	<path style="fill:url(#SVGID_00000174580094301502217580000004906095312846133669_);" d="M15.5,3.8c0,0-0.6-1.6-2.3-3.8h-0.5
		c1.5,1.6,3,3.9,3,5.9C15.7,5.2,15.7,4.5,15.5,3.8z"/>
	<path class="st24" d="M15.1,2c-0.3-0.7-0.7-1.4-1.1-2h-0.3C14.3,0.8,14.8,1.5,15.1,2z"/>
	
		<linearGradient id="SVGID_00000092441798937144571470000007289260403135663033_" gradientUnits="userSpaceOnUse" x1="14.4151" y1="204.5686" x2="14.4151" y2="224.647" gradientTransform="matrix(1 0 0 -1 0 214.297)">
		<stop  offset="0" style="stop-color:#8F6E27"/>
		<stop  offset="0.5" style="stop-color:#FFEABF"/>
		<stop  offset="1" style="stop-color:#8F6E27"/>
	</linearGradient>
	<path style="fill:url(#SVGID_00000092441798937144571470000007289260403135663033_);" d="M15.1,2c-0.3-0.7-0.7-1.4-1.1-2h-0.3
		C14.3,0.8,14.8,1.5,15.1,2z"/>
</g>
</svg>
