<?xml version="1.0" encoding="utf-8"?>
<!-- Generator: Adobe Illustrator 24.0.1, SVG Export Plug-In . SVG Version: 6.00 Build 0)  -->
<svg version="1.1" id="レイヤー_1" xmlns="http://www.w3.org/2000/svg" xmlns:xlink="http://www.w3.org/1999/xlink" x="0px"
	 y="0px" viewBox="0 0 572.3 595" style="enable-background:new 0 0 572.3 595;" xml:space="preserve">
<style type="text/css">
	.st0{opacity:0.8;fill:#FFFFFF;}
	.st1{fill-rule:evenodd;clip-rule:evenodd;}
	.st2{fill:none;}
	.st3{opacity:0.5;}
	.st4{fill:#FFFFFF;}
	.st5{fill:#CC0000;}
</style>
<circle class="st0" cx="250" cy="250" r="250"/>
<g>
	<path d="M466,375.9c-1.8,2.6-3.6,5.5-5.2,8.5C462.6,381.6,464.3,378.8,466,375.9z"/>
</g>
<path d="M498.2,280.4c0.6-4.6,1-9.1,1.3-13.8C498.5,271.4,498.1,276,498.2,280.4z"/>
<g>
	<path d="M528.7,336.6c-12.4-3.9-31.2-1.9-48.8,11.9c-4.1,9.4-8.7,18.6-13.8,27.4c17.8-25.8,43.8-33.5,58.8-28.6
		c20.4,6.4,32.7,24.6,27.7,38.3c-4.1,14.3-10.6,15.1-15.2,12.7c-4.6-1.7-2.1-5.6,0.4-8.8c5.2-5.7,2.3-17.7-9-21.5
		c-11.3-3.1-21,1-25.1,15.3c-4.3,13.6,5.2,26.3,17.4,30.8c13.6,4.2,33.2-2.4,40.1-25C567.9,367,551.4,344.2,528.7,336.6z"/>
	<path d="M564.4,276.3c-9.2-8.6-24.4-11.2-34.3-1.5c-10.6,9.9-9.8,20.1-2.1,28.5c8.3,8.2,20,5.3,22.6-1.7c1.7-3.6,4-7.5,7.4-4.2
		c4.1,2.9,6.3,8.9-4.3,18.8c-9.6,10.3-30.9,7.7-45.4-7.1c-5.9-5.9-10-16.2-10.2-28.7c-1.1,8.9-2.6,17.6-4.6,26.2
		c2.1,4.2,4.6,7.8,7.3,10.5c16.6,16.3,43.6,20.5,59.6,4.9C577,306.1,574.1,286.2,564.4,276.3z"/>
	<path d="M197,475.5c-21.3,9.2-35.2,29.5-32.4,55.5c2.4,22.2,19.1,36.4,39.4,32.6c20.9-3.9,26.7-29.6,12.5-42.4
		c-7.6-6.8-27.8-7.3-28.1,8c5-7.9,8.8-9.2,14.5-7.8c5,1.1,9.8,3.7,11.5,8.8c0.7,2,0.8,4.6,0.6,6.6c-10.5-3-3.9,5.8-4.2,11.3
		c-1,14.5-25.1,11.3-31.1,2.9c-4.1-5.7-0.8-9.1,1.5-14c3-6.4,1.8-8.6-1.3-15.5c-8.8-19.8,1.5-32,16.1-44L197,475.5z"/>
	<path class="st1" d="M480.5,428.4c4.4-0.5,10.7-2.4,12.7-6.2c1.9-3.5,0.1-9-4.6-8.9c-4.7,0.2-5.1,4.4-4.5,7.6
		c0.7,4.2-6.8,5.3-9.4,1.1c-2.8-4.4-1.7-12.9-3.5-17.8c-1.7-4.7-5.6-10.3-10.4-12.1c-5.1-1.9-2.7-2.6,1.2-4.2
		c14.4-5.9,15.8-18,12.2-28.9c-1-2.9-2.4-5.8-3.9-8.5c-26.4-47.2,43.7-79.2,44.1-79.5c-50.8,13.3-81.2,90.2-73.4,122.9
		c3.3,13,12.4,26.3,25.1,31.7C470.6,427.9,474.1,429.1,480.5,428.4z"/>
	<g>
		<path d="M175.6,497.7c1.9-9.5,12.8-12.5,18.2-3.5c4.9,8-1.5,18.4-8.4,22.6c-22,13.3-54.6-2.7-51.9-30c-2.2-0.6-3.9,2.4-5.1,4
			c2.5-20.1,25-11.4,18-2.1c12.6-9.3-1.1-23.8-12.5-16.9c-15.9,9.6-8.7,31.8,0.6,40.1c15,13.4,54.8,19.7,61.8-6.7
			c4-15.3-12.8-25.5-22-10.8L175.6,497.7z"/>
		<path d="M130.7,510.6c-28.6-25.4,5.5-63,32-42.6c13.3,10.3,8.4,34-9.4,37.2c-6.5,1.1-15.1-2.7-16.2-10
			c-1.8-12.6,16.8-13.8,15.6-3.7l0.5,0.2c1.2-11.4-18.8-9.5-16.8,4.2c1.2,8,10.3,12,17.4,10.7c19.4-3.4,24.1-27.1,10.3-38.8
			c-27.6-23.6-64.9,15.3-37.6,41.8L130.7,510.6z"/>
	</g>
</g>
<path class="st2" d="M388,369c19.9,0,38.2,7.3,52.2,19.4C471.4,347.9,490,297.1,490,242C490,109.5,382.5,2,250,2S10,109.5,10,242
	s107.5,240,240,240c21.4,0,42.2-2.8,62-8.1c-2.6-7.8-4-16.2-4-24.9C308,404.8,343.8,369,388,369z"/>
<path class="st2" d="M389.5,90.5C349.4,48.3,292.8,22,230,22C108.5,22,10,120.5,10,242c0,62.8,26.3,119.4,68.5,159.5
	C118.6,443.7,175.2,470,238,470c24.7,0,48.4-4.1,70.6-11.6c-0.4-3.1-0.6-6.2-0.6-9.4c0-44.2,35.8-80,80-80c11,0,21.4,2.2,30.9,6.2
	C443.5,339.7,458,296.5,458,250C458,187.2,431.7,130.6,389.5,90.5z"/>
<path d="M238,470c-62.8,0-119.4-26.3-159.5-68.5C36.3,361.4,10,304.8,10,242c0-121.5,98.5-220,220-220c62.8,0,119.4,26.3,159.5,68.5
	C431.7,130.6,458,187.2,458,250c0,46.5-14.5,89.7-39.1,125.2c1.1,0.4,2.1,0.9,3.1,1.4c24-36.3,38-79.8,38-126.6
	c0-127-103-230-230-230S0,123,0,250s103,230,230,230c28.1,0,54.9-5,79.8-14.2c-0.5-2.4-0.9-4.9-1.2-7.3
	C286.4,465.9,262.7,470,238,470z"/>
<path d="M319.4,490.2c-3.1-5.1-5.6-10.6-7.5-16.3c-5.2,1.4-10.4,2.6-15.7,3.6c8.6,2.6,16.3,7,22.8,12.8
	C319.2,490.3,319.3,490.2,319.4,490.2z"/>
<path d="M500.1,242.7C496.4,107.9,386-0.3,250.2-0.3c-138.1,0-250,111.9-250,250C0.2,381.3,101.9,489.2,231,499
	c5.3-7.2,12.2-13.1,20.1-17.3c-0.3,0-0.6,0-0.9,0c-132.5,0-240-107.5-240-240s107.5-240,240-240s240,107.5,240,240
	c0,55.1-18.6,105.9-49.8,146.4c3.8,3.3,7.3,6.9,10.4,10.8c3.6-4.8,7-9.7,10.2-14.8c1.6-3,3.4-5.9,5.2-8.5
	c5.1-8.8,9.8-17.9,13.8-27.4c5.7-13.4,10.4-27.4,13.7-41.9c2-8.6,3.5-17.3,4.6-26.2c-0.1-4.4,0.3-9,1.3-13.8
	c0.4-5.5,0.6-11,0.6-16.6C500.2,247.4,500.2,245.1,500.1,242.7z"/>
<g class="st3">
	<circle class="st4" cx="355" cy="539" r="40"/>
</g>
<g>
	<path d="M355,507c17.6,0,32,14.4,32,32s-14.4,32-32,32s-32-14.4-32-32S337.4,507,355,507 M355,499c-22.1,0-40,17.9-40,40
		s17.9,40,40,40s40-17.9,40-40S377.1,499,355,499L355,499z"/>
</g>
<g>
	<circle cx="355" cy="539" r="20"/>
</g>
<g class="st3">
	<circle class="st4" cx="388" cy="449" r="80"/>
</g>
<g>
	<path d="M388,379c9.3,0,18.4,1.8,27,5.4c0.9,0.4,1.8,0.8,2.7,1.2c5.8,2.7,11.1,6.2,15.9,10.3c3.3,2.9,6.4,6.1,9.1,9.5
		c10,12.5,15.2,27.6,15.2,43.6c0,38.6-31.4,70-70,70c-12.3,0-24.4-3.2-35-9.3c-10.3-5.9-18.9-14.4-25.1-24.6
		c-2.7-4.5-4.9-9.3-6.5-14.3c-0.7-2.3-1.4-4.6-1.9-7.1c-0.5-2.2-0.8-4.3-1.1-6.4c-0.3-2.7-0.5-5.5-0.5-8.3
		C318,410.4,349.4,379,388,379 M388,369c-44.2,0-80,35.8-80,80c0,3.2,0.2,6.3,0.6,9.4c0.3,2.5,0.7,4.9,1.2,7.3
		c0.6,2.8,1.3,5.5,2.2,8.1c1.9,5.7,4.4,11.2,7.5,16.3c14,23.2,39.5,38.8,68.6,38.8c44.2,0,80-35.8,80-80c0-18.8-6.5-36.1-17.4-49.8
		c-3.1-3.9-6.6-7.5-10.4-10.8c-5.5-4.7-11.6-8.7-18.2-11.8c-1-0.5-2.1-1-3.1-1.4C409.4,371.2,399,369,388,369L388,369z"/>
</g>
<circle class="st5" cx="388" cy="449" r="40"/>
<g class="st3">
	<circle class="st4" cx="279" cy="535" r="60"/>
</g>
<circle class="st5" cx="279" cy="535" r="30"/>
<g>
	<path d="M279,483c5.1,0,10.1,0.7,15,2.2c7.3,2.2,14.1,6,19.7,11.1c11,9.9,17.3,24,17.3,38.7c0,28.7-23.3,52-52,52s-52-23.3-52-52
		c0-11.2,3.5-22,10.2-31c4.6-6.2,10.6-11.4,17.4-15C262.2,485,270.4,483,279,483 M279,475c-10.2,0-19.7,2.5-28.1,7
		c-7.9,4.2-14.8,10.1-20.1,17.3c-7.4,10-11.8,22.3-11.8,35.7c0,33.1,26.9,60,60,60s60-26.9,60-60c0-17.8-7.7-33.7-20-44.7
		c-6.5-5.8-14.2-10.2-22.8-12.8C290.8,475.9,285,475,279,475L279,475z"/>
</g>
<g id="レイヤー_2_1_">
	<g>
		<path d="M135.7,307.9l-62-88.3h-0.6v60.2c0,4.7,0.2,8.4,0.5,11.1s1,4.8,2.1,6.3s2.6,2.5,4.5,2.9c1.9,0.5,4.4,0.7,7.5,0.8v5.6H46.1
			v-5.6c3.5-0.1,6.2-0.4,8.3-0.9s3.7-1.5,4.9-2.9s1.9-3.4,2.3-6c0.4-2.6,0.6-6,0.6-10.4v-56.3c0-3.9-0.2-7.2-0.6-9.7
			c-0.4-2.6-1.1-4.6-2.1-6.1s-2.5-2.5-4.4-3.1s-4.5-1-7.6-1.2v-5.6h39.1l56.4,80.9h0.6v-54.2c0-4.6-0.2-8.2-0.5-11s-1-4.9-2.1-6.4
			s-2.6-2.5-4.5-2.9c-1.9-0.5-4.4-0.7-7.5-0.8v-5.6h41.6v5.6c-3.5,0.1-6.2,0.4-8.3,0.9s-3.7,1.5-4.9,2.9s-1.9,3.4-2.3,6
			c-0.4,2.6-0.6,6.1-0.6,10.4v83.4L135.7,307.9L135.7,307.9z"/>
		<path d="M213.7,246.9c6,0,10.8-0.2,14.4-0.6c3.6-0.4,6.5-1.1,8.5-2.3s3.4-2.9,4.3-5.1c0.8-2.2,1.5-5.3,2-9.1h5.2v41h-5.2
			c-0.6-3.7-1.3-6.7-2.2-9c-0.9-2.2-2.4-3.9-4.5-5.1c-2.1-1.2-4.8-1.9-8.3-2.2s-8.2-0.5-14.1-0.5v28.8c0,3,0.4,5.5,1.2,7.6
			s2.1,3.7,4,5s4.3,2.1,7.4,2.7c3.1,0.5,6.9,0.8,11.3,0.8c5.3,0,9.8-0.4,13.5-1.1s6.7-2.1,9.2-3.9c2.4-1.9,4.4-4.4,5.9-7.5
			s2.8-7.1,3.8-11.8h5.6l-2.2,32.1h-94.9v-5.6c3.1-0.1,5.6-0.4,7.6-0.8c2-0.5,3.5-1.3,4.5-2.4s1.7-2.7,2.1-4.8
			c0.4-2.1,0.6-4.7,0.6-8v-64.7c0-3.3-0.2-5.9-0.5-7.9s-1-3.6-1.9-4.8s-2.3-2-4-2.4s-4-0.7-6.8-0.9v-5.6h88.5l1,27.4h-6
			c-0.6-3.9-1.4-7.2-2.7-9.7c-1.2-2.6-2.9-4.6-5-6.2c-2.1-1.5-4.9-2.6-8.3-3.2c-3.4-0.6-7.6-0.9-12.5-0.9H219
			c-2.4,0-3.9,0.3-4.5,0.9c-0.6,0.6-0.8,2-0.8,4.3V246.9z"/>
		<path d="M404.6,279.4l18.9-54c2.2-6.3,3.4-10.9,3.4-14c0-2.9-1-4.8-3-5.7s-5.1-1.3-9.3-1.3v-5.6h39.8v5.6c-3.5,0-6.7,0.9-9.6,2.6
			c-2.8,1.7-5,4.6-6.5,8.8l-33.7,92.3H392L367.7,234L340,307.9h-11.6l-29.7-81.8c-1.8-4.8-3.4-8.6-4.9-11.5s-3.1-5.1-4.8-6.6
			c-1.7-1.5-3.5-2.5-5.5-2.9c-2-0.5-4.3-0.7-7-0.7v-5.7h52.9v5.7c-4.8,0-8,0.4-9.8,1.3c-1.8,0.9-2.7,2.4-2.7,4.4
			c0,0.7,0,1.5,0.1,2.2s0.3,1.5,0.6,2.4c0.3,0.9,0.6,2,1,3.3s1,2.9,1.8,4.9l19.6,56.4l22.7-61.9c-0.9-2.5-1.9-4.6-2.8-6.2
			c-0.9-1.6-2-2.8-3.3-3.8c-1.3-0.9-2.7-1.6-4.3-2c-1.6-0.4-3.5-0.8-5.7-1.1v-5.7H396v5.7c-3.9,0-6.8,0.5-8.7,1.5
			c-1.9,1-2.8,2.9-2.8,5.7c0,1.4,0.2,3,0.6,4.9s1,4,1.8,6.4L404.6,279.4z"/>
	</g>
</g>
</svg>
