<?xml version="1.0" encoding="utf-8"?>
<!-- Generator: Adobe Illustrator 24.0.1, SVG Export Plug-In . SVG Version: 6.00 Build 0)  -->
<svg version="1.1" id="レイヤー_1" xmlns="http://www.w3.org/2000/svg" xmlns:xlink="http://www.w3.org/1999/xlink" x="0px"
	 y="0px" viewBox="0 0 50.8 50.8" style="enable-background:new 0 0 50.8 50.8;" xml:space="preserve">
<style type="text/css">
	.st0{fill:#946F00;}
	.st1{fill:#1A1A1A;}
</style>
<rect class="st0" width="50.8" height="50.8"/>
<g>
	<path class="st1" d="M14.9,10c0,0.1-0.1,0.2-0.4,0.3v6.1c0.9,0.8,2,1.4,3,1.8c-0.4,0.3-1,1-1.2,1.5c-0.6-0.3-1.2-0.7-1.8-1.1V23
		h-1.8V17c-0.7-0.7-1.3-1.5-1.8-2.3c-0.9,4-2.6,6.8-5.1,8.3c-0.3-0.4-0.9-1-1.3-1.2c1.4-0.8,2.5-2,3.4-3.5c-0.5-0.5-1.2-1-1.8-1.4
		l0.9-1.2c0.5,0.3,1.1,0.7,1.6,1.1c0.4-1,0.6-2,0.8-3.2H7.4c-0.5,1.5-1.2,2.9-2.1,3.8c-0.2-0.3-0.8-0.9-1.2-1.2
		c1.3-1.3,2.1-3.8,2.5-6.4l2,0.4c0,0.1-0.2,0.2-0.4,0.2c-0.1,0.5-0.2,1-0.4,1.5h2.2l0.3-0.1l1.1,0.4c0,0.1-0.1,0.2-0.2,0.3l-0.1,0.5
		l0.4-0.2c0.3,0.6,0.7,1.1,1.1,1.6V9.9L14.9,10z"/>
	<path class="st1" d="M19.3,10.4h12V23h-1.8v-0.6H21V23h-1.7V10.4z M21,20.9h8.6V12H21V20.9z M27.9,18.7H29v1.4h-7.3v-1.4h2.8v-1.8
		h-2.3v-1.3h2.3v-1.4h-2.7v-1.4h6.9v1.4h-2.7v1.4h2.4v1.3h-0.9c0.4,0.4,0.9,1,1.1,1.3L27.9,18.7z M26.1,16.9v1.8h1.4
		c-0.2-0.4-0.6-0.9-1-1.3l1-0.5H26.1z"/>
	<path class="st1" d="M41,10.3c0,0.1-0.2,0.2-0.4,0.3c0,0.2,0,0.4-0.1,0.7c0.2,2.3,1.1,7.8,6.1,10.1c-0.5,0.4-1,1-1.3,1.4
		c-3.2-1.6-4.8-4.5-5.6-7.1c-0.7,2.5-2.2,5.2-5.2,7.1c-0.3-0.4-0.8-0.9-1.4-1.3c5.7-3.1,5.5-9.6,5.6-11.4L41,10.3z"/>
	<path class="st1" d="M5.9,32.6c0.6,0.6,1.2,1.4,1.9,2.1c0.3-0.9,0.5-1.8,0.7-2.8l1.9,0.4c0,0.1-0.2,0.2-0.4,0.2
		c-0.3,1.3-0.6,2.5-1.1,3.6c0.6,0.8,1.1,1.6,1.5,2.3L9,39.6c-0.2-0.5-0.6-1.1-1-1.8c-0.7,1.2-1.7,2.2-2.9,3c-0.2-0.4-0.7-1-1-1.3
		c1.3-0.7,2.2-1.8,2.9-3.1c-0.7-1-1.6-2-2.4-2.9L5.9,32.6z M17.3,30.9v1.6h-1.5v6.4c0,1.6-0.5,2.1-3.3,2.1c-0.1-0.5-0.3-1.3-0.5-1.8
		c0.5,0,0.9,0,1.3,0c0.8,0,0.8,0,0.8-0.3v-6.4h-3.5v-0.9H4.2v-1.6h2.7v-2.3l2,0.1c0,0.1-0.1,0.2-0.4,0.3v1.9h2.7v0.9h3v-3.2l2,0.1
		c0,0.1-0.1,0.2-0.4,0.3v2.8H17.3z M12,37.4c-0.2-0.8-0.8-2.1-1.5-3.1l1.3-0.6c0.7,0.9,1.3,2.1,1.6,3L12,37.4z"/>
	<path class="st1" d="M21.6,31v2c0,2.3-0.2,5.8-1.5,8c-0.3-0.3-1.1-0.8-1.5-1c1.2-2,1.3-5,1.3-7v-3.6h5v-1.6l2.1,0.1
		c0,0.1-0.1,0.2-0.4,0.3v1.2h5.2V31h-6.1c1.1,0.5,2.6,1.4,3.4,2L28,34.3c-0.7-0.6-2.2-1.6-3.4-2.2l1.1-1.1H21.6z M24,35.2
		c-0.2,1.6-0.4,3.4-1.1,4.6l-1.5-0.7c0.6-1.1,0.9-2.7,1-4.3L24,35.2z M26.1,38.8c0,0.5,0.1,0.6,0.4,0.6h1c0.4,0,0.5-0.3,0.5-2.3
		c0.3,0.3,1.1,0.6,1.5,0.7c-0.1,2.4-0.5,3.1-1.8,3.1h-1.4c-1.4,0-1.8-0.5-1.8-2.1V34l2,0.1c0,0.1-0.1,0.2-0.4,0.3V38.8z M30.4,39.8
		c-0.2-1.2-0.9-3.1-1.7-4.6l1.5-0.6c0.8,1.4,1.6,3.3,1.8,4.5L30.4,39.8z"/>
	<path class="st1" d="M46.3,28.7v1.7h-1.6v8.4c0,1.9-0.8,2.1-4.1,2.1c-0.1-0.5-0.4-1.3-0.7-1.8c0.6,0,1.3,0.1,1.8,0.1
		c1.1,0,1.2,0,1.2-0.4v-8.4h-9.4v-1.7H46.3z M40.8,37.5h-4.4v1.1h-1.6V32h6V37.5z M39.2,33.6h-2.7v2.3h2.7V33.6z"/>
</g>
</svg>
