<?xml version="1.0" encoding="utf-8"?>
<!-- Generator: Adobe Illustrator 24.0.1, SVG Export Plug-In . SVG Version: 6.00 Build 0)  -->
<svg version="1.1" id="レイヤー_1" xmlns="http://www.w3.org/2000/svg" xmlns:xlink="http://www.w3.org/1999/xlink" x="0px"
	 y="0px" viewBox="0 0 50.8 50.8" style="enable-background:new 0 0 50.8 50.8;" xml:space="preserve">
<style type="text/css">
	.st0{fill:#E5E5E5;}
	.st1{fill:#888888;}
</style>
<rect class="st0" width="50.8" height="50.8"/>
<g>
	<path class="st1" d="M13,17.9v0.3c0.6,0.3,2.2,1.5,2.6,1.9l-1.2,1.5c-0.3-0.4-0.9-0.9-1.4-1.4v3.8h-2.1v-3.5
		c-0.7,0.9-1.4,1.8-2.2,2.4c-0.3-0.5-1-1.2-1.4-1.5c1.2-0.8,2.4-2.1,3.3-3.4H7.8V16h3.1v-1.3H7.6v-1.8h1.8c-0.1-0.6-0.3-1.4-0.6-2.1
		l1.2-0.3h-2V8.8h3V6.9L13.5,7c0,0.2-0.1,0.3-0.5,0.3v1.4h2.9v1.8h-1.8l1.5,0.4c-0.1,0.1-0.2,0.2-0.5,0.2c-0.2,0.5-0.5,1.2-0.8,1.8
		h2v1.8h-2.9c-0.1,0.1-0.2,0.1-0.4,0.2V16h3v1.8H13z M12.5,12.9c0.3-0.7,0.6-1.6,0.8-2.4h-2.8c0.3,0.8,0.6,1.7,0.7,2.4l-0.1,0
		L12.5,12.9L12.5,12.9z M24.5,12.9v2h-1.7v9h-2.1v-9h-1.8c0,2.7-0.4,6.5-2.8,9c-0.3-0.5-1-1.2-1.5-1.5c2.1-2.2,2.3-5.2,2.3-7.7V8.6
		l1.1,0.3c1.7-0.5,3.4-1.3,4.4-2l2,1.5c-0.1,0.1-0.3,0.1-0.5,0.1c-1.3,0.7-3.2,1.4-5,1.9v2.4H24.5z"/>
	<path class="st1" d="M36.2,7.6c0,0.2-0.2,0.3-0.5,0.3c0,0.3-0.1,0.6-0.1,0.9c0.3,2.9,1.4,10.1,7.9,13c-0.7,0.5-1.3,1.2-1.7,1.8
		c-4.1-2-6.2-5.7-7.2-9.1c-1,3.2-2.8,6.7-6.7,9.1c-0.4-0.6-1.1-1.2-1.8-1.7c7.3-4,7-12.3,7.1-14.7L36.2,7.6z"/>
	<path class="st1" d="M22.7,35.4V36h3.7v1.6H17V36h3.7v-0.7h-2.4v-1.4h2.4v-0.7h-2.8V32h-0.7v-3.3h3.5v-1.8l2.6,0.1
		c0,0.2-0.2,0.3-0.5,0.3v1.3h3.6V32h-0.7v1.2h-2.9v0.7h2.5v1.4H22.7z M18.1,43.9v-5.6h7.5v5.4h-2v-0.6H20v0.8H18.1z M19.1,31.7h1.6
		v-1.2l2.5,0.1c0,0.2-0.2,0.3-0.5,0.3v0.7h1.7v-1.4h-5.3V31.7z M23.5,39.9H20v1.6h3.5V39.9z M29.7,29.3c0,0.2-0.2,0.3-0.5,0.3v9.7
		h-2.1V29.1L29.7,29.3z M31.1,27.3l2.6,0.1c0,0.2-0.1,0.3-0.5,0.4v13.6c0,2.1-0.6,2.6-4.3,2.6c-0.1-0.6-0.4-1.6-0.7-2.2
		c1.1,0,2.1,0,2.4,0c0.3,0,0.4-0.1,0.4-0.4V27.3z"/>
</g>
</svg>
