<?xml version="1.0" encoding="utf-8"?>
<!-- Generator: Adobe Illustrator 24.0.1, SVG Export Plug-In . SVG Version: 6.00 Build 0)  -->
<svg version="1.1" id="レイヤー_1" xmlns="http://www.w3.org/2000/svg" xmlns:xlink="http://www.w3.org/1999/xlink" x="0px"
	 y="0px" viewBox="0 0 50.8 50.8" style="enable-background:new 0 0 50.8 50.8;" xml:space="preserve">
<style type="text/css">
	.st0{fill:#E5E5E5;}
	.st1{fill:#888888;}
</style>
<rect class="st0" width="50.8" height="50.8"/>
<g>
	<path class="st1" d="M12.1,14.1c0.2-1.8,1.5-4,5.1-4c3.4,0,4.8,1.9,4.8,3.9c0,1.7-1,2.6-1.8,2.9v0.1c0.9,0.3,2.4,1.2,2.4,3.5
		c0,2.1-1.3,4.6-5.4,4.6c-3.9,0-5.2-2.3-5.3-4.3h3.1c0.2,1,0.9,1.8,2.4,1.8c1.5,0,2.2-0.9,2.2-2.2c0-1.3-0.7-2.1-2.4-2.1h-1.3v-2.4
		h1.1c1.4,0,2-0.5,2-1.7c0-1-0.6-1.7-1.8-1.7c-1.5,0-1.8,0.8-2,1.5H12.1z"/>
	<path class="st1" d="M26.2,9.7h6.3c3.2,0,5.4,1.8,5.4,4.7c0,3.3-2.5,4.8-5.5,4.8h-2.9v5.7h-3.3V9.7z M29.4,16.6h2.5
		c1.5,0,2.6-0.6,2.6-2.1c0-1.6-1.1-2.1-2.5-2.1h-2.6V16.6z"/>
	<path class="st1" d="M15.2,30.8v9.7h-1.8v-0.7H5.3v-1.7h8.2v-5.7h-8v-1.7H15.2z"/>
	<path class="st1" d="M19,34h11.7v1.8H19.6c-0.1,0.1-0.3,0.2-0.5,0.3L19,34z"/>
	<path class="st1" d="M43.7,30.5c0,0.1-0.1,0.2-0.3,0.2c-0.8,1.8-1.5,3.1-2.6,4.6c1.4,1.1,3.4,3,4.7,4.3L44,41.1
		c-1.1-1.3-3.1-3.3-4.3-4.3c-1.3,1.5-3.1,3.2-5,4.3c-0.3-0.4-0.9-1-1.3-1.3c3.5-1.9,6.3-5.3,7.6-8.2h-6.3v-1.7h7.3l0.3-0.1
		L43.7,30.5z"/>
</g>
</svg>
