<?xml version="1.0" encoding="utf-8"?>
<!-- Generator: Adobe Illustrator 24.0.1, SVG Export Plug-In . SVG Version: 6.00 Build 0)  -->
<svg version="1.1" id="レイヤー_1" xmlns="http://www.w3.org/2000/svg" xmlns:xlink="http://www.w3.org/1999/xlink" x="0px"
	 y="0px" viewBox="0 0 12.3 11.8" style="enable-background:new 0 0 12.3 11.8;" xml:space="preserve">
<style type="text/css">
	.st0{display:none;fill:#FF0000;enable-background:new    ;}
	.st1{font-family:'YuMincho-Demibold';}
	.st2{font-size:64px;}
	.st3{letter-spacing:4;}
	.st4{fill:url(#SVGID_1_);}
</style>
<text transform="matrix(1 0 0 1 -164.3991 64.2856)" class="st0 st1 st2 st3">ACCESS</text>
<linearGradient id="SVGID_1_" gradientUnits="userSpaceOnUse" x1="0" y1="5.9207" x2="12.3" y2="5.9207">
	<stop  offset="0" style="stop-color:#8F6E27"/>
	<stop  offset="1" style="stop-color:#FFEABF"/>
</linearGradient>
<path class="st4" d="M0.9,6.4v1.5c0,0.3,0.2,0.5,0.5,0.5C1.8,8.4,2,8.2,2,7.9V6.4h0.3c4.5,0,5.7,4.8,5.8,5c0,0.2,0.2,0.3,0.3,0.4
	c0.2,0.1,0.4,0,0.5-0.1C12.2,9,12.3,6,12.3,5.9l0,0l0,0c0-0.1-0.1-3.1-3.4-5.8C8.7,0,8.5,0,8.4,0C8.2,0.1,8.1,0.2,8,0.4
	c0,0.1-1.3,5-5.8,5H2V3.9c0-0.3-0.2-0.5-0.5-0.5S1,3.6,1,3.9v1.5H0v1.1L0.9,6.4L0.9,6.4z"/>
</svg>
