<?xml version="1.0" encoding="utf-8"?>
<!-- Generator: Adobe Illustrator 24.0.1, SVG Export Plug-In . SVG Version: 6.00 Build 0)  -->
<svg version="1.1" id="レイヤー_1" xmlns="http://www.w3.org/2000/svg" xmlns:xlink="http://www.w3.org/1999/xlink" x="0px"
	 y="0px" viewBox="0 0 12.3 11.8" style="enable-background:new 0 0 12.3 11.8;" xml:space="preserve">
<style type="text/css">
	.st0{display:none;fill:#FF0000;enable-background:new    ;}
	.st1{font-family:'YuMincho-Demibold';}
	.st2{font-size:64px;}
	.st3{letter-spacing:4;}
	.st4{fill:url(#SVGID_1_);}
</style>
<text transform="matrix(1 0 0 1 -164.3991 64.2856)" class="st0 st1 st2 st3">ACCESS</text>
<linearGradient id="SVGID_1_" gradientUnits="userSpaceOnUse" x1="0" y1="5.9" x2="12.2" y2="5.9">
	<stop  offset="0" style="stop-color:#FFEABF"/>
	<stop  offset="1" style="stop-color:#8F6E27"/>
</linearGradient>
<path class="st4" d="M11.4,5.4V3.9c0-0.3-0.2-0.5-0.5-0.5s-0.5,0.2-0.5,0.5v1.5h-0.3c-4.5,0-5.7-4.8-5.8-5C4.3,0.2,4.1,0.1,4,0
	C3.8,0,3.6,0,3.4,0.1C0.1,2.8,0,5.8,0,5.9l0,0l0,0C0,6,0.1,9,3.4,11.7c0.1,0.1,0.3,0.1,0.5,0.1c0.2-0.1,0.3-0.2,0.3-0.4
	c0-0.1,1.3-5,5.8-5h0.3v1.5c0,0.3,0.2,0.5,0.5,0.5s0.5-0.2,0.5-0.5V6.4h0.9v-1H11.4z"/>
</svg>
