<?xml version="1.0" encoding="utf-8"?>
<!-- Generator: Adobe Illustrator 24.0.1, SVG Export Plug-In . SVG Version: 6.00 Build 0)  -->
<svg version="1.1" id="レイヤー_1" xmlns="http://www.w3.org/2000/svg" xmlns:xlink="http://www.w3.org/1999/xlink" x="0px"
	 y="0px" viewBox="0 0 11.8 12.3" style="enable-background:new 0 0 11.8 12.3;" xml:space="preserve">
<style type="text/css">
	.st0{display:none;fill:#FF0000;enable-background:new    ;}
	.st1{font-family:'YuMincho-Demibold';}
	.st2{font-size:64px;}
	.st3{letter-spacing:4;}
	.st4{fill:url(#SVGID_1_);}
</style>
<text transform="matrix(1 0 0 1 -164.6584 64.5449)" class="st0 st1 st2 st3">ACCESS</text>
<linearGradient id="SVGID_1_" gradientUnits="userSpaceOnUse" x1="5.9" y1="12.3" x2="5.9" y2="-9.094947e-13">
	<stop  offset="0" style="stop-color:#FFEABF"/>
	<stop  offset="1" style="stop-color:#8F6E27"/>
</linearGradient>
<path class="st4" d="M5.4,0.9H3.9c-0.3,0-0.5,0.2-0.5,0.5C3.4,1.8,3.6,2,3.9,2h1.5v0.3c0,4.5-4.8,5.7-5,5.8C0.2,8.1,0.1,8.2,0,8.4
	c0,0.1,0,0.3,0.1,0.5c2.7,3.3,5.7,3.4,5.8,3.4l0,0l0,0c0.1,0,3.1-0.1,5.8-3.4c0.1-0.1,0.1-0.3,0.1-0.5c-0.1-0.2-0.2-0.3-0.4-0.3
	c-0.1,0-5-1.3-5-5.8V2h1.5c0.3,0,0.5-0.2,0.5-0.5S8.2,1,7.9,1H6.4V0h-1V0.9z"/>
</svg>
