<?xml version="1.0" encoding="utf-8"?>
<!-- Generator: Adobe Illustrator 24.0.1, SVG Export Plug-In . SVG Version: 6.00 Build 0)  -->
<svg version="1.1" id="レイヤー_1" xmlns="http://www.w3.org/2000/svg" xmlns:xlink="http://www.w3.org/1999/xlink" x="0px"
	 y="0px" viewBox="0 0 11.8 12.3" style="enable-background:new 0 0 11.8 12.3;" xml:space="preserve">
<style type="text/css">
	.st0{display:none;fill:#FF0000;enable-background:new    ;}
	.st1{font-family:'YuMincho-Demibold';}
	.st2{font-size:64px;}
	.st3{letter-spacing:4;}
	.st4{fill:url(#SVGID_1_);}
</style>
<text transform="matrix(1 0 0 1 -164.6584 64.5449)" class="st0 st1 st2 st3">ACCESS</text>
<linearGradient id="SVGID_1_" gradientUnits="userSpaceOnUse" x1="5.9207" y1="12.2" x2="5.9207" y2="-9.094947e-13">
	<stop  offset="0" style="stop-color:#8F6E27"/>
	<stop  offset="1" style="stop-color:#FFEABF"/>
</linearGradient>
<path class="st4" d="M6.4,11.4h1.5c0.3,0,0.5-0.2,0.5-0.5s-0.2-0.5-0.5-0.5H6.4v-0.3c0-4.5,4.8-5.7,5-5.8c0.2,0,0.3-0.2,0.4-0.3
	c0.1-0.2,0-0.4-0.1-0.5C9,0.1,6,0,5.9,0l0,0l0,0C5.8,0,2.8,0.1,0.1,3.4C0,3.6,0,3.8,0,3.9c0.1,0.2,0.2,0.3,0.4,0.3
	c0.1,0,5,1.3,5,5.8v0.3H3.9c-0.3,0-0.5,0.2-0.5,0.5s0.2,0.5,0.5,0.5h1.5v0.9h1.1L6.4,11.4L6.4,11.4z"/>
</svg>
